<?xml version="1.0" standalone="no"?>
<!DOCTYPE svg PUBLIC "-//W3C//DTD SVG 1.1//EN" "http://www.w3.org/Graphics/SVG/1.1/DTD/svg11.dtd" >
<svg xmlns="http://www.w3.org/2000/svg" xmlns:xlink="http://www.w3.org/1999/xlink" version="1.1">
<metadata></metadata>
<defs>
<font id="ffscala-italicregular" horiz-adv-x="512" >
<font-face units-per-em="2048" ascent="1638" descent="-410" />
<missing-glyph horiz-adv-x="500" />
<glyph horiz-adv-x="0" />
<glyph unicode="&#xd;" />
<glyph unicode=" " />
<glyph unicode="!" horiz-adv-x="577" d="M184 92q0 49 37 84t92 35q43 0 74 -33t31 -82t-39 -84t-92 -35q-43 0 -73 34t-30 81zM307 393l105 1032l223 84l-246 -1116h-82z" />
<glyph unicode="&#x22;" horiz-adv-x="837" d="M336 885l72 463h120l-73 -463h-119zM664 885l73 463h119l-74 -463h-118z" />
<glyph unicode="#" horiz-adv-x="1331" d="M182 438l39 117h238l96 266h-238l39 117h240l145 410h123l-143 -410h291l145 410h127l-145 -410h227l-39 -117h-229l-94 -266h233l-39 -117h-235l-154 -438h-127l154 438h-293l-158 -438h-125l158 438h-236zM584 555h293l96 266h-295z" />
<glyph unicode="$" horiz-adv-x="1112" d="M168 76l137 135q45 -61 66.5 -81.5t83.5 -66.5l80 7l88 561l-35 20q-141 88 -206 171t-65 175q0 141 129 262t295 121l19 119h94l-18 -117q94 0 153.5 -19.5t163.5 -80.5l-143 -131q-37 49 -66 75.5t-80 67.5l-45 -4l-82 -532q184 -115 250 -193t66 -182 q0 -162 -128 -282.5t-313 -120.5l-18 -119h-94l18 112q-129 0 -195.5 21t-154.5 82zM494 1028q0 -63 28.5 -102t128.5 -111l74 465q-109 -27 -170 -93.5t-61 -158.5zM629 84q131 39 186 102.5t55 175.5q0 59 -35.5 107.5t-125.5 110.5z" />
<glyph unicode="%" horiz-adv-x="1740" d="M70 1014q0 147 104.5 253.5t253.5 106.5q150 0 254 -104.5t104 -255.5q0 -150 -104 -254.5t-254 -104.5q-147 0 -252.5 105.5t-105.5 253.5zM195 1014q0 -98 68.5 -167t164.5 -69q98 0 167 68.5t69 167.5q0 96 -68 165.5t-168 69.5q-96 0 -164.5 -68.5t-68.5 -166.5z M236 -94l1144 1501h142l-1178 -1501h-108zM954 332q0 150 104.5 254t254.5 104q147 0 252.5 -105.5t105.5 -252.5t-105.5 -253t-252.5 -106q-150 0 -254.5 104.5t-104.5 254.5zM1077 332q0 -98 68 -166t168 -68q98 0 165.5 67.5t67.5 166.5q0 98 -68.5 166.5t-164.5 68.5 q-98 0 -167 -68.5t-69 -166.5z" />
<glyph unicode="&#x26;" horiz-adv-x="1206" d="M113 272q0 133 45 276.5t107.5 231.5t141 130t156.5 42q102 0 173 -45t71 -110v-49l-236 -230l136 -203q70 78 106.5 132.5t75.5 137.5t68.5 218t29.5 270v37h-215l35 76h510l-33 -76h-201q0 -143 -29.5 -283.5t-73.5 -249t-86 -169t-140 -162.5l174 -254 q68 -100 98.5 -129t67.5 -29q29 0 51 18.5t61 71.5l64 -43l-41 -49q-59 -72 -98 -96.5t-95 -24.5q-53 0 -95 32t-97 116l-191 280q-117 -90 -191.5 -122.5t-172.5 -32.5q-35 0 -94 10q-82 115 -82 278zM266 416q0 -176 28 -251t93 -75q67 0 221 113l-229 344q281 76 280 229 q0 45 -32.5 76t-81.5 31q-29 0 -68 -11.5t-74 -21.5q-72 -115 -104.5 -217.5t-32.5 -216.5z" />
<glyph unicode="'" d="M336 885l74 463h118l-71 -463h-121z" />
<glyph unicode="(" horiz-adv-x="837" d="M289 162q0 297 68.5 478t107.5 263t95 177.5t91 143.5t105 128h88q-82 -123 -157 -288t-150.5 -411.5t-75.5 -570.5q0 -170 22.5 -332t63.5 -274h-88q-76 135 -123 321.5t-47 364.5z" />
<glyph unicode=")" horiz-adv-x="837" d="M125 -524q80 119 156.5 286.5t152.5 417.5t76 565q0 174 -22.5 331t-65.5 276h90q74 -129 121 -318.5t47 -365.5q0 -297 -82 -518.5t-162 -356.5t-120 -190t-103 -127h-88z" />
<glyph unicode="*" horiz-adv-x="1024" d="M104 1014l48 145l337 -147l-24 -78zM233 616l244 277l68 -49l-189 -318zM489 1403h152l-35 -367h-82zM584 846l65 49l246 -277l-123 -90zM637 1012l338 147l47 -145l-360 -80z" />
<glyph unicode="+" horiz-adv-x="1126" d="M78 426v117h428v428h115v-428h428v-117h-428v-426h-115v426h-428z" />
<glyph unicode="," d="M82 -207q162 117 162 203q0 39 -19.5 61.5t-68.5 38.5q33 63 65.5 90t79.5 27t76 -26.5t29 -71.5q0 -76 -79 -182.5t-206 -202.5z" />
<glyph unicode="-" horiz-adv-x="563" d="M147 389l25 156h391l-24 -156h-392z" />
<glyph unicode="." d="M152 96q0 49 38.5 86t94.5 37q45 0 75.5 -34.5t30.5 -84.5q0 -49 -39 -86t-94 -37q-45 0 -75.5 35t-30.5 84z" />
<glyph unicode="/" horiz-adv-x="837" d="M23 -498l806 1850h121l-807 -1850h-120z" />
<glyph unicode="0" horiz-adv-x="1081" d="M176 401l4 70q29 217 166 358.5t324 141.5q162 0 266 -119t104 -303q0 -240 -143 -408t-350 -168q-166 0 -268.5 119t-102.5 309zM295 418q0 -141 71.5 -225t192.5 -84q145 0 254 124.5t109 294.5q0 139 -72 222.5t-193 83.5q-133 0 -234 -103.5t-124 -259.5z" />
<glyph unicode="1" horiz-adv-x="747" d="M143 0l13 76h176l112 717l-221 -107l-39 82l383 176h56l-138 -868h170l-12 -76h-500z" />
<glyph unicode="2" horiz-adv-x="878" d="M49 0l10 72l340 258q156 121 215.5 202.5t59.5 180.5q0 66 -39 104.5t-105 38.5q-131 0 -284 -160l-47 62q115 115 195.5 159t183.5 44q111 0 180 -63.5t69 -168.5q0 -190 -235 -360l-320 -234h564l-78 -135h-709z" />
<glyph unicode="3" horiz-adv-x="825" d="M-100 -446l82 108q80 -53 110.5 -66.5t71.5 -13.5q88 0 186.5 82t149.5 186.5t51 190.5q0 104 -59.5 169.5t-155.5 65.5h-80l20 78q295 158 295 375q0 131 -131 131q-45 0 -86 -21.5t-104 -80.5l-51 61q76 78 146.5 111t164.5 33q109 0 167 -54.5t58 -156.5 q0 -111 -61.5 -195t-198.5 -160q111 0 172.5 -75.5t61.5 -210.5q0 -156 -87 -297.5t-241 -238.5t-277 -97q-53 0 -92.5 14.5t-111.5 61.5z" />
<glyph unicode="4" horiz-adv-x="968" d="M18 0l5 37l798 934h45l-121 -852h222l-84 -119h-154l-72 -498h-139l72 498h-572zM209 119h397l80 561z" />
<glyph unicode="5" horiz-adv-x="854" d="M12 -440l88 100q47 -47 80 -64.5t74 -17.5q123 0 224.5 142.5t101.5 316.5q0 156 -74 235.5t-236 104.5l82 567h522l-110 -162h-350l-43 -274q369 -49 368 -381q0 -254 -165.5 -452.5t-380.5 -198.5q-57 0 -93.5 16.5t-87.5 67.5z" />
<glyph unicode="6" horiz-adv-x="1128" d="M199 449q0 158 65.5 353t171 364t239.5 259.5t273 90.5q113 0 226 -80l-101 -138q-92 123 -174 123q-78 0 -171 -80.5t-174 -222t-134 -327t-53 -338.5q0 -176 62.5 -288t160.5 -112q63 0 138 54.5t132.5 150.5t57.5 217q0 129 -73 206t-194 77h-90l27 78q51 12 78.5 16 t60.5 4q160 0 258 -98.5t98 -255.5q0 -203 -160.5 -366t-357.5 -163q-170 0 -268 127t-98 349z" />
<glyph unicode="7" horiz-adv-x="1001" d="M143 -406q94 76 138.5 122t88.5 109.5t94 148.5t66 120l336 713h-524l-37 -240h-88l55 377h756l-10 -78l-408 -843q-102 -215 -248 -402l-116 -145z" />
<glyph unicode="8" horiz-adv-x="1044" d="M154 289q0 201 219 379l155 127l-114 127q-88 98 -88 221q0 150 120.5 260t286.5 110q123 0 204 -76.5t81 -193.5q0 -74 -48 -156.5t-130 -150.5l-115 -96l141 -158q119 -131 119 -240q0 -190 -145.5 -329.5t-343.5 -139.5q-166 0 -254 82t-88 234zM289 281 q0 -111 57 -170.5t164 -59.5q135 0 225 94.5t90 233.5q0 55 -16 90t-74 98l-151 166l-142 -123q-154 -135 -153 -329zM489 1186q0 -104 68 -176l113 -115l88 78q57 51 94 129t37 155q0 84 -45 131.5t-123 47.5q-100 0 -166 -70t-66 -180z" />
<glyph unicode="9" horiz-adv-x="1128" d="M109 -442l98 137q49 -68 89 -95.5t87 -27.5q76 0 169 81t173 218t127 307t47 332q0 168 -61.5 272.5t-161.5 104.5q-70 0 -143.5 -51.5t-131 -148.5t-57.5 -218q0 -131 71.5 -207t196.5 -76h88l-26 -77q-51 -12 -78 -16.5t-59 -4.5q-162 0 -260.5 96.5t-98.5 257.5 q0 203 159 366t355 163q174 0 272.5 -129t98.5 -355q0 -160 -57.5 -332.5t-165 -336.5t-239.5 -253t-269 -89q-110 0 -223 82z" />
<glyph unicode=":" d="M154 94q0 49 36.5 84t92.5 35q45 0 75.5 -33t30.5 -82q0 -47 -39 -84t-94 -37q-43 0 -72.5 34t-29.5 83zM270 834q0 49 37 83.5t92 34.5q45 0 76 -32.5t31 -79.5q0 -51 -39 -86t-94 -35q-43 0 -73 33.5t-30 81.5z" />
<glyph unicode=";" d="M72 -207q88 61 124.5 108.5t36.5 94.5q0 39 -19 62.5t-69 37.5q35 63 69 90t79 27q47 0 75.5 -26.5t28.5 -71.5q0 -76 -78.5 -182.5t-205.5 -202.5zM276 834q0 51 38 84.5t92 33.5q43 0 75.5 -32.5t32.5 -79.5q0 -51 -39 -86t-94 -35q-43 0 -74 32.5t-31 82.5z" />
<glyph unicode="&#x3c;" horiz-adv-x="1126" d="M80 430v111l967 430v-129l-811 -357l811 -356v-129z" />
<glyph unicode="=" horiz-adv-x="1126" d="M51 274v117h1024v-117h-1024zM51 559v115h1024v-115h-1024z" />
<glyph unicode="&#x3e;" horiz-adv-x="1126" d="M80 0v129l811 356l-811 357v129l967 -430v-111z" />
<glyph unicode="?" horiz-adv-x="980" d="M274 1192q0 57 128 177t317 120q133 0 213 -78t80 -205q0 -147 -100.5 -272t-376.5 -320q43 -57 65.5 -79.5t77.5 -63.5l-129 -119q-80 92 -114 138.5t-73 121.5q162 111 199 137.5t106.5 81t137 131t67.5 199.5q0 92 -61 143.5t-172 51.5q-70 0 -115 -20.5t-114 -82.5 q35 -41 60.5 -60t64.5 -48l-136 -125q-74 68 -99.5 103.5t-25.5 68.5zM354 94q0 51 38 85t91 34q45 0 76 -33t31 -82t-38 -85t-93 -36q-43 0 -74 33t-31 84z" />
<glyph unicode="@" horiz-adv-x="2048" d="M203 446q0 379 241.5 621t622.5 242q184 0 323.5 -55.5t250 -172t159.5 -242.5t49 -290q0 -174 -43 -279.5t-160.5 -196.5t-297.5 -91q-115 0 -167.5 46t-52.5 150q0 31 5.5 63.5t9.5 49.5l22 88q-72 -115 -123 -175.5t-110.5 -107.5t-119.5 -73.5t-99 -26.5 q-53 0 -88 85t-35 216q0 289 141 486.5t348 197.5q55 0 85 -8t85 -43l62 51h80l-117 -727l-8 -86q0 -86 123 -86q92 0 176 49t136 144.5t52 281.5q0 137 -39 238.5t-136 209t-214 156.5t-287 49q-352 0 -563 -202.5t-211 -544.5q0 -197 57.5 -327t174 -222t216 -123 t250.5 -31q111 0 179.5 14.5t156.5 57.5l41 -90q-92 -43 -176 -61.5t-190 -18.5q-176 0 -293 39t-249 145.5t-199.5 255t-67.5 344.5zM752 342q0 -172 82 -172q43 0 103 54.5t151.5 187.5t136.5 389q-41 53 -77 74.5t-79 21.5q-125 0 -221 -168t-96 -387z" />
<glyph unicode="A" horiz-adv-x="1376" d="M10 0l13 76h133l741 1319h35l303 -1319h141l-12 -76h-479l12 76h174l-84 370h-516l-207 -370h160l-10 -76h-404zM524 543h443l-125 563z" />
<glyph unicode="B" horiz-adv-x="1300" d="M166 0l12 76h154l190 1200h-153l10 76h561q141 0 223 -80t82 -219q0 -147 -101.5 -244.5t-256.5 -97.5q152 -16 233.5 -104.5t81.5 -233.5q0 -162 -117.5 -267.5t-296.5 -105.5h-622zM494 92h211q145 0 234 91t89 239q0 233 -252 233h-194zM596 748h182q121 0 203 88 t82 217q0 204 -195 204h-2h-188z" />
<glyph unicode="C" horiz-adv-x="1366" d="M201 588q0 319 237.5 554.5t558.5 235.5q174 0 316 -73l14 88h92l-55 -349h-92l24 152q-123 82 -280 82q-260 0 -445.5 -202t-185.5 -484q0 -225 121 -368.5t311 -143.5q106 0 192.5 41t196.5 147l78 -75q-72 -68 -115 -99t-138 -76t-249 -45q-254 0 -417.5 172 t-163.5 443z" />
<glyph unicode="D" horiz-adv-x="1515" d="M168 0l12 76h154l190 1200h-155l12 76h575q233 0 387 -168t154 -426q0 -297 -230.5 -527.5t-527.5 -230.5h-571zM496 102h217q252 0 428 201t176 488q0 219 -102.5 337.5t-294.5 118.5h-244z" />
<glyph unicode="E" horiz-adv-x="1189" d="M166 0l12 76h154l190 1200h-153l10 76h782l10 57h93l-52 -326h-92l29 174h-471l-84 -524h375l24 154l92 2l-63 -406h-94l26 158h-374l-86 -549h489l29 180h92l-43 -272h-895z" />
<glyph unicode="F" horiz-adv-x="1169" d="M135 0l12 76h154l191 1200h-154l10 76h782l11 57h92l-51 -326h-92l28 174h-471l-84 -524h375l25 154l92 2l-64 -406h-94l27 158h-375l-88 -565h186l-12 -76h-500z" />
<glyph unicode="G" horiz-adv-x="1525" d="M199 602q0 309 239.5 542.5t558.5 233.5q80 0 150 -16t164 -55l12 86h92l-55 -349h-90l22 152q-51 37 -126.5 59.5t-153.5 22.5q-258 0 -442.5 -203t-184.5 -489q0 -238 132 -372t370 -134q59 0 98 6t115 27l55 352h-174l12 76h486l-11 -76h-153l-68 -420 q-90 -39 -175 -55.5t-214 -16.5q-301 0 -480 171t-179 458z" />
<glyph unicode="H" horiz-adv-x="1710" d="M164 0l10 76h156l190 1200h-155l12 76h467l-10 -76h-156l-86 -545h758l86 545h-156l12 76h469l-12 -76h-156l-190 -1200h156l-13 -76h-467l11 76h155l90 563h-757l-91 -563h156l-12 -76h-467z" />
<glyph unicode="I" horiz-adv-x="794" d="M164 0l10 76h156l190 1200h-155l12 76h467l-10 -76h-156l-191 -1200h156l-12 -76h-467z" />
<glyph unicode="J" horiz-adv-x="782" d="M-193 -424l113 121q59 -61 88 -83t80 -42q96 41 135 115.5t72 277.5l215 1311h-154l13 76h471l-13 -76h-155l-211 -1294q-49 -309 -168 -389t-168 -94.5t-113 -14.5q-53 0 -94 18.5t-111 73.5z" />
<glyph unicode="K" horiz-adv-x="1337" d="M164 0l10 78h156l188 1198h-153l12 76h467l-10 -76h-156l-191 -1200h156l-12 -76h-467zM598 702l576 574h-138l13 76h436l-12 -76h-160l-533 -533l457 -667h125l-12 -76h-269z" />
<glyph unicode="L" horiz-adv-x="1087" d="M131 0l12 76h154l190 1200h-153l10 76h500l-10 -76h-189l-186 -1184h489l29 180h92l-43 -272h-895z" />
<glyph unicode="M" horiz-adv-x="1845" d="M115 0l10 76h156l190 1200h-156l13 76h321l305 -1059l654 1059h288l-12 -76h-155l-189 -1200h154l-13 -76h-467l13 76h153l154 962l-657 -1069l-326 1137l-164 -1030h154l-11 -76h-415z" />
<glyph unicode="N" horiz-adv-x="1509" d="M147 0l11 76h155l172 1149l-26 51h-152l12 76h281l594 -1037l152 961h-156l12 76h416l-12 -76h-156l-205 -1299h-49l-618 1092l-158 -993h153l-12 -76h-414z" />
<glyph unicode="O" horiz-adv-x="1540" d="M203 557q0 319 237.5 569t542.5 250q242 0 399.5 -163.5t157.5 -419.5q0 -322 -236.5 -571t-541.5 -249q-231 0 -395 171t-164 413zM391 549q0 -217 103.5 -347t277.5 -130q246 0 414 215t168 526q0 221 -102.5 346t-286.5 125q-238 0 -406 -215t-168 -520z" />
<glyph unicode="P" horiz-adv-x="1228" d="M164 0l10 76h156l190 1200h-155l12 76h524q166 0 265.5 -97.5t99.5 -257.5q0 -174 -144.5 -308t-335.5 -134q-47 0 -141 18l10 62l54 -6q156 0 270.5 125t114.5 293q0 210 -215 210h-2h-201l-189 -1181h175l-13 -76h-485z" />
<glyph unicode="Q" horiz-adv-x="1540" d="M203 555q0 324 238.5 572.5t543.5 248.5q242 0 398.5 -164.5t156.5 -418.5q0 -233 -137 -446.5t-257 -265.5t-151.5 -63.5t-83.5 -25.5q-88 -51 -135 -72.5t-172 -69.5q233 -109 457.5 -175t359.5 -66q180 0 226 178h59q-18 -176 -81.5 -243.5t-217.5 -67.5 q-145 0 -301 36.5t-313.5 98t-245.5 98.5t-244 109q135 41 196.5 63.5t235.5 98.5q-129 0 -213 40.5t-201.5 168.5t-117.5 366zM391 555q0 -225 100.5 -354t278.5 -129q248 0 416 211t168 524q0 225 -102.5 350t-288.5 125q-233 0 -402.5 -214t-169.5 -513z" />
<glyph unicode="R" horiz-adv-x="1339" d="M164 0l10 76h156l190 1200h-155l12 76h543q156 0 252 -92.5t96 -241.5q0 -145 -100.5 -254t-264.5 -137l223 -453q49 -94 115 -94h98l-12 -80h-180q-74 0 -111 24.5t-73 100.5l-228 481h-164l-84 -530h156l-12 -76h-467zM588 700h166q147 0 239 92.5t92 239.5 q0 225 -219 225h-190z" />
<glyph unicode="S" horiz-adv-x="1150" d="M186 -18l58 368h92l-27 -170q66 -55 117 -75.5t127 -20.5q143 0 239.5 73.5t96.5 184.5q0 74 -56.5 136.5t-210 154.5t-218 171t-64.5 183q0 164 127 276.5t311 112.5q152 0 242 -67l14 84h90l-55 -351h-90l25 166q-53 41 -95.5 55.5t-99.5 14.5q-135 0 -223 -69.5 t-88 -178.5q0 -61 60 -125.5t211 -161t212 -176.5t61 -180q0 -170 -132 -292t-314 -122q-164 0 -305 103l-15 -94h-90z" />
<glyph unicode="T" horiz-adv-x="1228" d="M201 1085l53 324h90l-8 -57h954l8 57h93l-52 -324h-92l27 164h-397l-187 -1173h205l-10 -76h-572l13 76h204l187 1173h-398l-26 -164h-92z" />
<glyph unicode="U" horiz-adv-x="1597" d="M365 1276l12 76h467l-10 -76h-156l-123 -774q-8 -72 -9 -96.5t-1 -38.5q0 -131 86 -209t231 -78q119 0 222.5 55t154.5 149.5t70 219.5l123 772h-154l10 76h416l-10 -76h-156l-123 -782q-31 -190 -102.5 -298t-201.5 -165.5t-273 -57.5q-207 0 -331 111t-124 295 q0 39 4 59l133 838h-155z" />
<glyph unicode="V" horiz-adv-x="1353" d="M240 1276l12 76h491l-12 -76h-203l236 -995l547 995h-127l12 76h330l-13 -76h-94l-721 -1311h-22l-311 1311h-125z" />
<glyph unicode="W" horiz-adv-x="1929" d="M238 1276l12 76h416l-13 -76h-127l236 -995l278 507l-116 488h-131l12 76h749l-10 -76h-127l-233 -428l133 -567l547 995h-127l12 76h330l-13 -76h-94l-721 -1311h-12l-166 686l-377 -686h-22l-312 1311h-124zM1081 1276l70 -291l156 291h-226z" />
<glyph unicode="X" horiz-adv-x="1275" d="M4 0l12 76h103l530 583l-325 617h-136l13 76h530l-12 -76h-211l258 -490l446 490h-178l13 76h417l-12 -76h-100l-535 -588l328 -612h137l-12 -76h-537l12 76h211l-256 483l-440 -483h174l-12 -76h-418z" />
<glyph unicode="Y" horiz-adv-x="1253" d="M213 1276l12 76h516l-12 -76h-203l265 -533l407 533h-174l12 76h389l-12 -76h-96l-506 -658l-86 -542h154l-13 -76h-467l13 76h153l90 573l-307 627h-135z" />
<glyph unicode="Z" horiz-adv-x="1368" d="M115 0l10 76l1067 1171h-770l-27 -164h-90l51 326h90l-8 -57h989l-12 -78l-1067 -1172h813l33 213h90l-49 -315h-1120z" />
<glyph unicode="[" d="M63 -498l293 1850h312l-15 -95h-192l-264 -1663h192l-14 -92h-312z" />
<glyph unicode="\" horiz-adv-x="837" d="M315 1352h121l221 -1850h-120z" />
<glyph unicode="]" d="M-20 -498l14 92h192l263 1663h-191l14 95h312l-293 -1850h-311z" />
<glyph unicode="^" horiz-adv-x="692" d="M240 1014l282 338h90l166 -338h-90l-145 178l-205 -178h-98z" />
<glyph unicode="_" horiz-adv-x="1024" d="M-18 -117l18 117h1024l-18 -117h-1024z" />
<glyph unicode="`" horiz-adv-x="528" d="M475 1352h191l139 -330h-111z" />
<glyph unicode="a" horiz-adv-x="1024" d="M100 252q0 135 39 268t111 237.5t147.5 149.5t177.5 45q61 0 102.5 -14t98.5 -55l19 67h112l-104 -588q-10 -57 -13.5 -94t-3.5 -55v-59q49 47 90.5 97t86.5 118l61 -39q-109 -166 -173.5 -229.5t-101 -85t-75.5 -33.5q-27 90 -27 178q0 33 4 77t11 80l14 84 q-80 -182 -213 -305t-250 -123q-55 0 -84 71t-29 208zM258 309q0 -86 14.5 -139t40.5 -53q10 0 28.5 10t47.5 29l66 55q96 92 152.5 201.5t81.5 178t56 179.5q-98 104 -180 104q-123 0 -215 -169.5t-92 -395.5z" />
<glyph unicode="b" horiz-adv-x="954" d="M111 0l219 1374h-172v37l280 98h51l-145 -919q106 158 225 260t199 102q59 0 100 -91t41 -228q0 -260 -144 -460t-333 -200q-41 0 -89 14.5t-97 41.5l-39 -29h-96zM272 141q63 -53 91 -67.5t73 -14.5q121 0 215 166t94 379q0 193 -69 193q-41 0 -122 -76t-164 -197 t-101 -268z" />
<glyph unicode="c" horiz-adv-x="772" d="M94 268q0 281 141.5 483.5t335.5 202.5q147 0 248 -94l-112 -123l-37 49q-37 47 -63.5 63.5t-69.5 16.5q-55 0 -156 -43q-74 -131 -102.5 -223t-28.5 -205q0 -139 32.5 -218t90.5 -79q61 0 144 64.5t200 202.5l55 -52q-84 -106 -135 -157.5t-112.5 -87t-128 -54 t-110.5 -24.5t-96 -6q-53 70 -74.5 134t-21.5 150z" />
<glyph unicode="d" horiz-adv-x="999" d="M100 252q0 135 39 268t112 238.5t147.5 149.5t181.5 44q57 0 91 -8t81 -37l73 467h-172v37l283 98h51l-215 -1351q68 55 96.5 90t83.5 123l66 -35q-68 -106 -123 -170t-109.5 -107t-75 -53t-63.5 -22q-16 31 -19 42t-3 42q0 66 18 161l33 172q-82 -184 -213 -305 t-248 -121q-53 0 -84 73t-31 204zM258 309q0 -86 14.5 -139t40.5 -53q10 0 28.5 10t47.5 29l66 55q96 92 152.5 201.5t81.5 178t56 179.5q-98 104 -180 104q-123 0 -215 -169.5t-92 -395.5z" />
<glyph unicode="e" horiz-adv-x="778" d="M94 266q0 276 133 481t314 205q96 0 163.5 -49t67.5 -123v-51l-520 -305v-109q0 -215 117 -215q72 0 165 73t181 194l63 -54q-109 -150 -240.5 -238.5t-246.5 -88.5q-45 0 -115 14q-82 111 -82 266zM260 526l352 219v52q0 80 -82 80q-51 0 -135 -35q-61 -78 -88 -139.5 t-47 -176.5z" />
<glyph unicode="f" horiz-adv-x="524" d="M-344 -430l113 123q57 -61 84.5 -83t87.5 -44q96 49 134 122.5t68 272.5l138 852h-172v39l188 61l45 265q37 209 180.5 272t208.5 63q70 0 130.5 -22.5t127.5 -73.5l-117 -123q-43 45 -65.5 63.5t-83.5 65.5l-33 23q-96 -29 -143 -97.5t-74 -215.5l-39 -226h209l-14 -94 h-211l-146 -924q-29 -182 -140.5 -297.5t-258.5 -115.5q-106 0 -217 94z" />
<glyph unicode="g" horiz-adv-x="858" d="M-53 -324q39 76 75.5 122t131.5 141q-57 18 -82 32.5t-62 51.5q51 86 98.5 147t102.5 113q-51 49 -75.5 108.5t-24.5 134.5q0 170 110.5 299t257.5 129q90 0 240 -55h139l123 27l-63 -138h-179q29 -88 29 -159q0 -164 -114.5 -286t-270.5 -122q-51 0 -115 29 q-51 -80 -62 -101.5t-11 -37.5q0 -47 71 -48h371q186 0 186 -176q0 -184 -128 -297.5t-333 -113.5h-3q-286 0 -412 200zM129 -295q0 -61 69.5 -102t176.5 -41q131 0 230.5 79.5t99.5 186.5q0 90 -78 90h-383q-68 -88 -91.5 -132t-23.5 -81zM264 567q0 -113 47 -184.5 t123 -71.5q82 0 136.5 85t54.5 216q0 117 -44 187.5t-116 70.5q-86 0 -143.5 -87t-57.5 -216z" />
<glyph unicode="h" horiz-adv-x="1064" d="M111 0l217 1374h-172v37l282 98h51l-159 -1011q80 123 149.5 204.5t133 137t117.5 82t91 26.5q41 0 65.5 -32.5t24.5 -88.5q0 -43 -16 -141l-90 -553q59 49 87 79t73 89l45 64l61 -39q-90 -127 -138 -183.5t-94 -91.5t-71 -46t-72 -21q-26 75 -26 122q0 44 12 123l72 441 l8 57v16q0 61 -35 62q-43 0 -142.5 -107.5t-133 -147.5t-76.5 -108.5t-65.5 -128t-37.5 -149.5l-22 -164h-139z" />
<glyph unicode="i" horiz-adv-x="575" d="M102 813v39l283 96h53l-129 -815q61 51 88 80t70 88l47 64l59 -39q-86 -123 -136 -181.5t-92 -91.5t-68.5 -45t-77.5 -24q-27 74 -27 125q0 43 12 122l90 582h-172zM338 1300l2 19q6 61 37 99t74 38q25 0 43 -35t18 -84v-18q-8 -61 -39 -100t-74 -39q-25 0 -43 34.5 t-18 85.5z" />
<glyph unicode="j" horiz-adv-x="501" d="M-352 -432l112 123q57 -61 88 -84t84 -43q98 49 143.5 133t71.5 264l125 846h-172v37l281 98h53l-158 -1055q-29 -178 -145.5 -293.5t-267.5 -115.5q-63 0 -104 16.5t-111 73.5zM344 1292l2 19q6 61 37 99t74 38q25 0 43 -35t18 -86v-16q-8 -61 -38.5 -100.5t-73.5 -39.5 q-25 0 -43.5 35t-18.5 86z" />
<glyph unicode="k" horiz-adv-x="944" d="M111 0l217 1374h-174v37l292 98h43l-149 -938q174 51 285.5 141.5t111.5 112.5q-2 6 -4 10.5t-11 13.5t-26 9h-100l27 70h321q-41 -78 -93 -130.5t-146.5 -119t-126 -85t-93.5 -46.5q59 -168 116.5 -278.5t84.5 -110.5q41 0 178 180l64 -49q-90 -131 -177 -218t-128 -87 q-49 0 -117 149l-78 172l-66 191l-34 -13l-78 -483h-139z" />
<glyph unicode="l" horiz-adv-x="497" d="M109 109q0 39 12 122l180 1143h-170v37l283 98h51l-221 -1376q57 47 85.5 77t73.5 91l48 64l59 -41q-92 -131 -137 -183.5t-102.5 -96.5t-135.5 -60q-14 39 -20 68.5t-6 56.5z" />
<glyph unicode="m" horiz-adv-x="1630" d="M111 813v39l278 96h51l-69 -450q131 203 267 326.5t224 123.5q92 0 92 -125q0 -27 -3 -50t-13 -89l-35 -188q125 199 262.5 325.5t227.5 126.5q92 0 92 -123q0 -41 -17 -139l-90 -553q66 53 88.5 76.5t71.5 91.5l47 64l60 -41q-82 -115 -135.5 -176.5t-107.5 -104.5 t-132 -59q-14 39 -20.5 68.5t-6.5 56.5q0 41 12 120l72 441l8 57v16q0 61 -35 62q-43 0 -145 -111l-131 -145q-12 -14 -32.5 -42t-35.5 -54q-45 -70 -71.5 -141.5t-38.5 -147.5l-23 -164h-137l105 672l8 55l4 29q0 49 -33 49q-25 0 -57.5 -24.5t-107.5 -104.5t-109.5 -122 t-97 -141.5t-83.5 -248.5l-24 -164h-137l129 813h-172z" />
<glyph unicode="n" horiz-adv-x="1105" d="M102 813v39l279 96h53l-72 -450q133 205 267.5 327.5t224.5 122.5q92 0 92 -123q0 -37 -16 -139l-90 -553q61 51 86.5 79t70.5 89l47 64l62 -41q-94 -129 -141 -183.5t-92.5 -89.5t-69 -46t-72.5 -21q-26 75 -26 122q0 44 12 123l69 441l11 73q0 61 -37 62 q-23 0 -56.5 -25.5t-116.5 -117t-110.5 -124t-67.5 -97t-66 -132t-36 -145.5l-22 -164h-140l129 813h-172z" />
<glyph unicode="o" horiz-adv-x="913" d="M109 352q0 260 162.5 430t316.5 170q133 0 217 -110.5t84 -288.5q0 -109 -51.5 -225.5t-164 -234.5t-267.5 -118q-129 0 -213 106.5t-84 270.5zM270 395q0 -141 51.5 -233t131.5 -92q109 0 192.5 143t83.5 330q0 135 -52 226t-130 91q-94 0 -174.5 -116.5t-98.5 -278.5z " />
<glyph unicode="p" horiz-adv-x="991" d="M-80 -498l12 68h152l199 1243h-172v41l284 94h51l-59 -358q102 158 221 260t201 102q59 0 100 -91t41 -230q0 -258 -144 -458t-333 -200q-84 0 -176 52l-70 -455h181l-13 -68h-475zM313 141q63 -53 91 -67.5t73 -14.5q121 0 215 168t94 383q0 84 -18 133.5t-51 49.5 q-43 0 -121 -72t-162 -195t-104 -270z" />
<glyph unicode="q" horiz-adv-x="923" d="M92 242q0 287 138.5 498.5t338.5 211.5q63 0 100.5 -12t96.5 -57l20 67h111l-219 -1380h133l-12 -68h-480l13 68h207l129 831q-76 -176 -211 -302t-252 -126q-55 0 -84 69t-29 200zM250 309q0 -86 14.5 -139t40.5 -53q10 0 28.5 10t47.5 29l65 55q96 92 152.5 201.5 t82 178t56.5 179.5q-98 104 -180 104q-123 0 -215 -169.5t-92 -395.5z" />
<glyph unicode="r" horiz-adv-x="722" d="M113 813v39l280 96h51l-55 -346q80 156 173 250t169 94q55 0 94 -82l-145 -151q-51 45 -78 45q-63 0 -133 -125t-96.5 -207t-46.5 -217l-33 -209h-139l131 813h-172z" />
<glyph unicode="s" horiz-adv-x="671" d="M68 0l41 231h67q-8 -33 -8 -63q0 -45 42 -72.5t109 -27.5q68 0 117 47t49 110q0 92 -129 192.5t-164.5 145.5t-35.5 113q0 115 78.5 189.5t195.5 74.5q33 0 49 -4l64 -8h129l-35 -232h-64q10 45 11 72q0 37 -39 65.5t-94 28.5q-61 0 -110.5 -43t-49.5 -100 q0 -47 29.5 -84t129 -110.5t135.5 -128t36 -124.5q0 -121 -94.5 -202.5t-229.5 -81.5l-59 4l-37 8h-133z" />
<glyph unicode="t" horiz-adv-x="598" d="M82 813v39l186 61l45 289h142l-47 -295h194l-16 -94h-193l-108 -674q102 72 151 113t123 117l55 -52q-86 -92 -157.5 -155.5t-134 -106.5t-85 -52t-69.5 -19q-14 35 -18.5 53t-4.5 47q0 18 4.5 60t10.5 85l92 584h-170z" />
<glyph unicode="u" horiz-adv-x="1116" d="M121 813v39l280 96h54l-113 -690l-10 -74q0 -61 37 -61q41 0 137 96t170 202.5t104.5 180.5t42.5 160l23 166h137l-125 -795q55 45 84 76t74 92l47 64l61 -39q-94 -131 -138 -183.5t-101 -97.5t-135 -61q-27 74 -27 125q0 41 12 118l31 203q-133 -207 -266 -330 t-224 -123q-92 0 -92 123q0 37 4 72q10 51 15 84l88 557h-170z" />
<glyph unicode="v" horiz-adv-x="860" d="M43 813v39l250 96h51v-811q113 96 173.5 164t138 188.5t77.5 192.5q0 82 -127 158l154 114q108 -93 108 -209q0 -108 -99 -251.5t-185 -242.5t-148.5 -151.5t-171.5 -115.5h-55v829h-166z" />
<glyph unicode="w" horiz-adv-x="1335" d="M43 813v39l250 96h51v-807q92 68 134 116t98.5 123t128.5 177v256h-148v47l231 88h52v-815q113 92 174 157.5t135 186.5t74 211q0 49 -27 79t-106 69l161 118q117 -98 117 -196q0 -80 -62.5 -205t-158.5 -242.5t-174 -181t-228 -145.5h-40v438q-125 -174 -198 -249 t-116 -107.5t-129 -81.5h-53v829h-166z" />
<glyph unicode="x" horiz-adv-x="1052" d="M43 90l113 117q31 -39 65 -39q55 0 123 84l150 186l-119 275q-16 41 -27.5 54t-25.5 13q-43 0 -168 -159l-58 49l76 88q72 88 134.5 136t103.5 48q12 0 24 -9t31 -54l137 -324l197 258q41 55 87 91t77 36q33 0 60.5 -21.5t80.5 -82.5l-111 -109q-43 51 -73 51 q-45 0 -115 -90l-166 -211l98 -244l27 -61q10 -23 31 -22q25 0 66.5 40.5t119.5 141.5l63 -43q-229 -305 -329 -305q-10 0 -24.5 16t-26.5 43l-138 322l-182 -242q-61 -78 -92 -105.5t-59 -27.5q-68 0 -150 100z" />
<glyph unicode="y" horiz-adv-x="870" d="M37 813v55l278 82l174 -784l121 172q147 209 148 321q0 88 -119 189l147 106q92 -86 93 -213q0 -92 -43 -191t-152 -251l-78 -111q-94 -133 -117.5 -174t-37.5 -98l-91 -346h146l-14 -68h-435l13 68h149l115 475q8 37 8 78q0 59 -9 102t-18 78l-112 510h-166z" />
<glyph unicode="z" horiz-adv-x="999" d="M16 -16q16 66 42 100.5t128 134.5l555 529l-84 -3q-74 0 -138 16.5t-208 74.5l-137 -156l-68 35l84 125q70 104 218 104q55 0 114 -18l305 -92l97 110h75q-39 -106 -145 -209l-598 -569l74 2q94 0 171 -13.5t259 -62.5l123 146l82 -33q-96 -139 -163 -180t-192 -41 q-66 0 -118 16l-302 94l-106 -110h-68z" />
<glyph unicode="{" horiz-adv-x="837" d="M182 483l11 58h75q76 0 127 61.5t68 177.5l76 471q43 272 309 273h117l-11 -68h-80q-150 0 -180 -199l-78 -483q-23 -137 -70.5 -192.5t-160.5 -69.5q94 -14 126 -48t32 -122q0 -35 -4 -57.5t-4 -34.5l-78 -494l-6 -65q0 -133 122 -133h80l-12 -82h-117q-229 0 -229 207 l6 67l78 494l8 84q0 70 -35 112.5t-92 42.5h-78z" />
<glyph unicode="|" d="M113 -524l323 2048h121l-324 -2048h-120z" />
<glyph unicode="}" horiz-adv-x="837" d="M31 -524l12 82h80q152 0 182 198l78 494q20 135 69.5 190.5t161.5 71.5q-90 12 -122.5 47t-32.5 121l6 94l78 483l4 66q0 133 -123 133h-80l10 68h117q229 0 229 -205l-4 -68l-75 -471l-9 -84q0 -70 35 -112.5t92 -42.5h78l-8 -58h-78q-156 0 -194 -239l-78 -494 q-47 -274 -312 -274h-116z" />
<glyph unicode="~" horiz-adv-x="929" d="M246 1128q78 84 143.5 121t132.5 37q63 0 90 -20l70 -47q53 -37 119 -37q51 0 77.5 12t88.5 66l45 -33q-86 -88 -147.5 -121t-139.5 -33q-92 0 -146.5 40t-74 49t-47.5 9q-76 1 -168 -77z" />
<glyph unicode="&#xa1;" horiz-adv-x="577" d="M109 -498l245 1114h80l-102 -1032zM326 915q0 49 37 84t92 35q43 0 73.5 -32.5t30.5 -81.5t-37 -84t-92 -35q-43 0 -73.5 32.5t-30.5 81.5z" />
<glyph unicode="&#xa2;" horiz-adv-x="907" d="M129 342q0 252 169 431t411 179h22l53 154h76l-55 -160q57 -10 89 -25.5t91 -62.5l-129 -121q-23 43 -37 62.5t-47 54.5l-264 -760q47 -18 84 -18q55 0 101 14t151 64l30 -82q-113 -59 -175 -79t-144 -20l-72 4h-16l-55 -153h-76l59 170q-127 31 -196.5 122t-69.5 226z M311 424q0 -182 131 -295l263 748q-158 0 -276 -136.5t-118 -316.5z" />
<glyph unicode="&#xa3;" horiz-adv-x="1179" d="M-39 -469q0 53 82 110.5t197 86.5q49 80 98 233l74 246h-258l32 74l265 45l280 843q49 150 159.5 240t246.5 90q86 0 148.5 -42t62.5 -99q0 -29 -25 -61.5t-72 -32.5q-23 0 -44 15t-25 36l-15 53q-16 49 -61 49q-63 0 -129 -80t-111 -215l-258 -796h393l-51 -119h-383 l-102 -318l-14 -47q-8 -33 -26.5 -60.5t-33.5 -49.5q86 -10 128 -25.5t131 -66t130 -66.5t72 -16q25 0 47.5 10t38.5 31.5t16 42.5q0 43 -53 102l152 90q23 -37 31 -60.5t8 -49.5q0 -111 -91.5 -179.5t-238.5 -68.5q-121 0 -213 57l-90 57q-31 20 -55.5 28.5t-77.5 12.5 q-147 -156 -299 -155q-66 0 -66 55z" />
<glyph unicode="&#xa4;" horiz-adv-x="1011" d="M-344 -430l113 123q47 -53 79.5 -78t90.5 -49q92 45 134 126t70 265l138 856h-172v39l188 61l35 211q27 152 135 246t258 94q68 0 112 -14t99 -59q57 53 136 87.5t149 34.5q131 0 254 -96l-117 -123q-61 76 -89 99.5t-91 52.5q-96 -31 -144.5 -99.5t-72.5 -209.5 l-39 -230h206l-12 -94h-211l-145 -870q-29 -180 -137.5 -295t-251.5 -115q-90 0 -217 88q-80 -84 -138.5 -114.5t-142.5 -30.5q-106 0 -217 94zM233 -248q47 -55 94.5 -83.5t112.5 -43.5q96 63 131 134t66 257l131 797h-350l-146 -926q-4 -29 -11 -53t-28 -82zM434 907h348 l39 232q10 63 16.5 79.5t12.5 36.5q-68 80 -164 138q-111 -29 -151.5 -86.5t-69.5 -225.5z" />
<glyph unicode="&#xa5;" horiz-adv-x="1259" d="M219 1276l12 76h508l-12 -76h-186l268 -535l414 535h-187l11 76h409l-12 -76h-105l-446 -571h299l-12 -80h-338l-31 -193h338l-14 -86h-338l-43 -270h155l-12 -76h-487l10 76h155l43 270h-337l12 86h340l29 193h-338l14 80h285l-283 571h-121z" />
<glyph unicode="&#xa7;" horiz-adv-x="706" d="M-170 -397l160 86q27 -104 133 -105q96 0 182 67.5t129 183.5t63.5 266.5t20.5 377.5v129q0 283 8.5 386.5t30 153.5t41 75.5t64.5 72.5l30 -12q-33 -68 -47 -159t-14 -240l4 -398q0 -535 -128 -706.5t-244 -238t-218 -66.5q-76 0 -121 26.5t-94 100.5zM162 -297 q33 68 47 158t14 239l-6 398q0 524 128 704t244 244.5t226 64.5q70 0 115 -28.5t92 -100.5l-160 -84q-27 102 -131 103q-96 0 -183 -68.5t-130 -182.5t-63.5 -264.5t-20.5 -375.5l2 -139q0 -283 -8.5 -382.5t-38.5 -164.5q-14 -37 -33 -61.5t-66 -71.5z" />
<glyph unicode="&#xa8;" horiz-adv-x="831" d="M319 1171q0 43 33 74t80 31q39 0 65.5 -28.5t26.5 -73.5q0 -43 -32.5 -74t-81.5 -31q-39 0 -65 29.5t-26 72.5zM678 1171q0 43 32.5 74t80.5 31q39 0 65.5 -28.5t26.5 -73.5q0 -43 -33 -74t-82 -31q-39 0 -64.5 29.5t-25.5 72.5z" />
<glyph unicode="&#xa9;" horiz-adv-x="2048" d="M184 498q0 348 246 593.5t594 245.5t594 -245.5t246 -593.5t-245 -595t-595 -247q-348 0 -594 245.5t-246 596.5zM315 498q0 -295 208 -503t501 -208q295 0 502 207t207 504q0 295 -207 501.5t-502 206.5t-502 -206.5t-207 -501.5zM535 487q0 203 153.5 354.5 t358.5 151.5q113 0 219 -55v57h100v-295h-102v142q-63 35 -106.5 49t-90.5 14q-147 0 -247.5 -118.5t-100.5 -294.5q0 -184 104.5 -305t266.5 -121q49 0 82.5 12t95.5 53v145h102v-219q-106 -47 -175 -65.5t-140 -18.5q-227 0 -373.5 144.5t-146.5 369.5z" />
<glyph unicode="&#xaa;" horiz-adv-x="1566" d="M-344 -430l113 123q57 -63 84.5 -84t87.5 -43q90 45 131 124t71 267l138 856h-172v39l186 61l41 209q39 215 176 275.5t209 60.5q119 0 215 -65q137 121 291 120q66 0 125 -22.5t123 -73.5l-117 -125q-43 45 -76 73t-106 81q-96 -29 -143.5 -98.5t-74.5 -219.5l-36 -221 h329l117 41h51l-129 -815q57 47 89 81t79 97l37 54l59 -39q-86 -123 -135 -180.5t-102 -98.5q-49 -43 -135 -63q-14 35 -20.5 67.5t-6.5 54.5q0 20 2 47t8 72l90 588h-350l-137 -866q-31 -190 -138.5 -306t-252.5 -116q-55 0 -100.5 19.5t-122.5 76.5q-78 -84 -137.5 -114.5 t-141.5 -30.5q-66 0 -108.5 18.5t-110.5 75.5zM236 -242q106 -109 206 -139q90 53 126 125t69 270l131 799h-350l-146 -922q-8 -43 -12 -60t-24 -73zM434 907h348l39 232q10 59 27 114q-41 53 -72 78t-88 58q-102 -27 -148 -91.5t-75 -220.5z" />
<glyph unicode="&#xab;" horiz-adv-x="1007" d="M125 459l537 393l-13 -84l-291 -309l193 -309l-14 -87zM535 459l538 393l-14 -84l-291 -309l193 -309l-13 -87z" />
<glyph unicode="&#xad;" horiz-adv-x="563" d="M147 389l25 156h391l-24 -156h-392z" />
<glyph unicode="&#xae;" horiz-adv-x="2048" d="M184 469q0 348 245 595t595 247q348 0 594 -246t246 -596q0 -348 -246 -594t-594 -246t-594 246t-246 594zM315 469q0 -295 207 -502t502 -207t502 207t207 502t-208 503t-501 208q-295 0 -502 -207t-207 -504zM608 0v76h144v803h-144v75h406q352 0 352 -254 q0 -197 -223 -258l190 -325q27 -41 68 -41h67v-76h-237l-240 422h-96v-346h141v-76h-428zM895 506h125q84 0 137 49t53 131q0 184 -213 184h-102v-364z" />
<glyph unicode="&#xb0;" horiz-adv-x="681" d="M88 1120q0 102 71.5 176t176.5 74q102 0 176 -73.5t74 -176.5q0 -104 -72 -176t-178 -72q-104 0 -176 72t-72 176zM190 1120q0 -59 43.5 -102t102.5 -43q61 0 104 43t43 102q0 61 -43 104.5t-104 43.5q-59 0 -102.5 -43t-43.5 -105z" />
<glyph unicode="&#xb1;" horiz-adv-x="1126" d="M78 0v117h971v-117h-971zM78 510v115h428v346h115v-346h428v-115h-428v-346h-115v346h-428z" />
<glyph unicode="&#xb4;" horiz-adv-x="681" d="M383 1022l295 330h190l-376 -330h-109z" />
<glyph unicode="&#xb5;" horiz-adv-x="2048" d="M176 633q0 47 98.5 77.5t257.5 30.5l60 -2q29 0 39 10.5t10 36.5l-6 41l-8 70q0 29 10 42t25 19l14 -4l16 -12q23 -14 76 -14l63 4l54 2q78 0 177 -31t157.5 -73t85 -55t53.5 -13l65 6l146 31q53 18 140 83.5t114 106.5l20 31q14 20 27 20q33 0 33 -49q0 -35 -10.5 -76 t-24.5 -67l-43 -70l-31 -49l-22 -24q-8 -12 -9 -23q0 -20 19.5 -32.5t74 -38t76 -43t21.5 -38.5q0 -29 -41 -59l-41 -33l-43 -32l-43 -23q-35 -18 -35 -51q0 -10 23 -41l36 -49q55 -78 74 -128.5t19 -125.5q0 -27 -4.5 -37t-18.5 -10q-20 0 -31 18l-30 53q-14 25 -94 86.5 t-140 77.5l-137 33l-66 12q-23 0 -108.5 -44t-181 -85t-117.5 -41q-53 0 -86 62l-29 49q-6 10 -59 39q-57 35 -78 92l-21 53l-38 62l-31 84q-8 31 -184 45l-160 14q-113 10 -113 82zM262 627q0 -14 8.5 -24.5t20.5 -10.5l24 10l17 8l22 -16q14 -14 52 -19l104 -2l98 -2 l78 -4l62 6l36 11h11q31 0 30 -19l-12 -16l-22 -10l-48 -4q-14 0 -32.5 -18.5t-20.5 -35.5l-2 -12q0 -23 25 -47q33 -27 65 -27l19 2l28 11q14 0 15 -17q0 -18 -29 -26l-31 -9q-8 -8 -8 -32q0 -49 55 -72q29 -14 45 -14q18 0 33 14l31 29q16 12 27 12q18 0 18 -21 q0 -20 -36 -40.5t-36 -36.5q0 -14 13.5 -35t34 -35t42.5 -14q25 0 56 18l63 35l64 29q113 51 136 73.5t23 81.5l-2 12l-4 119l-6 117q0 55 -10 85t-29 40l-78 39l-41 39q-47 43 -194 73l-70 11h-12l-29 -4l-26 -2l-27 -21l-8 -25q-2 -6 -7 -10t-12 -6q-12 14 -25 44t-48 30 q-29 0 -34 -16.5t-5 -49.5q0 -74 47 -73l49 2l76 4l123 8q29 0 48 -12.5t19 -30.5q0 -20 -30 -21h-9q-53 6 -159 7q-145 0 -207 -7l-203 -20l-104 -8q-61 0 -62 -45zM1386 645l7 -90l6 -98v-75t2 -58v-19q0 -33 6 -39l47 -8l16 -2q27 0 27 53l4 82l2 68l-8 123l-6 77 q0 39 -8 55.5t-27 16.5l-20 -2l-43 -8l-5 -39v-37z" />
<glyph unicode="&#xb6;" horiz-adv-x="1318" d="M242 -397l159 86q27 -104 150 -105l82 6l141 912h-102q-166 0 -286 121.5t-120 291.5q0 242 176 418t418 176h309l31 189h76l-29 -189h99q45 0 68.5 -8t68.5 -41l-49 -69q-41 39 -101 39h-98l-242 -1469q-45 -281 -200.5 -383t-303.5 -102q-96 0 -144 24.5t-103 102.5z M715 -383q90 53 143 147.5t76 237.5l223 1430h-158z" />
<glyph unicode="&#xba;" horiz-adv-x="1531" d="M-344 -430l111 123l30 -31q49 -47 70.5 -61.5t73.5 -34.5q94 47 133 124t69 273l140 850h-174v39l188 61l37 215q25 147 133 241.5t254 94.5q59 0 105 -14t110 -55q137 119 283 118q57 0 159 -34l70 30h51l-221 -1388q66 66 97.5 102.5t107.5 141.5l61 -41l-53 -72 q-106 -141 -170 -195.5t-150 -74.5q-29 74 -28 122q0 18 4 61.5t8 65.5l172 1094q-37 35 -56.5 50.5t-94.5 72.5q-98 -35 -145.5 -103.5t-74.5 -218.5l-36 -219h208l-14 -94h-211l-137 -866q-27 -172 -141.5 -293t-249.5 -121q-109 0 -215 92q-76 -84 -139.5 -116.5 t-149.5 -32.5q-63 0 -104 17.5t-111 76.5zM238 -238q90 -104 194 -135q162 111 199 338l135 848h-348l-146 -922q-6 -43 -34 -129zM434 907h346l45 262l9 41l10 39q-49 63 -80 90t-86 56q-88 -27 -148.5 -112t-74.5 -204z" />
<glyph unicode="&#xbb;" horiz-adv-x="1024" d="M88 63l14 87l291 309l-192 309l12 84l414 -393zM498 63l14 87l291 309l-193 309l13 84l413 -393z" />
<glyph unicode="&#xbf;" horiz-adv-x="980" d="M88 -221q0 184 120 301t195.5 178t147.5 107q-35 43 -63.5 70.5t-75.5 64.5l145 131q70 -82 109 -136.5t75 -121.5l-151 -109q-160 -115 -228.5 -181.5t-91 -125.5t-22.5 -117q0 -94 60.5 -152.5t156.5 -58.5q68 0 94.5 12.5t52 33t52.5 40.5q-29 37 -49.5 53.5 t-69.5 51.5l162 145q74 -68 98 -103.5t24 -68.5q0 -57 -130 -177t-314 -120q-135 0 -216 77t-81 206zM514 885q0 49 39 86t92 37q43 0 74 -35t31 -82q0 -49 -37 -84t-92 -35q-45 0 -76 33t-31 80z" />
<glyph unicode="&#xc0;" horiz-adv-x="1376" d="M10 0l13 76h133l741 1319h35l303 -1319h141l-12 -76h-479l12 76h174l-84 370h-516l-207 -370h160l-10 -76h-404zM524 543h443l-125 563zM639 1726h219l199 -235h-115z" />
<glyph unicode="&#xc1;" horiz-adv-x="1376" d="M10 0l13 76h133l741 1319h35l303 -1319h141l-12 -76h-479l12 76h174l-84 370h-516l-207 -370h160l-10 -76h-404zM524 543h443l-125 563zM776 1491l273 235h219l-379 -235h-113z" />
<glyph unicode="&#xc2;" horiz-adv-x="1376" d="M10 0l13 76h133l741 1319h35l303 -1319h141l-12 -76h-479l12 76h174l-84 370h-516l-207 -370h160l-10 -76h-404zM524 543h443l-125 563zM649 1448l266 229h89l184 -229h-90l-156 121l-194 -121h-99z" />
<glyph unicode="&#xc3;" horiz-adv-x="1376" d="M10 0l13 76h133l741 1319h35l303 -1319h141l-12 -76h-479l12 76h174l-84 370h-516l-207 -370h160l-10 -76h-404zM496 1530q139 121 295 121q70 0 110 -17l84 -41q66 -31 143 -30q61 0 90 10t101 55l41 -37q-143 -121 -322 -121q-100 0 -180 41l-57 29q-39 14 -76 14 q-91 1 -195 -67zM524 543h443l-125 563z" />
<glyph unicode="&#xc4;" horiz-adv-x="1376" d="M10 0l13 76h133l741 1319h35l303 -1319h141l-12 -76h-479l12 76h174l-84 370h-516l-207 -370h160l-10 -76h-404zM524 543h443l-125 563zM582 1483q0 43 32.5 73.5t81.5 30.5q37 0 64.5 -29.5t27.5 -72.5t-32.5 -74t-81.5 -31q-39 0 -65.5 29t-26.5 74zM940 1483 q0 43 33 73.5t82 30.5q39 0 65.5 -28.5t26.5 -73.5q0 -43 -33 -74t-82 -31q-39 0 -65.5 29t-26.5 74z" />
<glyph unicode="&#xc5;" horiz-adv-x="1376" d="M10 0l13 76h133l741 1319h35l303 -1319h141l-12 -76h-479l12 76h174l-84 370h-516l-207 -370h160l-10 -76h-404zM524 543h443l-125 563zM678 1513q0 68 53 117t127 49q61 0 104.5 -47t43.5 -114q0 -68 -53.5 -117t-129.5 -49q-59 0 -102 47t-43 114zM748 1513 q0 -39 24 -65.5t59 -26.5q45 0 75 28t30 69q0 39 -24.5 65.5t-59.5 26.5q-45 0 -74.5 -28t-29.5 -69z" />
<glyph unicode="&#xc6;" horiz-adv-x="1783" d="M18 0l17 76h117l856 1200h-164l16 76h905l9 47h92l-54 -326h-90l29 184h-473l-86 -528h375l24 152h92l-63 -400h-92l24 154h-374l-91 -541h490l31 174h92l-43 -268h-897l14 76h152l59 364h-444l-254 -364h143l-14 -76h-398zM606 541h398l118 725z" />
<glyph unicode="&#xc7;" horiz-adv-x="1372" d="M201 578q0 322 238.5 556t564.5 234q160 0 315 -72l14 88h90l-53 -348h-90l23 150q-68 45 -132.5 63.5t-146.5 18.5q-264 0 -451.5 -198t-187.5 -476q0 -227 121 -370.5t313 -143.5q106 0 190.5 39t202.5 145l76 -76q-84 -74 -123 -100.5t-100 -55t-112.5 -40.5 t-141.5 -12l-86 -111q133 -27 133 -145q0 -90 -82 -151.5t-201 -61.5q-49 0 -80.5 8t-82.5 35l65 100q43 -41 68.5 -53.5t62.5 -12.5q47 0 80 31t33 78t-31 69.5t-121 45.5l156 168q-135 20 -212 55t-151.5 114.5t-117.5 191.5t-43 237z" />
<glyph unicode="&#xc8;" horiz-adv-x="1189" d="M166 0l12 76h154l190 1200h-153l10 76h782l10 57h93l-52 -326h-92l29 174h-471l-84 -524h375l24 154l92 2l-63 -406h-94l26 158h-374l-86 -549h489l29 180h92l-43 -272h-895zM563 1724h219l199 -235h-115z" />
<glyph unicode="&#xc9;" horiz-adv-x="1189" d="M166 0l12 76h154l190 1200h-153l10 76h782l10 57h93l-52 -326h-92l29 174h-471l-84 -524h375l24 154l92 2l-63 -406h-94l26 158h-374l-86 -549h489l29 180h92l-43 -272h-895zM727 1481l272 235h220l-379 -235h-113z" />
<glyph unicode="&#xca;" horiz-adv-x="1189" d="M166 0l12 76h154l190 1200h-153l10 76h782l10 57h93l-52 -326h-92l29 174h-471l-84 -524h375l24 154l92 2l-63 -406h-94l26 158h-374l-86 -549h489l29 180h92l-43 -272h-895zM555 1487l266 229h88l185 -229h-90l-156 123l-195 -123h-98z" />
<glyph unicode="&#xcb;" horiz-adv-x="1189" d="M166 0l12 76h154l190 1200h-153l10 76h782l10 57h93l-52 -326h-92l29 174h-471l-84 -524h375l24 154l92 2l-63 -406h-94l26 158h-374l-86 -549h489l29 180h92l-43 -272h-895zM506 1491q0 45 32.5 75.5t79.5 30.5q39 0 66 -30.5t27 -71.5q0 -43 -33 -73.5t-82 -30.5 q-37 0 -63.5 28.5t-26.5 71.5zM864 1491q0 45 33 75.5t80 30.5q39 0 65.5 -30.5t26.5 -71.5q0 -43 -33 -73.5t-82 -30.5q-37 0 -63.5 28.5t-26.5 71.5z" />
<glyph unicode="&#xcc;" horiz-adv-x="761" d="M137 0l13 76h153l191 1200h-154l12 76h467l-12 -76h-154l-190 -1200h153l-10 -76h-469zM295 1714h219l199 -235h-113z" />
<glyph unicode="&#xcd;" horiz-adv-x="761" d="M137 0l13 76h153l191 1200h-154l12 76h467l-12 -76h-154l-190 -1200h153l-10 -76h-469zM471 1460l274 236h218l-377 -236h-115z" />
<glyph unicode="&#xce;" horiz-adv-x="761" d="M137 0l13 76h153l191 1200h-154l12 76h467l-12 -76h-154l-190 -1200h153l-10 -76h-469zM330 1464l266 230h90l182 -230h-88l-155 121l-195 -121h-100z" />
<glyph unicode="&#xcf;" horiz-adv-x="761" d="M137 0l13 76h153l191 1200h-154l12 76h467l-12 -76h-154l-190 -1200h153l-10 -76h-469zM373 1559q0 43 32.5 73.5t79.5 30.5q39 0 66 -28.5t27 -73.5q0 -43 -33 -74t-82 -31q-39 0 -64.5 30t-25.5 73zM657 1559q0 43 33 73.5t82 30.5q39 0 65.5 -28.5t26.5 -73.5 q0 -43 -32.5 -74t-81.5 -31q-39 0 -66 28.5t-27 74.5z" />
<glyph unicode="&#xd1;" horiz-adv-x="1509" d="M147 0l11 76h155l172 1149l-26 51h-152l12 76h281l594 -1037l152 961h-156l12 76h416l-12 -76h-156l-205 -1299h-49l-618 1092l-158 -993h153l-12 -76h-414zM561 1532q139 121 295 121q70 0 111 -17l84 -41q66 -31 143 -30q61 0 90 10t100 55l41 -37q-143 -121 -321 -120 q-100 0 -180 40l-58 29q-39 14 -78 14q-88 1 -192 -67z" />
<glyph unicode="&#xd2;" horiz-adv-x="1540" d="M203 557q0 319 237.5 569t542.5 250q242 0 399.5 -163.5t157.5 -419.5q0 -322 -236.5 -571t-541.5 -249q-231 0 -395 171t-164 413zM391 549q0 -217 103.5 -347t277.5 -130q246 0 414 215t168 526q0 221 -102.5 346t-286.5 125q-238 0 -406 -215t-168 -520zM676 1706h219 l199 -236h-113z" />
<glyph unicode="&#xd3;" horiz-adv-x="1540" d="M203 557q0 319 237.5 569t542.5 250q242 0 399.5 -163.5t157.5 -419.5q0 -322 -236.5 -571t-541.5 -249q-231 0 -395 171t-164 413zM391 549q0 -217 103.5 -347t277.5 -130q246 0 414 215t168 526q0 221 -102.5 346t-286.5 125q-238 0 -406 -215t-168 -520zM829 1483 l273 235h219l-377 -235h-115z" />
<glyph unicode="&#xd4;" horiz-adv-x="1540" d="M203 557q0 319 237.5 569t542.5 250q242 0 399.5 -163.5t157.5 -419.5q0 -322 -236.5 -571t-541.5 -249q-231 0 -395 171t-164 413zM391 549q0 -217 103.5 -347t277.5 -130q246 0 414 215t168 526q0 221 -102.5 346t-286.5 125q-238 0 -406 -215t-168 -520zM727 1462 l266 230h90l183 -230h-88l-156 121l-195 -121h-100z" />
<glyph unicode="&#xd5;" horiz-adv-x="1540" d="M203 557q0 319 237.5 569t542.5 250q242 0 399.5 -163.5t157.5 -419.5q0 -322 -236.5 -571t-541.5 -249q-231 0 -395 171t-164 413zM391 549q0 -217 103.5 -347t277.5 -130q246 0 414 215t168 526q0 221 -102.5 346t-286.5 125q-238 0 -406 -215t-168 -520zM588 1534 q68 59 143.5 90t153.5 31q72 0 108 -17l86 -41q61 -31 142 -30q61 0 90.5 10t99.5 55l41 -37q-143 -121 -322 -120q-100 0 -180 41l-55 28q-39 14 -78 15q-88 0 -192 -68z" />
<glyph unicode="&#xd6;" horiz-adv-x="1540" d="M203 557q0 319 237.5 569t542.5 250q242 0 399.5 -163.5t157.5 -419.5q0 -322 -236.5 -571t-541.5 -249q-231 0 -395 171t-164 413zM391 549q0 -217 103.5 -347t277.5 -130q246 0 414 215t168 526q0 221 -102.5 346t-286.5 125q-238 0 -406 -215t-168 -520zM705 1538 q0 45 32.5 76t79.5 31q37 0 65.5 -31t28.5 -72q0 -43 -32.5 -73.5t-81.5 -30.5q-39 0 -65.5 28.5t-26.5 71.5zM1176 1538q0 45 32.5 76t81.5 31q39 0 65.5 -31t26.5 -72q0 -43 -32.5 -73.5t-81.5 -30.5q-39 0 -65.5 28.5t-26.5 71.5z" />
<glyph unicode="&#xd8;" horiz-adv-x="1533" d="M74 -49l245 239q-59 92 -85.5 178.5t-26.5 188.5q0 322 236.5 570.5t541.5 248.5q236 0 391 -157l248 239l51 -53l-250 -242q111 -168 111 -379q0 -307 -239.5 -559t-536.5 -252q-231 0 -389 164l-244 -237zM387 549q0 -105 51 -244l828 807q-104 160 -305 160 q-229 0 -401.5 -216t-172.5 -507zM475 240q78 -98 143.5 -135t159.5 -37q231 0 403.5 221t172.5 518q0 74 -10.5 119t-40.5 116z" />
<glyph unicode="&#xd9;" horiz-adv-x="1597" d="M365 1276l12 76h467l-10 -76h-156l-123 -774q-8 -72 -9 -96.5t-1 -38.5q0 -131 86 -209t231 -78q119 0 222.5 55t154.5 149.5t70 219.5l123 772h-154l10 76h416l-10 -76h-156l-123 -782q-31 -190 -102.5 -298t-201.5 -165.5t-273 -57.5q-207 0 -331 111t-124 295 q0 39 4 59l133 838h-155zM731 1710h219l199 -235h-115z" />
<glyph unicode="&#xda;" horiz-adv-x="1597" d="M365 1276l12 76h467l-10 -76h-156l-123 -774q-8 -72 -9 -96.5t-1 -38.5q0 -131 86 -209t231 -78q119 0 222.5 55t154.5 149.5t70 219.5l123 772h-154l10 76h416l-10 -76h-156l-123 -782q-31 -190 -102.5 -298t-201.5 -165.5t-273 -57.5q-207 0 -331 111t-124 295 q0 39 4 59l133 838h-155zM952 1468l273 236h219l-377 -236h-115z" />
<glyph unicode="&#xdb;" horiz-adv-x="1597" d="M365 1276l12 76h467l-10 -76h-156l-123 -774q-8 -72 -9 -96.5t-1 -38.5q0 -131 86 -209t231 -78q119 0 222.5 55t154.5 149.5t70 219.5l123 772h-154l10 76h416l-10 -76h-156l-123 -782q-31 -190 -102.5 -298t-201.5 -165.5t-273 -57.5q-207 0 -331 111t-124 295 q0 39 4 59l133 838h-155zM797 1466l266 230h90l182 -230h-88l-157 121l-193 -121h-100z" />
<glyph unicode="&#xdc;" horiz-adv-x="1597" d="M365 1276l12 76h467l-10 -76h-156l-123 -774q-8 -72 -9 -96.5t-1 -38.5q0 -131 86 -209t231 -78q119 0 222.5 55t154.5 149.5t70 219.5l123 772h-154l10 76h416l-10 -76h-156l-123 -782q-31 -190 -102.5 -298t-201.5 -165.5t-273 -57.5q-207 0 -331 111t-124 295 q0 39 4 59l133 838h-155zM745 1565q0 43 33 73.5t82 30.5q39 0 65.5 -28.5t26.5 -73.5q0 -43 -32.5 -74t-81.5 -31q-39 0 -66 29t-27 74zM1208 1565q0 43 33 73.5t82 30.5q39 0 65.5 -28.5t26.5 -73.5q0 -43 -33 -74t-82 -31q-39 0 -65.5 29t-26.5 74z" />
<glyph unicode="&#xdf;" horiz-adv-x="1126" d="M-356 -432l110 123q55 -59 87 -82t87 -43q94 45 133 120.5t72 274.5l199 1206q25 154 123 242t247 88q127 0 211 -71.5t84 -180.5q0 -123 -96 -231l-108 -119q-41 -47 -69 -103.5t-28 -97.5q0 -43 30 -78.5t166 -133t136 -226.5q0 -115 -97 -199t-231 -84 q-78 0 -146.5 23.5t-152.5 81.5l97 123q74 -84 124 -116t105 -32q68 0 117 47t49 111q0 92 -129 189.5t-166 144.5t-37 110q0 80 43 149.5t133 156t110.5 124t20.5 91.5q0 96 -57 169.5t-133 73.5q-88 0 -138.5 -70.5t-76.5 -228.5l-201 -1233q-31 -184 -142.5 -297.5 t-260.5 -113.5q-61 0 -105 18.5t-110 73.5z" />
<glyph unicode="&#xe0;" horiz-adv-x="1024" d="M100 252q0 135 39 268t111 237.5t147.5 149.5t177.5 45q61 0 102.5 -14t98.5 -55l19 67h112l-104 -588q-10 -57 -13.5 -94t-3.5 -55v-59q49 47 90.5 97t86.5 118l61 -39q-109 -166 -173.5 -229.5t-101 -85t-75.5 -33.5q-27 90 -27 178q0 33 4 77t11 80l14 84 q-80 -182 -213 -305t-250 -123q-55 0 -84 71t-29 208zM258 309q0 -86 14.5 -139t40.5 -53q10 0 28.5 10t47.5 29l66 55q96 92 152.5 201.5t81.5 178t56 179.5q-98 104 -180 104q-123 0 -215 -169.5t-92 -395.5zM449 1401h190l139 -330h-110z" />
<glyph unicode="&#xe1;" horiz-adv-x="1024" d="M100 252q0 135 39 268t111 237.5t147.5 149.5t177.5 45q61 0 102.5 -14t98.5 -55l19 67h112l-104 -588q-10 -57 -13.5 -94t-3.5 -55v-59q49 47 90.5 97t86.5 118l61 -39q-109 -166 -173.5 -229.5t-101 -85t-75.5 -33.5q-27 90 -27 178q0 33 4 77t11 80l14 84 q-80 -182 -213 -305t-250 -123q-55 0 -84 71t-29 208zM258 309q0 -86 14.5 -139t40.5 -53q10 0 28.5 10t47.5 29l66 55q96 92 152.5 201.5t81.5 178t56 179.5q-98 104 -180 104q-123 0 -215 -169.5t-92 -395.5zM498 1071l295 330h190l-377 -330h-108z" />
<glyph unicode="&#xe2;" horiz-adv-x="1024" d="M100 252q0 135 39 268t111 237.5t147.5 149.5t177.5 45q61 0 102.5 -14t98.5 -55l19 67h112l-104 -588q-10 -57 -13.5 -94t-3.5 -55v-59q49 47 90.5 97t86.5 118l61 -39q-109 -166 -173.5 -229.5t-101 -85t-75.5 -33.5q-27 90 -27 178q0 33 4 77t11 80l14 84 q-80 -182 -213 -305t-250 -123q-55 0 -84 71t-29 208zM258 309q0 -86 14.5 -139t40.5 -53q10 0 28.5 10t47.5 29l66 55q96 92 152.5 201.5t81.5 178t56 179.5q-98 104 -180 104q-123 0 -215 -169.5t-92 -395.5zM354 1069l283 338h90l166 -338h-90l-146 180l-204 -180h-99z " />
<glyph unicode="&#xe3;" horiz-adv-x="1024" d="M100 252q0 135 39 268t111 237.5t147.5 149.5t177.5 45q61 0 102.5 -14t98.5 -55l19 67h112l-104 -588q-10 -57 -13.5 -94t-3.5 -55v-59q49 47 90.5 97t86.5 118l61 -39q-109 -166 -173.5 -229.5t-101 -85t-75.5 -33.5q-27 90 -27 178q0 33 4 77t11 80l14 84 q-80 -182 -213 -305t-250 -123q-55 0 -84 71t-29 208zM258 309q0 -86 14.5 -139t40.5 -53q10 0 28.5 10t47.5 29l66 55q96 92 152.5 201.5t81.5 178t56 179.5q-98 104 -180 104q-123 0 -215 -169.5t-92 -395.5zM274 1124q78 84 143.5 121t133.5 37q61 0 90 -18l70 -50 q53 -35 118 -34q49 0 77 12t89 63l45 -32q-86 -88 -147.5 -121t-138.5 -33q-92 0 -148.5 42t-74 50t-44.5 8q-74 1 -170 -79z" />
<glyph unicode="&#xe4;" horiz-adv-x="1024" d="M100 252q0 135 39 268t111 237.5t147.5 149.5t177.5 45q61 0 102.5 -14t98.5 -55l19 67h112l-104 -588q-10 -57 -13.5 -94t-3.5 -55v-59q49 47 90.5 97t86.5 118l61 -39q-109 -166 -173.5 -229.5t-101 -85t-75.5 -33.5q-27 90 -27 178q0 33 4 77t11 80l14 84 q-80 -182 -213 -305t-250 -123q-55 0 -84 71t-29 208zM258 309q0 -86 14.5 -139t40.5 -53q10 0 28.5 10t47.5 29l66 55q96 92 152.5 201.5t81.5 178t56 179.5q-98 104 -180 104q-123 0 -215 -169.5t-92 -395.5zM401 1171q0 43 33 74t80 31q39 0 65.5 -28.5t26.5 -73.5 q0 -43 -32.5 -74t-81.5 -31q-39 0 -65 29.5t-26 72.5zM739 1171q0 43 33 74t80 31q39 0 65.5 -28.5t26.5 -73.5q0 -43 -33 -74t-82 -31q-39 0 -64.5 29.5t-25.5 72.5z" />
<glyph unicode="&#xe5;" horiz-adv-x="1024" d="M100 252q0 135 39 268t111 237.5t147.5 149.5t177.5 45q61 0 102.5 -14t98.5 -55l19 67h112l-104 -588q-10 -57 -13.5 -94t-3.5 -55v-59q49 47 90.5 97t86.5 118l61 -39q-109 -166 -173.5 -229.5t-101 -85t-75.5 -33.5q-27 90 -27 178q0 33 4 77t11 80l14 84 q-80 -182 -213 -305t-250 -123q-55 0 -84 71t-29 208zM258 309q0 -86 14.5 -139t40.5 -53q10 0 28.5 10t47.5 29l66 55q96 92 152.5 201.5t81.5 178t56 179.5q-98 104 -180 104q-123 0 -215 -169.5t-92 -395.5zM455 1210q0 70 52 118t128 48q61 0 104 -47t43 -115 t-53 -116.5t-129 -48.5q-59 0 -102 47t-43 114zM524 1210q0 -39 24.5 -65.5t59.5 -26.5q45 0 75 28t30 68q0 39 -24.5 66t-59.5 27q-45 0 -75 -28t-30 -69z" />
<glyph unicode="&#xe6;" horiz-adv-x="1345" d="M104 252q0 131 41 268t112 239.5t145.5 147.5t177.5 45q61 0 102 -14t98 -55l19 67h112l-18 -102q63 59 111.5 81.5t111.5 22.5q88 0 155.5 -45t67.5 -104v-25l-518 -399l-4 -68v-28q0 -86 31 -135.5t88 -49.5q70 0 162 70t188 197l62 -52q-82 -104 -146.5 -165.5 t-161 -118t-180.5 -56.5q-27 0 -51.5 4.5t-73.5 18.5q-41 55 -56 96t-15 96l4 84l12 129q-61 -127 -94 -170l-64 -79q-100 -100 -155.5 -131t-161.5 -48q-53 25 -77 91.5t-24 187.5zM262 309q0 -80 16.5 -136t38.5 -56q10 0 29 10t47 29l66 55q96 92 151.5 199.5t83 178 t58.5 181.5q-53 55 -96.5 79.5t-86.5 24.5q-123 0 -215 -169.5t-92 -395.5zM831 498l349 272v21q0 78 -82 77q-51 0 -135 -34q-49 -59 -73 -106.5t-38 -117.5z" />
<glyph unicode="&#xe7;" horiz-adv-x="774" d="M84 -365l53 105q66 -68 133 -68q43 0 71 26t28 64q0 57 -36 85t-128 47l82 96q-29 -4 -48.5 -6t-48.5 -2q-59 84 -79.5 141t-20.5 143q0 272 141.5 475t331.5 203q160 0 256 -88l-112 -123q-49 72 -86 99.5t-86 27.5q-31 0 -64 -9t-92 -34q-70 -119 -100.5 -218 t-30.5 -206q0 -131 32.5 -214t86.5 -83q129 0 350 266l55 -49q-76 -102 -128 -152t-104.5 -82t-82 -44t-80.5 -29l-55 -63q154 -18 153 -162q0 -78 -63.5 -129t-163.5 -51q-76 0 -164 34z" />
<glyph unicode="&#xe8;" horiz-adv-x="778" d="M94 266q0 276 133 481t314 205q96 0 163.5 -49t67.5 -123v-51l-520 -305v-109q0 -215 117 -215q72 0 165 73t181 194l63 -54q-109 -150 -240.5 -238.5t-246.5 -88.5q-45 0 -115 14q-82 111 -82 266zM260 526l352 219v52q0 80 -82 80q-51 0 -135 -35q-61 -78 -88 -139.5 t-47 -176.5zM356 1401h191l139 -330h-108z" />
<glyph unicode="&#xe9;" horiz-adv-x="778" d="M94 266q0 276 133 481t314 205q96 0 163.5 -49t67.5 -123v-51l-520 -305v-109q0 -215 117 -215q72 0 165 73t181 194l63 -54q-109 -150 -240.5 -238.5t-246.5 -88.5q-45 0 -115 14q-82 111 -82 266zM260 526l352 219v52q0 80 -82 80q-51 0 -135 -35q-61 -78 -88 -139.5 t-47 -176.5zM457 1071l297 330h190l-377 -330h-110z" />
<glyph unicode="&#xea;" horiz-adv-x="778" d="M94 266q0 276 133 481t314 205q96 0 163.5 -49t67.5 -123v-51l-520 -305v-109q0 -215 117 -215q72 0 165 73t181 194l63 -54q-109 -150 -240.5 -238.5t-246.5 -88.5q-45 0 -115 14q-82 111 -82 266zM260 526l352 219v52q0 80 -82 80q-51 0 -135 -35q-61 -78 -88 -139.5 t-47 -176.5zM285 1069l282 338h90l166 -338h-88l-147 180l-203 -180h-100z" />
<glyph unicode="&#xeb;" horiz-adv-x="778" d="M94 266q0 276 133 481t314 205q96 0 163.5 -49t67.5 -123v-51l-520 -305v-109q0 -215 117 -215q72 0 165 73t181 194l63 -54q-109 -150 -240.5 -238.5t-246.5 -88.5q-45 0 -115 14q-82 111 -82 266zM260 526l352 219v52q0 80 -82 80q-51 0 -135 -35q-61 -78 -88 -139.5 t-47 -176.5zM324 1171q0 43 32.5 74t79.5 31q39 0 65.5 -28.5t26.5 -73.5q0 -43 -32.5 -74t-81.5 -31q-39 0 -64.5 29.5t-25.5 72.5zM618 1171q0 43 33 74t82 31q39 0 65.5 -28.5t26.5 -73.5q0 -43 -32.5 -74t-81.5 -31q-39 0 -66 28.5t-27 73.5z" />
<glyph unicode="&#xec;" horiz-adv-x="567" d="M86 813v39l283 96h51l-129 -815q66 53 88 76.5t72 91.5l47 64l59 -39q-92 -129 -139 -184.5t-100.5 -96.5t-135.5 -61q-27 74 -26 125q0 43 12 122l90 582h-172zM229 1401h191l137 -330h-108z" />
<glyph unicode="&#xed;" horiz-adv-x="567" d="M86 813v39l283 96h51l-129 -815q66 53 88 76.5t72 91.5l47 64l59 -39q-92 -129 -139 -184.5t-100.5 -96.5t-135.5 -61q-27 74 -26 125q0 43 12 122l90 582h-172zM264 1071l295 330h191l-377 -330h-109z" />
<glyph unicode="&#xee;" horiz-adv-x="567" d="M86 813v39l283 96h51l-129 -815q66 53 88 76.5t72 91.5l47 64l59 -39q-92 -129 -139 -184.5t-100.5 -96.5t-135.5 -61q-27 74 -26 125q0 43 12 122l90 582h-172zM121 1069l282 338h91l165 -338h-90l-145 180l-205 -180h-98z" />
<glyph unicode="&#xef;" horiz-adv-x="567" d="M86 813v39l283 96h51l-129 -815q66 53 88 76.5t72 91.5l47 64l59 -39q-92 -129 -139 -184.5t-100.5 -96.5t-135.5 -61q-27 74 -26 125q0 43 12 122l90 582h-172zM141 1171q0 43 33 74t80 31q39 0 66.5 -29.5t27.5 -72.5t-33 -74t-82 -31q-39 0 -65.5 28.5t-26.5 73.5z M406 1171q0 43 32.5 74t79.5 31q39 0 65.5 -28.5t26.5 -73.5q0 -43 -32.5 -74t-81.5 -31q-39 0 -64.5 29.5t-25.5 72.5z" />
<glyph unicode="&#xf1;" horiz-adv-x="1105" d="M102 813v39l279 96h53l-72 -450q133 205 267.5 327.5t224.5 122.5q92 0 92 -123q0 -37 -16 -139l-90 -553q61 51 86.5 79t70.5 89l47 64l62 -41q-94 -129 -141 -183.5t-92.5 -89.5t-69 -46t-72.5 -21q-27 78 -26 125q0 41 12 120l69 441l11 73q0 61 -37 62 q-23 0 -56.5 -25.5t-116.5 -117t-110.5 -124t-67.5 -97t-66 -132t-36 -145.5l-22 -164h-140l129 813h-172zM268 1128q78 84 143.5 121t133.5 37q63 0 90 -20l70 -47q53 -37 118 -37q51 0 78 12t88 66l45 -33q-86 -88 -147.5 -121t-138.5 -33q-92 0 -146.5 40t-74 49t-48.5 9 q-76 1 -168 -77z" />
<glyph unicode="&#xf2;" horiz-adv-x="913" d="M109 352q0 260 162.5 430t316.5 170q133 0 217 -110.5t84 -288.5q0 -109 -51.5 -225.5t-164 -234.5t-267.5 -118q-129 0 -213 106.5t-84 270.5zM270 395q0 -141 51.5 -233t131.5 -92q109 0 192.5 143t83.5 330q0 135 -52 226t-130 91q-94 0 -174.5 -116.5t-98.5 -278.5z M406 1401h190l137 -330h-108z" />
<glyph unicode="&#xf3;" horiz-adv-x="913" d="M109 352q0 260 162.5 430t316.5 170q133 0 217 -110.5t84 -288.5q0 -109 -51.5 -225.5t-164 -234.5t-267.5 -118q-129 0 -213 106.5t-84 270.5zM270 395q0 -141 51.5 -233t131.5 -92q109 0 192.5 143t83.5 330q0 135 -52 226t-130 91q-94 0 -174.5 -116.5t-98.5 -278.5z M463 1071l295 330h190l-377 -330h-108z" />
<glyph unicode="&#xf4;" horiz-adv-x="913" d="M109 352q0 260 162.5 430t316.5 170q133 0 217 -110.5t84 -288.5q0 -109 -51.5 -225.5t-164 -234.5t-267.5 -118q-129 0 -213 106.5t-84 270.5zM270 395q0 -141 51.5 -233t131.5 -92q109 0 192.5 143t83.5 330q0 135 -52 226t-130 91q-94 0 -174.5 -116.5t-98.5 -278.5z M313 1069l283 338h90l166 -338h-90l-146 180l-204 -180h-99z" />
<glyph unicode="&#xf5;" horiz-adv-x="913" d="M109 352q0 260 162.5 430t316.5 170q133 0 217 -110.5t84 -288.5q0 -109 -51.5 -225.5t-164 -234.5t-267.5 -118q-129 0 -213 106.5t-84 270.5zM238 1128q78 84 143 121t133 37q63 0 90 -20l70 -47q53 -37 119 -37q51 0 77.5 12t87.5 66l46 -33q-86 -88 -147.5 -121 t-139.5 -33q-92 0 -146.5 40t-74 49t-47.5 9q-76 1 -168 -77zM270 395q0 -141 51.5 -233t131.5 -92q109 0 192.5 143t83.5 330q0 135 -52 226t-130 91q-94 0 -174.5 -116.5t-98.5 -278.5z" />
<glyph unicode="&#xf6;" horiz-adv-x="913" d="M109 352q0 260 162.5 430t316.5 170q133 0 217 -110.5t84 -288.5q0 -109 -51.5 -225.5t-164 -234.5t-267.5 -118q-129 0 -213 106.5t-84 270.5zM270 395q0 -141 51.5 -233t131.5 -92q109 0 192.5 143t83.5 330q0 135 -52 226t-130 91q-94 0 -174.5 -116.5t-98.5 -278.5z M375 1171q0 43 32.5 74t79.5 31q39 0 67 -29.5t28 -72.5t-33 -74t-82 -31q-39 0 -65.5 28.5t-26.5 73.5zM672 1171q0 43 32.5 74t79.5 31q39 0 67 -29.5t28 -72.5t-33 -74t-82 -31q-39 0 -65.5 28.5t-26.5 73.5z" />
<glyph unicode="&#xf7;" horiz-adv-x="1126" d="M51 426v117h1024v-117h-1024zM446 98q0 49 35 84t86 35q49 0 84 -35t35 -84q0 -51 -35 -86t-84 -35q-51 0 -86 35t-35 86zM446 874q0 51 35 86t86 35q49 0 84 -34.5t35 -86.5q0 -49 -35 -83.5t-84 -34.5q-51 0 -86 34.5t-35 83.5z" />
<glyph unicode="&#xf8;" horiz-adv-x="907" d="M12 -78l152 197q-29 61 -43.5 118.5t-14.5 118.5q0 127 49.5 247t163 237.5t265.5 117.5q94 0 172 -69l127 158l53 -43l-131 -173q39 -63 57.5 -128.5t18.5 -133.5q0 -117 -49.5 -234.5t-162 -238.5t-266.5 -121q-59 0 -102 18.5t-92 67.5l-143 -184zM266 391 q0 -37 2 -58.5t11 -64.5l391 504q-47 92 -129 92q-106 0 -190.5 -143t-84.5 -330zM305 188q31 -66 63.5 -92t84.5 -26q61 0 125.5 68.5t103.5 174t39 222.5q0 74 -23 161z" />
<glyph unicode="&#xf9;" horiz-adv-x="1116" d="M121 813v39l280 96h54l-113 -690l-10 -74q0 -61 37 -61q41 0 137 96t170 202.5t104.5 180.5t42.5 160l23 166h137l-125 -795q55 45 84 76t74 92l47 64l61 -39q-94 -131 -138 -183.5t-101 -97.5t-135 -61q-27 74 -27 125q0 41 12 118l31 203q-133 -207 -266 -330 t-224 -123q-92 0 -92 123q0 37 4 72q10 51 15 84l88 557h-170zM461 1401h188l139 -330h-108z" />
<glyph unicode="&#xfa;" horiz-adv-x="1116" d="M121 813v39l280 96h54l-113 -690l-10 -74q0 -61 37 -61q41 0 137 96t170 202.5t104.5 180.5t42.5 160l23 166h137l-125 -795q55 45 84 76t74 92l47 64l61 -39q-94 -131 -138 -183.5t-101 -97.5t-135 -61q-27 74 -27 125q0 41 12 118l31 203q-133 -207 -266 -330 t-224 -123q-92 0 -92 123q0 37 4 72q10 51 15 84l88 557h-170zM551 1071l295 330h190l-377 -330h-108z" />
<glyph unicode="&#xfb;" horiz-adv-x="1116" d="M121 813v39l280 96h54l-113 -690l-10 -74q0 -61 37 -61q41 0 137 96t170 202.5t104.5 180.5t42.5 160l23 166h137l-125 -795q55 45 84 76t74 92l47 64l61 -39q-94 -131 -138 -183.5t-101 -97.5t-135 -61q-27 74 -27 125q0 41 12 118l31 203q-133 -207 -266 -330 t-224 -123q-92 0 -92 123q0 37 4 72q10 51 15 84l88 557h-170zM371 1069l284 338h88l168 -338h-90l-147 180l-203 -180h-100z" />
<glyph unicode="&#xfc;" horiz-adv-x="1116" d="M121 813v39l280 96h54l-113 -690l-10 -74q0 -61 37 -61q41 0 137 96t170 202.5t104.5 180.5t42.5 160l23 166h137l-125 -795q55 45 84 76t74 92l47 64l61 -39q-94 -131 -138 -183.5t-101 -97.5t-135 -61q-27 74 -27 125q0 41 12 118l31 203q-133 -207 -266 -330 t-224 -123q-92 0 -92 123q0 37 4 72q10 51 15 84l88 557h-170zM391 1171q0 43 33 74t80 31q39 0 65.5 -28.5t26.5 -73.5q0 -43 -33 -74t-82 -31q-39 0 -64.5 29.5t-25.5 72.5zM735 1171q0 43 33 74t80 31q39 0 65.5 -28.5t26.5 -73.5q0 -43 -33 -74t-82 -31 q-39 0 -64.5 29.5t-25.5 72.5z" />
<glyph unicode="&#xff;" horiz-adv-x="870" d="M37 813v55l278 82l174 -784l121 172q147 209 148 321q0 88 -119 189l147 106q92 -86 93 -213q0 -92 -43 -191t-152 -251l-78 -111q-94 -133 -117.5 -174t-37.5 -98l-91 -346h146l-14 -68h-435l13 68h149l115 475q8 37 8 78q0 59 -9 102t-18 78l-112 510h-166zM297 1176 q0 43 32.5 73.5t80.5 30.5q39 0 66.5 -29.5t27.5 -70.5q0 -45 -33 -76t-82 -31q-39 0 -65.5 28.5t-26.5 74.5zM670 1176q0 43 32.5 73.5t79.5 30.5q39 0 65.5 -28.5t26.5 -71.5q0 -45 -32.5 -76t-81.5 -31q-39 0 -64.5 30t-25.5 73z" />
<glyph unicode="&#x152;" horiz-adv-x="1896" d="M207 563q0 311 239.5 559t538.5 248l76 -6l72 -10l81 -2h99h563l6 51l94 -2l-51 -322h-92l29 178h-488l-82 -524h389l23 152h92l-63 -402h-91l25 156h-389l-86 -545h504l28 178h93l-43 -272h-676h-115l-80 -8l-67 -12q-14 -4 -36 -4.5t-34 -0.5q-238 0 -398.5 169 t-160.5 419zM393 547q0 -215 100.5 -346t268.5 -131q143 0 201.5 39.5t74.5 150.5l129 813l7 62q0 139 -205 139q-240 0 -408 -212t-168 -515z" />
<glyph unicode="&#x153;" horiz-adv-x="1363" d="M90 350q0 125 49 246t163 238.5t267 117.5q174 0 260 -190q127 190 289 190q100 0 170 -51t70 -123v-53l-522 -305v-107q0 -213 116 -213q72 0 164 70t187 197l61 -54q-53 -70 -85 -105.5t-146.5 -135t-262.5 -99.5q-33 0 -112 27q-31 47 -41 73.5t-19 67.5 q-139 -168 -315 -168q-127 0 -210 107.5t-83 269.5zM252 395q0 -141 51 -233t129 -92q111 0 195 143t84 330q0 135 -52.5 226t-130.5 91q-94 0 -174 -116.5t-98 -278.5zM844 524l352 215v54q0 78 -82 77q-49 0 -135 -34q-66 -82 -90.5 -139.5t-44.5 -172.5z" />
<glyph unicode="&#x178;" horiz-adv-x="1253" d="M213 1276l12 76h516l-12 -76h-203l265 -533l407 533h-174l12 76h389l-12 -76h-96l-506 -658l-86 -542h154l-13 -76h-467l13 76h153l90 573l-307 627h-135zM516 1561q0 43 33 73.5t80 30.5q39 0 65.5 -28.5t26.5 -73.5q0 -43 -33 -74t-82 -31q-39 0 -64.5 30t-25.5 73z M971 1561q0 43 32.5 73.5t81.5 30.5q39 0 66 -28.5t27 -73.5q0 -43 -33 -74t-82 -31q-39 0 -65.5 29t-26.5 74z" />
<glyph unicode="&#x2000;" horiz-adv-x="863" />
<glyph unicode="&#x2001;" horiz-adv-x="1726" />
<glyph unicode="&#x2002;" horiz-adv-x="863" />
<glyph unicode="&#x2003;" horiz-adv-x="1726" />
<glyph unicode="&#x2004;" horiz-adv-x="575" />
<glyph unicode="&#x2005;" horiz-adv-x="431" />
<glyph unicode="&#x2006;" horiz-adv-x="287" />
<glyph unicode="&#x2007;" horiz-adv-x="287" />
<glyph unicode="&#x2008;" horiz-adv-x="215" />
<glyph unicode="&#x2009;" horiz-adv-x="345" />
<glyph unicode="&#x200a;" horiz-adv-x="95" />
<glyph unicode="&#x2010;" horiz-adv-x="563" d="M147 389l25 156h391l-24 -156h-392z" />
<glyph unicode="&#x2011;" horiz-adv-x="563" d="M147 389l25 156h391l-24 -156h-392z" />
<glyph unicode="&#x2012;" horiz-adv-x="563" d="M147 389l25 156h391l-24 -156h-392z" />
<glyph unicode="&#x2013;" horiz-adv-x="1126" d="M111 426l18 117h1024l-18 -117h-1024z" />
<glyph unicode="&#x2014;" horiz-adv-x="2048" d="M61 426l17 117h2048l-17 -117h-2048z" />
<glyph unicode="&#x2018;" d="M287 993q0 78 77.5 182.5t206.5 200.5l39 -63q-90 -63 -125.5 -107.5t-35.5 -93.5q0 -41 18 -62.5t70 -39.5q-33 -63 -66 -90t-80 -27t-75.5 26.5t-28.5 73.5z" />
<glyph unicode="&#x2019;" d="M260 956q86 61 124 108.5t38 94.5q0 41 -18.5 62.5t-69.5 38.5q35 63 68.5 89.5t78.5 26.5q47 0 76 -26.5t29 -71.5q0 -76 -79 -182.5t-206 -202.5z" />
<glyph unicode="&#x201a;" d="M82 -207q162 117 162 203q0 39 -19.5 61.5t-68.5 38.5q33 63 65.5 90t79.5 27t76 -26.5t29 -71.5q0 -76 -79 -182.5t-206 -202.5z" />
<glyph unicode="&#x201c;" horiz-adv-x="837" d="M287 993q0 78 77.5 182.5t206.5 200.5l39 -63q-90 -63 -125.5 -107.5t-35.5 -93.5q0 -41 18 -62.5t70 -39.5q-33 -63 -66 -90t-80 -27t-75.5 26.5t-28.5 73.5zM612 993q0 78 78 182.5t207 200.5l41 -63q-88 -61 -125 -107.5t-37 -93.5q0 -41 18.5 -63.5t67.5 -38.5 q-33 -63 -65.5 -90t-79.5 -27t-76 26.5t-29 73.5z" />
<glyph unicode="&#x201d;" horiz-adv-x="837" d="M260 956q86 61 124 108.5t38 94.5q0 41 -18.5 62.5t-69.5 38.5q35 63 68.5 89.5t78.5 26.5q47 0 76 -26.5t29 -71.5q0 -76 -79 -182.5t-206 -202.5zM586 956q86 59 124 107.5t38 95.5q0 41 -18.5 62.5t-67.5 38.5q33 63 65.5 89.5t79.5 26.5t75.5 -26.5t28.5 -71.5 q0 -76 -78.5 -182.5t-205.5 -202.5z" />
<glyph unicode="&#x201e;" horiz-adv-x="837" d="M76 -207q88 61 125 108.5t37 94.5q0 39 -19.5 62.5t-68.5 37.5q35 63 68.5 90t78.5 27q47 0 75.5 -26.5t28.5 -71.5q0 -76 -78.5 -182.5t-205.5 -202.5zM401 -207q92 63 128 107.5t36 95.5q0 39 -19.5 61.5t-68.5 38.5q33 63 65.5 90t80.5 27q47 0 75.5 -26.5t28.5 -71.5 q0 -76 -79 -182.5t-206 -202.5z" />
<glyph unicode="&#x2022;" horiz-adv-x="720" d="M121 473q0 100 69.5 170t169.5 70t170 -70t70 -170t-70 -170t-170 -70t-169.5 70t-69.5 170z" />
<glyph unicode="&#x2026;" horiz-adv-x="1536" d="M135 98q0 49 35 84t86 35q47 0 84 -35t37 -84q0 -51 -35 -86t-86 -35q-49 0 -85 36t-36 85zM666 98q0 49 34.5 84t85.5 35q49 0 84 -35t35 -84q0 -51 -35 -86t-84 -35q-51 0 -85.5 35t-34.5 86zM1178 98q0 49 34.5 84t83.5 35q51 0 86 -35t35 -84q0 -51 -35 -86t-86 -35 q-49 0 -83.5 35t-34.5 86z" />
<glyph unicode="&#x202f;" horiz-adv-x="345" />
<glyph unicode="&#x2039;" horiz-adv-x="702" d="M190 459l539 393l-14 -84l-291 -309l192 -309l-12 -87z" />
<glyph unicode="&#x203a;" horiz-adv-x="681" d="M123 63l14 87l291 309l-192 309l12 84l414 -393z" />
<glyph unicode="&#x205f;" horiz-adv-x="431" />
<glyph unicode="&#x2122;" horiz-adv-x="2048" d="M176 1155v225h68v-28h516v28h67v-225h-67v127h-191v-534h129v-58h-393v58h127v534h-188v-127h-68zM899 690v58h119v544h-119v60h260l201 -418l194 418h301v-60h-129v-544h129v-58h-395v58h129v493l-252 -551l-250 541v-483h121v-58h-309z" />
<glyph unicode="&#x25fc;" horiz-adv-x="942" d="M0 0v942h942v-942h-942z" />
</font>
</defs>
</svg>
