<?xml version="1.0" encoding="utf-8"?>
<!-- Generator: Adobe Illustrator 16.0.0, SVG Export Plug-In . SVG Version: 6.00 Build 0)  -->
<!DOCTYPE svg PUBLIC "-//W3C//DTD SVG 1.1//EN" "http://www.w3.org/Graphics/SVG/1.1/DTD/svg11.dtd">
<svg version="1.1" id="Capa_1" xmlns="http://www.w3.org/2000/svg" xmlns:xlink="http://www.w3.org/1999/xlink" x="0px" y="0px"
	 width="32px" height="30.958px" viewBox="290 282 32 30.958" enable-background="new 290 282 32 30.958" xml:space="preserve">
<g>
	<g id="c115_arrows">
		<path fill="#FFFFFF" d="M321.997,303.59c0-0.979-0.751-1.771-1.683-1.771c-0.924,0.002-1.684,0.791-1.684,1.771v3.667l-6.79-6.793
			c-0.656-0.658-1.719-0.658-2.375,0c-0.657,0.655-0.657,1.723,0,2.38l6.756,6.755h-3.649c-0.993,0.002-1.795,0.755-1.795,1.682
			c0,0.929,0.802,1.681,1.795,1.681h7.628c0.994,0,1.794-0.751,1.798-1.681c-0.004-0.025-0.007-0.045-0.01-0.069
			c0.003-0.032,0.01-0.066,0.01-0.098L321.997,303.59L321.997,303.59L321.997,303.59z"/>
		<path fill="#FFFFFF" d="M300.154,300.464l-6.786,6.793v-3.667c0-0.979-0.758-1.769-1.685-1.771c-0.93,0-1.681,0.791-1.681,1.771
			L290,311.113c0,0.033,0.009,0.066,0.011,0.098c-0.002,0.024-0.007,0.044-0.009,0.069c0.002,0.932,0.804,1.681,1.796,1.681h7.629
			c0.992,0,1.794-0.751,1.794-1.681c0-0.927-0.802-1.679-1.794-1.681h-3.65l6.756-6.756c0.655-0.656,0.655-1.723,0-2.379
			C301.877,299.806,300.813,299.806,300.154,300.464z"/>
		<path fill="#FFFFFF" d="M311.841,294.496l6.79-6.788v3.667c0,0.976,0.76,1.766,1.684,1.769c0.932,0,1.683-0.793,1.683-1.769
			v-7.526c0-0.033-0.007-0.066-0.01-0.096c0.003-0.024,0.007-0.046,0.01-0.07c-0.003-0.932-0.804-1.682-1.797-1.682h-7.628
			c-0.993,0-1.795,0.75-1.795,1.682c0,0.926,0.802,1.681,1.795,1.683h3.649l-6.756,6.755c-0.657,0.655-0.657,1.719,0,2.375
			C310.122,295.156,311.185,295.156,311.841,294.496z"/>
		<path fill="#FFFFFF" d="M295.778,285.365h3.648c0.992-0.002,1.795-0.757,1.795-1.683c0-0.932-0.803-1.682-1.795-1.682h-7.627
			c-0.993,0-1.794,0.75-1.796,1.682c0.002,0.024,0.007,0.046,0.009,0.07c-0.002,0.03-0.011,0.062-0.011,0.096l0.002,7.527
			c0,0.976,0.751,1.77,1.681,1.77c0.927-0.003,1.685-0.793,1.685-1.77v-3.667l6.786,6.787c0.659,0.66,1.723,0.66,2.38,0
			c0.655-0.655,0.655-1.719,0-2.375L295.778,285.365z"/>
	</g>
	<g id="Capa_1_253_">
	</g>
</g>
</svg>
