<?xml version="1.0" encoding="utf-8"?>
<!-- Generator: Adobe Illustrator 16.0.0, SVG Export Plug-In . SVG Version: 6.00 Build 0)  -->
<!DOCTYPE svg PUBLIC "-//W3C//DTD SVG 1.1//EN" "http://www.w3.org/Graphics/SVG/1.1/DTD/svg11.dtd">
<svg version="1.1" id="Capa_1" xmlns="http://www.w3.org/2000/svg" xmlns:xlink="http://www.w3.org/1999/xlink" x="0px" y="0px"
	 width="612px" height="594px" viewBox="0 98.5 612 594" enable-background="new 0 98.5 612 594" xml:space="preserve">
<g>
	<g id="c116_arrows">
		<path fill="#FFFFFF" d="M473.367,507.97h69.812c18.948-0.064,34.292-14.458,34.292-32.197c0-17.782-15.344-32.198-34.292-32.198
			H397.21c-18.97,0-34.313,14.416-34.335,32.198c0.021,0.41,0.151,0.885,0.151,1.316c0,0.582-0.151,1.229-0.151,1.855v144.007
			c0,18.646,14.373,33.795,32.155,33.795c17.739-0.043,32.198-15.149,32.198-33.795v-70.18L557.1,682.686
			c12.56,12.581,32.91,12.581,45.491,0c12.517-12.56,12.517-32.932,0-45.491L473.367,507.97z"/>
		<path fill="#FFFFFF" d="M249.103,475.772c-0.043-17.782-15.365-32.198-34.356-32.198H68.82c-18.926,0-34.377,14.416-34.377,32.198
			c0,17.739,15.452,32.133,34.377,32.197h69.813L9.344,637.15c-12.452,12.561-12.452,32.933,0,45.492
			c12.603,12.581,32.954,12.581,45.492,0l129.893-129.914v70.18c0,18.645,14.459,33.751,32.177,33.795
			c17.825,0,32.176-15.15,32.176-33.795V478.901c0-0.626-0.173-1.273-0.173-1.856C248.931,476.657,249.06,476.183,249.103,475.772z"
			/>
		<path fill="#FFFFFF" d="M362.875,316.142c0.021,17.782,15.365,32.176,34.335,32.176h145.97c18.948,0,34.292-14.394,34.292-32.176
			c0-17.739-15.344-32.09-34.292-32.133h-69.812l129.245-129.202c12.517-12.603,12.517-32.975,0-45.513
			c-12.581-12.56-32.932-12.56-45.491,0L427.25,239.207v-70.18c0-18.71-14.459-33.838-32.198-33.838
			c-17.782,0-32.155,15.128-32.155,33.838v143.963c0,0.647,0.151,1.23,0.151,1.877C363.026,315.3,362.896,315.645,362.875,316.142z"
			/>
		<path fill="#FFFFFF" d="M216.927,135.189c-17.718,0-32.177,15.128-32.177,33.838v70.158L54.857,109.271
			c-12.538-12.56-32.889-12.56-45.492,0c-12.452,12.538-12.452,32.91,0,45.513l129.289,129.202H68.82
			c-18.904,0.064-34.356,14.416-34.356,32.155c0,17.782,15.452,32.176,34.378,32.176h145.905c18.991,0,34.313-14.394,34.356-32.176
			c-0.043-0.497-0.172-0.842-0.172-1.295c0-0.647,0.172-1.23,0.172-1.877V169.027C249.103,150.317,234.752,135.189,216.927,135.189z
			"/>
	</g>
	<g id="Capa_1_156_">
	</g>
</g>
</svg>
