<?xml version="1.0" encoding="utf-8"?>
<!-- Generator: Adobe Illustrator 16.0.0, SVG Export Plug-In . SVG Version: 6.00 Build 0)  -->
<!DOCTYPE svg PUBLIC "-//W3C//DTD SVG 1.1//EN" "http://www.w3.org/Graphics/SVG/1.1/DTD/svg11.dtd">
<svg version="1.1" id="Capa_1" xmlns="http://www.w3.org/2000/svg" xmlns:xlink="http://www.w3.org/1999/xlink" x="0px" y="0px"
	 width="32px" height="32px" viewBox="867.919 870.544 32 32" enable-background="new 867.919 870.544 32 32" xml:space="preserve">
<g>
	<path fill="#FFFFFF" d="M895.567,897.764c2.196-2.196,3.63-4.867,4.3-7.683c0.191-0.807-0.799-1.352-1.385-0.764
		c-0.007,0.008-0.014,0.015-0.021,0.021c-4.887,4.888-12.87,4.794-17.638-0.283c-4.495-4.783-4.437-12.215,0.129-16.933
		c0.058-0.059,0.115-0.118,0.174-0.177c0.586-0.582,0.038-1.569-0.767-1.378c-2.789,0.663-5.438,2.076-7.624,4.238
		c-6.392,6.323-6.428,16.575-0.078,22.941C878.978,904.086,889.24,904.093,895.567,897.764z"/>
</g>
</svg>
