<?xml version="1.0" encoding="UTF-8" standalone="no"?>
<svg width="25px" height="25px" viewBox="0 0 25 25" version="1.1" xmlns="http://www.w3.org/2000/svg" xmlns:xlink="http://www.w3.org/1999/xlink" xmlns:sketch="http://www.bohemiancoding.com/sketch/ns">
    <!-- Generator: Sketch 3.2.2 (9983) - http://www.bohemiancoding.com/sketch -->
    <title>mainSearch-icon</title>
    <desc>Created with Sketch.</desc>
    <defs></defs>
    <g id="Welcome" stroke="none" stroke-width="1" fill="none" fill-rule="evenodd" sketch:type="MSPage">
        <g id="Landing" sketch:type="MSArtboardGroup" transform="translate(-1127.000000, -378.000000)" fill="#C4C4C4">
            <g id="Main" sketch:type="MSLayerGroup" transform="translate(140.000000, 0.000000)">
                <g id="content" transform="translate(0.000000, 294.000000)" sketch:type="MSShapeGroup">
                    <g id="SearchBar" transform="translate(250.000000, 71.000000)">
                        <path d="M753.695329,15.8609341 C749.881356,12.0463553 743.673832,12.0463553 739.859859,15.8609341 C736.046714,19.6755128 736.046714,25.8818506 739.859859,29.6964293 C743.256304,33.0918508 748.546093,33.4556165 752.357586,30.804261 C752.437784,31.1837347 752.622158,31.5458469 752.916494,31.8409931 L758.470856,37.3942062 C759.279454,38.2019313 760.587433,38.2019313 761.393551,37.3942062 C762.20215,36.5864811 762.20215,35.2785783 761.393551,34.47168 L755.83919,28.9168134 C755.54568,28.6233207 755.18272,28.4389576 754.803224,28.3595906 C757.456387,24.5466653 757.0926,19.2588358 753.695329,15.8609341 L753.695329,15.8609341 Z M751.941711,27.9429136 C749.094254,30.7902064 744.460934,30.7902064 741.613477,27.9429136 C738.767673,25.0956208 738.767673,20.4625693 741.613477,17.6152765 C744.460934,14.7679837 749.094254,14.7679837 751.941711,17.6152765 C754.789169,20.4625693 754.789169,25.0956208 751.941711,27.9429136 L751.941711,27.9429136 Z" id="mainSearch-icon"></path>
                    </g>
                </g>
            </g>
        </g>
    </g>
</svg>