<?xml version="1.0" encoding="UTF-8" standalone="no"?>
<svg width="35px" height="35px" viewBox="0 0 35 35" version="1.1" xmlns="http://www.w3.org/2000/svg" xmlns:xlink="http://www.w3.org/1999/xlink" xmlns:sketch="http://www.bohemiancoding.com/sketch/ns">
    <!-- Generator: Sketch 3.3 (11970) - http://www.bohemiancoding.com/sketch -->
    <title>Aminus-icon</title>
    <desc>Created with Sketch.</desc>
    <defs></defs>
    <g id="Page-1" stroke="none" stroke-width="1" fill="none" fill-rule="evenodd" sketch:type="MSPage">
        <g id="Aminus-icon" sketch:type="MSArtboardGroup" fill="#000000">
            <path d="M20.4,29 L19.136,29 C18.9866659,29 18.8640005,28.9600004 18.768,28.88 C18.6719995,28.7999996 18.5973336,28.6960006 18.544,28.568 L15.872,21.992 L4.752,21.992 L2.096,28.568 C2.05333312,28.6853339 1.9786672,28.7866662 1.872,28.872 C1.7653328,28.9573338 1.63733408,29 1.488,29 L0.24,29 L9.504,6.36 L11.136,6.36 L20.4,29 Z M5.248,20.776 L15.392,20.776 L10.768,9.336 C10.693333,9.15466576 10.618667,8.94933448 10.544,8.72 C10.469333,8.49066552 10.394667,8.24800128 10.32,7.992 C10.245333,8.24800128 10.170667,8.49066552 10.096,8.72 C10.021333,8.94933448 9.94666704,9.15999904 9.872,9.352 L5.248,20.776 Z M20.176,19.176 L32.768,19.176 L32.768,20.312 L20.176,20.312 L20.176,19.176 Z" id="A–" sketch:type="MSShapeGroup"></path>
        </g>
    </g>
</svg>