<?xml version="1.0" encoding="UTF-8" standalone="no"?>
<svg width="20px" height="16px" viewBox="0 0 20 16" version="1.1" xmlns="http://www.w3.org/2000/svg" xmlns:xlink="http://www.w3.org/1999/xlink" xmlns:sketch="http://www.bohemiancoding.com/sketch/ns">
    <!-- Generator: Sketch 3.3.2 (12043) - http://www.bohemiancoding.com/sketch -->
    <title>audio-icon</title>
    <desc>Created with Sketch.</desc>
    <defs></defs>
    <g id="Welcome" stroke="none" stroke-width="1" fill="none" fill-rule="evenodd" sketch:type="MSPage">
        <g id="Artboard-4" sketch:type="MSArtboardGroup" transform="translate(-896.000000, -410.000000)" fill="#34495E">
            <g id="Group-Copy-7" sketch:type="MSLayerGroup" transform="translate(0.000000, 393.000000)">
                <g id="Group" transform="translate(830.000000, 7.000000)" sketch:type="MSShapeGroup">
                    <g id="audio-reading-button" transform="translate(58.000000, 0.000000)">
                        <path d="M17.903617,24.0332589 C17.903617,24.3819823 17.7021277,24.6987908 17.3868085,24.8466632 C17.2648936,24.9043227 17.1342553,24.9321951 17.0044681,24.9321951 C16.7989362,24.9321951 16.5953191,24.8615568 16.4308511,24.7251738 L11.516383,20.6528334 L8.89893617,20.6528334 C8.40255319,20.6532589 8,20.2504929 8,19.75411 L8,16.1726206 C8,15.6760249 8.40255319,15.2734717 8.89893617,15.2734717 L11.5165957,15.2734717 L16.4310638,11.2011312 C16.6995745,10.978578 17.0719149,10.9311312 17.3870213,11.0800674 C17.7021277,11.2279398 17.9038298,11.544961 17.9038298,11.8934717 L17.903617,24.0332589 L17.903617,24.0332589 Z M21.3582979,22.628578 C21.336383,22.6300674 21.3153191,22.6309185 21.293617,22.6309185 C21.0561702,22.6309185 20.827234,22.5370887 20.6580851,22.367727 L20.5378723,22.2470887 C20.2225532,21.9324078 20.1855319,21.4338972 20.4510638,21.0760249 C21.1242553,20.1683653 21.4795745,19.0924078 21.4795745,17.9636844 C21.4795745,16.7496419 21.0761702,15.6109185 20.312766,14.6704929 C20.0221277,14.3130461 20.0489362,13.7938972 20.3746809,13.4683653 L20.4946809,13.3481525 C20.6742553,13.168578 20.9148936,13.0707057 21.1753191,13.0862376 C21.4289362,13.0990036 21.6657447,13.2183653 21.8265957,13.414961 C22.8855319,14.7107057 23.4448936,16.2838972 23.4448936,17.9638972 C23.4448936,19.528578 22.9502128,21.0179398 22.0140426,22.2702802 C21.8576596,22.4790036 21.6185106,22.6100674 21.3582979,22.628578 L21.3582979,22.628578 Z M25.0748936,25.4066632 C24.9123404,25.5987908 24.677234,25.71411 24.4255319,25.7247483 C24.4131915,25.7251738 24.4006383,25.7255993 24.3878723,25.7255993 C24.1497872,25.7255993 23.9212766,25.6315568 23.7521277,25.4624078 L23.6340426,25.3443227 C23.3040426,25.0145355 23.2817021,24.4870887 23.5817021,24.1300674 C25.0314894,22.4058121 25.8302128,20.2160249 25.8302128,17.9636844 C25.8302128,15.6209185 24.9751064,13.3655993 23.4229787,11.6132589 C23.1082979,11.2575142 23.1242553,10.7190036 23.4591489,10.3828334 L23.5770213,10.2647483 C23.7519149,10.0890036 23.9791489,9.99219507 24.2397872,10.0004929 C24.487234,10.0075142 24.7212766,10.1168759 24.8857447,10.3019823 C26.7619149,12.4143227 27.7953191,15.1355993 27.7953191,17.9636844 C27.7957447,20.6847483 26.8295745,23.3281525 25.0748936,25.4066632 L25.0748936,25.4066632 Z" id="audio-icon"></path>
                    </g>
                </g>
            </g>
        </g>
    </g>
</svg>