<?xml version="1.0" encoding="UTF-8" standalone="no"?>
<svg width="32px" height="26px" viewBox="0 0 32 26" version="1.1" xmlns="http://www.w3.org/2000/svg" xmlns:xlink="http://www.w3.org/1999/xlink" xmlns:sketch="http://www.bohemiancoding.com/sketch/ns">
    <!-- Generator: Sketch 3.2.2 (9983) - http://www.bohemiancoding.com/sketch -->
    <title>back-icon</title>
    <desc>Created with Sketch.</desc>
    <defs></defs>
    <g id="Welcome" stroke="none" stroke-width="1" fill="none" fill-rule="evenodd" sketch:type="MSPage">
        <g id="BaseInfo" sketch:type="MSArtboardGroup" transform="translate(-178.000000, -194.000000)" fill="#FFFFFF">
            <g id="Menu" sketch:type="MSLayerGroup" transform="translate(164.000000, 174.000000)">
                <g id="Menu-icons" transform="translate(10.000000, 17.000000)" sketch:type="MSShapeGroup">
                    <g id="Back-icon" transform="translate(4.000000, 0.000000)">
                        <path d="M0.396034732,17.2703005 C0.36384054,17.2226844 0.331646348,17.1758753 0.302754124,17.1258381 C0.272210916,17.0725726 0.245795169,17.0176931 0.218553929,16.9628135 C0.203695071,16.9329526 0.186359737,16.9055128 0.173151863,16.8748448 C0.166547927,16.8578967 0.163245958,16.8409486 0.155816529,16.8248075 C0.13270275,16.7658927 0.113716432,16.7061708 0.0955556055,16.6456419 C0.0806967476,16.5964117 0.0658378897,16.5487956 0.0542810003,16.4987584 C0.0402476345,16.4406506 0.0328182055,16.3809287 0.0229123002,16.3212069 C0.0163083634,16.2703626 0.00805344233,16.2203253 0.0039259818,16.169481 C-0.00102697083,16.1089521 -0.000201478728,16.0476161 0.000624013377,15.9854731 C0.000624013377,15.9362429 -0.000201478728,15.8878197 0.0039259818,15.8385895 C0.00805344233,15.7756394 0.0179593476,15.7134964 0.0270397608,15.6505463 C0.0344691897,15.6029302 0.0410731266,15.5569282 0.0518045239,15.5093121 C0.0650123976,15.4479762 0.0839987161,15.3874472 0.102985034,15.3261112 C0.117843892,15.2784952 0.131877258,15.2324932 0.150038085,15.1864912 C0.158293006,15.1655078 0.163245958,15.1429104 0.170675387,15.122734 C0.187185229,15.0848026 0.209473516,15.0509064 0.22680885,15.014589 C0.249097137,14.96778 0.272210916,14.9233921 0.297801171,14.8781972 C0.328344379,14.8241247 0.36384054,14.7708592 0.3993367,14.7200149 C0.428228924,14.6788552 0.455470164,14.6376956 0.486838864,14.5997641 C0.528113469,14.5481127 0.572690043,14.4988825 0.618092108,14.4504594 C0.638729411,14.4278619 0.656890237,14.4028433 0.679178524,14.3810529 L11.6342843,3.67066054 C12.5489295,2.77644649 14.0298624,2.77644649 14.9436821,3.67066054 C15.8566764,4.56245344 15.8566764,6.0127266 14.9436821,6.90532655 L7.9806562,13.7111994 L29.6580789,13.7111994 C30.4662357,13.7111994 31.1794608,14.1106903 31.5996363,14.7200149 C31.8522369,15.0848026 32,15.5254532 32,16 C32,16.631115 31.7374935,17.2033151 31.3140161,17.617333 C30.8905386,18.0321579 30.3052647,18.2879935 29.6580789,18.2879935 L29.6580789,18.2871865 L7.98478366,18.2871865 L14.9469841,25.0930593 C15.8591529,25.9856593 15.8608038,27.4343184 14.9469841,28.3285324 C14.4896615,28.7764465 13.8903542,29 13.2910469,29 C12.6917396,29 12.0932579,28.7772535 11.6367607,28.3309536 L0.680829509,17.617333 C0.65771573,17.5947355 0.639554903,17.5681028 0.617266616,17.5455053 C0.573515535,17.4986963 0.531415437,17.4518873 0.491791816,17.40185 C0.457121148,17.3598833 0.42657794,17.3154954 0.396034732,17.2703005 L0.396034732,17.2703005 Z" id="back-icon"></path>
                    </g>
                </g>
            </g>
        </g>
    </g>
</svg>