<?xml version="1.0" encoding="UTF-8" standalone="no"?>
<svg width="13px" height="13px" viewBox="0 0 13 13" version="1.1" xmlns="http://www.w3.org/2000/svg" xmlns:xlink="http://www.w3.org/1999/xlink" xmlns:sketch="http://www.bohemiancoding.com/sketch/ns">
    <!-- Generator: Sketch 3.3.2 (12043) - http://www.bohemiancoding.com/sketch -->
    <title>brightness-low-icon</title>
    <desc>Created with Sketch.</desc>
    <defs></defs>
    <g id="Welcome" stroke="none" stroke-width="1" fill="none" fill-rule="evenodd" sketch:type="MSPage">
        <g id="Artboard-4-Copy" sketch:type="MSArtboardGroup" transform="translate(-49.000000, -773.000000)" fill="#FFFFFF">
            <g id="Group" sketch:type="MSLayerGroup" transform="translate(-23.000000, 765.000000)">
                <g id="brightness-high-+-brightness-high-copy-+-Group-Copy" transform="translate(72.500000, 5.437500)" sketch:type="MSShapeGroup">
                    <path d="M6.04205985,7.13679245 C4.97653098,7.13679245 4.11427828,7.99882075 4.11427828,9.06210692 C4.11427828,10.1261792 4.97653098,10.9889937 6.04205985,10.9889937 C7.10719554,10.9889937 7.96826869,10.1261792 7.96826869,9.06210692 C7.96826869,7.99882075 7.10719554,7.13679245 6.04205985,7.13679245 Z M5.55333203,5.61595912 L5.55333203,3.51061321 C5.55333203,3.23977987 5.7715492,3.02083333 6.04205985,3.02083333 C6.31296369,3.02083333 6.53196722,3.23977987 6.53196722,3.51061321 L6.53196722,5.61556604 C6.53196722,5.88639937 6.31296369,6.10377358 6.04205985,6.10377358 C5.7715492,6.10416667 5.55333203,5.88679245 5.55333203,5.61595912 Z M5.55333203,14.6136006 L5.55333203,12.509827 C5.55333203,12.2389937 5.77194238,12.0208333 6.04205985,12.0208333 C6.31296369,12.0208333 6.53196722,12.2389937 6.53196722,12.509827 L6.53196722,14.6136006 C6.53196722,14.8840409 6.31296369,15.1041667 6.04205985,15.1041667 C5.7715492,15.1041667 5.55333203,14.8840409 5.55333203,14.6136006 Z M8.13615829,6.97091195 C7.94428446,6.77908805 7.94428446,6.47051887 8.13615829,6.27908805 L9.62318051,4.79127358 C9.8134816,4.60023585 10.1229175,4.60023585 10.3155777,4.79127358 C10.5066651,4.98231132 10.5066651,5.29245283 10.3155777,5.48309748 L8.82580318,6.97091195 C8.731439,7.06525157 8.60640646,7.11438679 8.48137392,7.11438679 C8.35555501,7.11438679 8.23052247,7.06525157 8.13615829,6.97091195 Z M1.7689352,13.3337264 C1.57784774,13.1434748 1.57784774,12.8333333 1.7689352,12.6419025 L3.25792334,11.1540881 C3.44861762,10.9638365 3.75883986,10.9638365 3.94953414,11.1540881 C4.14101479,11.3443396 4.14101479,11.6552673 3.94953414,11.8451258 L2.4632983,13.3337264 C2.36657501,13.4284591 2.24154247,13.4768082 2.1149372,13.4768082 C1.99029784,13.4768082 1.86565849,13.4284591 1.7689352,13.3337264 Z M9.49146384,9.55267296 C9.22016682,9.55267296 8.99998373,9.33215409 8.99998373,9.06210692 C8.99998373,8.79323899 9.22016682,8.57232704 9.49146384,8.57232704 L11.5949987,8.57232704 C11.8655093,8.57232704 12.0833333,8.79323899 12.0833333,9.06210692 C12.0833333,9.33254717 11.8651162,9.55267296 11.5949987,9.55267296 L9.49146384,9.55267296 Z M0.489514187,9.55267296 C0.218217168,9.55267296 0,9.33254717 0,9.06210692 C0,8.79323899 0.218217168,8.57232704 0.489514187,8.57232704 L2.59304905,8.57232704 C2.8635597,8.57232704 3.08374279,8.79323899 3.08374279,9.06210692 C3.08374279,9.33254717 2.86395288,9.55267296 2.59304905,9.55267296 L0.489514187,9.55267296 Z M9.62318051,13.3337264 L8.13615829,11.8451258 C7.94428446,11.6556604 7.94428446,11.3447327 8.13615829,11.1540881 C8.32488665,10.9638365 8.63668163,10.9638365 8.82580318,11.1540881 L10.3155777,12.6419025 C10.5066651,12.8329403 10.5066651,13.1430818 10.3155777,13.3337264 C10.2188544,13.428066 10.0938219,13.4764151 9.96839613,13.4764151 C9.84336359,13.4768082 9.71793787,13.4284591 9.62318051,13.3337264 Z M3.25792334,6.97091195 L1.7689352,5.48309748 C1.57784774,5.29284591 1.57784774,4.9827044 1.7689352,4.79127358 C1.96120222,4.60023585 2.27103128,4.60023585 2.4632983,4.79127358 L3.94953414,6.27908805 C4.14101479,6.47012579 4.14101479,6.77869497 3.94953414,6.97091195 C3.85359723,7.06525157 3.72777832,7.11438679 3.60392533,7.11438679 C3.47810643,7.11438679 3.3526807,7.06525157 3.25792334,6.97091195 Z" id="brightness-low-icon"></path>
                </g>
            </g>
        </g>
    </g>
</svg>