<?xml version="1.0" encoding="UTF-8" standalone="no"?>
<svg width="19px" height="19px" viewBox="0 0 19 19" version="1.1" xmlns="http://www.w3.org/2000/svg" xmlns:xlink="http://www.w3.org/1999/xlink" xmlns:sketch="http://www.bohemiancoding.com/sketch/ns">
    <!-- Generator: Sketch 3.3.2 (12043) - http://www.bohemiancoding.com/sketch -->
    <title>brightness-high-icon</title>
    <desc>Created with Sketch.</desc>
    <defs></defs>
    <g id="Welcome" stroke="none" stroke-width="1" fill="none" fill-rule="evenodd" sketch:type="MSPage">
        <g id="Artboard-4-Copy" sketch:type="MSArtboardGroup" transform="translate(-113.000000, -770.000000)" fill="#FFFFFF">
            <g id="Group" sketch:type="MSLayerGroup" transform="translate(-23.000000, 765.000000)">
                <g id="brightness-high-+-brightness-high-copy-+-Group-Copy" transform="translate(72.500000, 5.437500)" sketch:type="MSShapeGroup">
                    <path d="M73.1047564,6.17393868 C71.5064631,6.17393868 70.2130841,7.46698113 70.2130841,9.06191038 C70.2130841,10.6580189 71.5064631,11.9522406 73.1047564,11.9522406 C74.70246,11.9522406 75.9940697,10.6580189 75.9940697,9.06191038 C75.9940697,7.46698113 74.70246,6.17393868 73.1047564,6.17393868 Z M72.3716647,3.89268868 L72.3716647,0.734669811 C72.3716647,0.328419811 72.6989905,0 73.1047564,0 C73.5111122,0 73.8396175,0.328419811 73.8396175,0.734669811 L73.8396175,3.89209906 C73.8396175,4.29834906 73.5111122,4.62441038 73.1047564,4.62441038 C72.6989905,4.625 72.3716647,4.29893868 72.3716647,3.89268868 Z M72.3716647,17.3891509 L72.3716647,14.2334906 C72.3716647,13.8272406 72.6995802,13.5 73.1047564,13.5 C73.5111122,13.5 73.8396175,13.8272406 73.8396175,14.2334906 L73.8396175,17.3891509 C73.8396175,17.7948113 73.5111122,18.125 73.1047564,18.125 C72.6989905,18.125 72.3716647,17.7948113 72.3716647,17.3891509 Z M76.2459041,5.92511792 C75.9580934,5.63738208 75.9580934,5.1745283 76.2459041,4.88738208 L78.4764374,2.65566038 C78.7618891,2.36910377 79.2260429,2.36910377 79.5150332,2.65566038 C79.8016644,2.94221698 79.8016644,3.40742925 79.5150332,3.69339623 L77.2803714,5.92511792 C77.1388252,6.06662736 76.9512764,6.14033019 76.7637275,6.14033019 C76.5749992,6.14033019 76.3874504,6.06662736 76.2459041,5.92511792 Z M66.6950695,15.4693396 C66.4084383,15.1839623 66.4084383,14.71875 66.6950695,14.4316038 L68.9285517,12.1998821 C69.2145931,11.9145047 69.6799265,11.9145047 69.9659679,12.1998821 C70.2531889,12.4852594 70.2531889,12.9516509 69.9659679,13.2364387 L67.7366141,15.4693396 C67.5915292,15.6114387 67.4039804,15.6839623 67.2140725,15.6839623 C67.0271134,15.6839623 66.8401544,15.6114387 66.6950695,15.4693396 Z M78.2788624,9.79775943 C77.8719169,9.79775943 77.5416423,9.46698113 77.5416423,9.06191038 C77.5416423,8.65860849 77.8719169,8.32724057 78.2788624,8.32724057 L81.4341647,8.32724057 C81.8399307,8.32724057 82.1666667,8.65860849 82.1666667,9.06191038 C82.1666667,9.46757075 81.8393409,9.79775943 81.4341647,9.79775943 L78.2788624,9.79775943 Z M64.7759379,9.79775943 C64.3689924,9.79775943 64.0416667,9.46757075 64.0416667,9.06191038 C64.0416667,8.65860849 64.3689924,8.32724057 64.7759379,8.32724057 L67.9312402,8.32724057 C68.3370062,8.32724057 68.6672808,8.65860849 68.6672808,9.06191038 C68.6672808,9.46757075 68.337596,9.79775943 67.9312402,9.79775943 L64.7759379,9.79775943 Z M78.4764374,15.4693396 L76.2459041,13.2364387 C75.9580934,12.9522406 75.9580934,12.4858491 76.2459041,12.1998821 C76.5289966,11.9145047 76.9966891,11.9145047 77.2803714,12.1998821 L79.5150332,14.4316038 C79.8016644,14.7181604 79.8016644,15.1833726 79.5150332,15.4693396 C79.3699483,15.6108491 79.1823995,15.6833726 78.9942609,15.6833726 C78.8067121,15.6839623 78.6185735,15.6114387 78.4764374,15.4693396 Z M68.9285517,5.92511792 L66.6950695,3.69339623 C66.4084383,3.40801887 66.4084383,2.9428066 66.6950695,2.65566038 C66.98347,2.36910377 67.4482136,2.36910377 67.7366141,2.65566038 L69.9659679,4.88738208 C70.2531889,5.17393868 70.2531889,5.63679245 69.9659679,5.92511792 C69.8220625,6.06662736 69.6333341,6.14033019 69.4475547,6.14033019 C69.2588263,6.14033019 69.0706877,6.06662736 68.9285517,5.92511792 Z" id="brightness-high-icon"></path>
                </g>
            </g>
        </g>
    </g>
</svg>