<?xml version="1.0" encoding="UTF-8" standalone="no"?>
<svg width="30px" height="30px" viewBox="0 0 30 30" version="1.1" xmlns="http://www.w3.org/2000/svg" xmlns:xlink="http://www.w3.org/1999/xlink" xmlns:sketch="http://www.bohemiancoding.com/sketch/ns">
    <!-- Generator: Sketch 3.3.2 (12043) - http://www.bohemiancoding.com/sketch -->
    <title>brightness-high-icon</title>
    <desc>Created with Sketch.</desc>
    <defs></defs>
    <g id="Welcome" stroke="none" stroke-width="1" fill="none" fill-rule="evenodd" sketch:type="MSPage">
        <g id="Artboard-4" sketch:type="MSArtboardGroup" transform="translate(-276.000000, -403.000000)" fill="#34495E">
            <g id="Group-Copy-7" sketch:type="MSLayerGroup" transform="translate(0.000000, 393.000000)">
                <g id="brightness-high-+-brightness-high-copy-+-Group" transform="translate(148.000000, 10.000000)" sketch:type="MSShapeGroup">
                    <path d="M143.000976,10.218933 C140.355525,10.218933 138.21476,12.3591412 138.21476,14.9990241 C138.21476,17.6408588 140.355525,19.7830189 143.000976,19.7830189 C145.645451,19.7830189 147.783288,17.6408588 147.783288,14.9990241 C147.783288,12.3591412 145.645451,10.218933 143.000976,10.218933 Z M141.787583,6.44307092 L141.787583,1.2160052 C141.787583,0.543591412 142.329364,0 143.000976,0 C143.673565,0 144.217298,0.543591412 144.217298,1.2160052 L144.217298,6.44209499 C144.217298,7.11450878 143.673565,7.65419649 143.000976,7.65419649 C142.329364,7.65517241 141.787583,7.11548471 141.787583,6.44307092 Z M141.787583,28.7820429 L141.787583,23.5588809 C141.787583,22.8864671 142.33034,22.3448276 143.000976,22.3448276 C143.673565,22.3448276 144.217298,22.8864671 144.217298,23.5588809 L144.217298,28.7820429 C144.217298,29.4534808 143.673565,30 143.000976,30 C142.329364,30 141.787583,29.4534808 141.787583,28.7820429 Z M148.200117,9.80709174 C147.723741,9.3308393 147.723741,8.5647365 148.200117,8.08945999 L151.892034,4.3955758 C152.364506,3.92127521 153.132761,3.92127521 153.611089,4.3955758 C154.085513,4.86987638 154.085513,5.63988289 153.611089,6.11320755 L149.912339,9.80709174 C149.678055,10.0413142 149.36763,10.1633051 149.057204,10.1633051 C148.744826,10.1633051 148.434401,10.0413142 148.200117,9.80709174 Z M132.391839,25.6044242 C131.917415,25.1320755 131.917415,24.362069 132.391839,23.8867925 L136.088637,20.1929083 C136.562085,19.7205595 137.332292,19.7205595 137.80574,20.1929083 C138.28114,20.665257 138.28114,21.4372154 137.80574,21.9085882 L134.115775,25.6044242 C133.875635,25.8396226 133.565209,25.9596617 133.250879,25.9596617 C132.941429,25.9596617 132.63198,25.8396226 132.391839,25.6044242 Z M151.565014,16.2169811 C150.891449,16.2169811 150.344787,15.669486 150.344787,14.9990241 C150.344787,14.3314899 150.891449,13.7830189 151.565014,13.7830189 L156.787583,13.7830189 C157.459196,13.7830189 158,14.3314899 158,14.9990241 C158,15.6704619 157.458219,16.2169811 156.787583,16.2169811 L151.565014,16.2169811 Z M129.215346,16.2169811 C128.541781,16.2169811 128,15.6704619 128,14.9990241 C128,14.3314899 128.541781,13.7830189 129.215346,13.7830189 L134.437915,13.7830189 C135.109528,13.7830189 135.656189,14.3314899 135.656189,14.9990241 C135.656189,15.6704619 135.110504,16.2169811 134.437915,16.2169811 L129.215346,16.2169811 Z M151.892034,25.6044242 L148.200117,21.9085882 C147.723741,21.4381913 147.723741,20.6662329 148.200117,20.1929083 C148.668684,19.7205595 149.442796,19.7205595 149.912339,20.1929083 L153.611089,23.8867925 C154.085513,24.361093 154.085513,25.1310995 153.611089,25.6044242 C153.370949,25.8386467 153.060523,25.9586858 152.749121,25.9586858 C152.438696,25.9596617 152.127294,25.8396226 151.892034,25.6044242 Z M136.088637,9.80709174 L132.391839,6.11320755 C131.917415,5.64085882 131.917415,4.87085231 132.391839,4.3955758 C132.869192,3.92127521 133.638422,3.92127521 134.115775,4.3955758 L137.80574,8.08945999 C138.28114,8.56376057 138.28114,9.32986337 137.80574,9.80709174 C137.567552,10.0413142 137.255174,10.1633051 136.947677,10.1633051 C136.635299,10.1633051 136.323897,10.0413142 136.088637,9.80709174 Z" id="brightness-high-icon"></path>
                </g>
            </g>
        </g>
    </g>
</svg>