<?xml version="1.0" encoding="UTF-8" standalone="no"?>
<svg width="8px" height="8px" viewBox="0 0 8 8" version="1.1" xmlns="http://www.w3.org/2000/svg" xmlns:xlink="http://www.w3.org/1999/xlink" xmlns:sketch="http://www.bohemiancoding.com/sketch/ns">
    <!-- Generator: Sketch 3.3.2 (12043) - http://www.bohemiancoding.com/sketch -->
    <title>delete-tag-icon</title>
    <desc>Created with Sketch.</desc>
    <defs></defs>
    <g id="Welcome" stroke="none" stroke-width="1" fill="none" fill-rule="evenodd" sketch:type="MSPage">
        <g id="Artboard-4" sketch:type="MSArtboardGroup" transform="translate(-1006.000000, -305.000000)" fill="#FFFFFF">
            <g id="tags-block" sketch:type="MSLayerGroup" transform="translate(934.000000, 245.000000)">
                <g id="Rectangle-429-+-Colombia-Copy-2" transform="translate(9.000000, 53.000000)" sketch:type="MSShapeGroup">
                    <path d="M68.5008947,11.0004715 L70.752344,8.74872756 C71.082552,8.41852665 71.082552,7.87813555 70.752344,7.54793464 L70.4523108,7.24790785 C70.1221028,6.91736405 69.5817001,6.91736405 69.2514921,7.24790785 L67.0000429,9.49965175 L64.7482507,7.24790785 C64.4183856,6.91770694 63.8779829,6.91770694 63.5477749,7.24790785 L63.2473988,7.54793464 C62.9175337,7.87813555 62.9175337,8.41852665 63.2473988,8.74872756 L65.4988481,11.0001286 L63.2473988,13.2518725 C62.9175337,13.5820734 62.9175337,14.1224645 63.2473988,14.4523225 L63.5477749,14.7523493 C63.8779829,15.0825502 64.4183856,15.0825502 64.7482507,14.7523493 L67.0000429,12.5012912 L69.2514921,14.7523493 C69.5817001,15.0825502 70.1221028,15.0825502 70.4523108,14.7523493 L70.752344,14.4523225 C71.082552,14.1221216 71.082552,13.5817305 70.752344,13.2518725 L68.5008947,11.0004715 L68.5008947,11.0004715 Z" id="delete-tag-icon"></path>
                </g>
            </g>
        </g>
    </g>
</svg>