<?xml version="1.0" encoding="UTF-8" standalone="no"?>
<svg width="35px" height="35px" viewBox="0 0 35 35" version="1.1" xmlns="http://www.w3.org/2000/svg" xmlns:xlink="http://www.w3.org/1999/xlink" xmlns:sketch="http://www.bohemiancoding.com/sketch/ns">
    <!-- Generator: Sketch 3.3 (11970) - http://www.bohemiancoding.com/sketch -->
    <title>exitFullScreen-icon</title>
    <desc>Created with Sketch.</desc>
    <defs></defs>
    <g id="Page-1" stroke="none" stroke-width="1" fill="none" fill-rule="evenodd" sketch:type="MSPage">
        <g id="exitFullScreen-icon" sketch:type="MSArtboardGroup" stroke-linecap="square" stroke="#000000" stroke-width="1.5">
            <g id="Line-+-Line-+-Line" sketch:type="MSLayerGroup" transform="translate(7.500000, 10.000000) scale(-1, -1) translate(-7.500000, -10.000000) translate(2.000000, 4.000000)">
                <path d="M10.5,11.5 L1.5,2.5" id="Line" sketch:type="MSShapeGroup"></path>
                <path d="M0.75,2.5 L0.75,9.5" id="Line" sketch:type="MSShapeGroup"></path>
                <path d="M0.8,1.75 L8.5,1.75" id="Line" sketch:type="MSShapeGroup"></path>
            </g>
            <g id="Line-+-Line-+-Line-Copy" sketch:type="MSLayerGroup" transform="translate(24.500000, 10.000000) scale(1, -1) translate(-24.500000, -10.000000) translate(19.000000, 4.000000)">
                <path d="M10.5,11.5 L1.5,2.5" id="Line" sketch:type="MSShapeGroup"></path>
                <path d="M0.75,2.5 L0.75,9.5" id="Line" sketch:type="MSShapeGroup"></path>
                <path d="M0.8,1.75 L8.5,1.75" id="Line" sketch:type="MSShapeGroup"></path>
            </g>
            <g id="Line-+-Line-+-Line-Copy-3" sketch:type="MSLayerGroup" transform="translate(7.500000, 27.000000) scale(-1, 1) translate(-7.500000, -27.000000) translate(2.000000, 21.000000)">
                <path d="M10.5,11.5 L1.5,2.5" id="Line" sketch:type="MSShapeGroup"></path>
                <path d="M0.75,2.5 L0.75,9.5" id="Line" sketch:type="MSShapeGroup"></path>
                <path d="M0.8,1.75 L8.5,1.75" id="Line" sketch:type="MSShapeGroup"></path>
            </g>
            <g id="Line-+-Line-+-Line-Copy-2" sketch:type="MSLayerGroup" transform="translate(19.000000, 21.000000)">
                <path d="M10.5,11.5 L1.5,2.5" id="Line" sketch:type="MSShapeGroup"></path>
                <path d="M0.75,2.5 L0.75,9.5" id="Line" sketch:type="MSShapeGroup"></path>
                <path d="M0.8,1.75 L8.5,1.75" id="Line" sketch:type="MSShapeGroup"></path>
            </g>
        </g>
    </g>
</svg>