<?xml version="1.0" encoding="UTF-8" standalone="no"?>
<svg width="47px" height="51px" viewBox="0 0 47 51" version="1.1" xmlns="http://www.w3.org/2000/svg" xmlns:xlink="http://www.w3.org/1999/xlink" xmlns:sketch="http://www.bohemiancoding.com/sketch/ns">
    <!-- Generator: Sketch 3.3.3 (12081) - http://www.bohemiancoding.com/sketch -->
    <title>Path</title>
    <desc>Created with Sketch.</desc>
    <defs>
        <filter x="-50%" y="-50%" width="200%" height="200%" filterUnits="objectBoundingBox" id="filter-1">
            <feOffset dx="0" dy="4" in="SourceAlpha" result="shadowOffsetOuter1"></feOffset>
            <feGaussianBlur stdDeviation="0" in="shadowOffsetOuter1" result="shadowBlurOuter1"></feGaussianBlur>
            <feColorMatrix values="0 0 0 0 1   0 0 0 0 1   0 0 0 0 1  0 0 0 0.7 0" in="shadowBlurOuter1" type="matrix" result="shadowMatrixOuter1"></feColorMatrix>
            <feMerge>
                <feMergeNode in="shadowMatrixOuter1"></feMergeNode>
                <feMergeNode in="SourceGraphic"></feMergeNode>
            </feMerge>
        </filter>
    </defs>
    <g id="Page-1" stroke="none" stroke-width="1" fill="none" fill-rule="evenodd" sketch:type="MSPage">
        <g id="Artboard-8-Copy" sketch:type="MSArtboardGroup" transform="translate(-27.000000, -43.000000)" filter="url(#filter-1)" fill="#333333">
            <g id="Path-+-Shape-Copy" sketch:type="MSLayerGroup" transform="translate(27.000000, 43.000000)">
                <path d="M23.5,0 C36.4778366,0 47,9.2060866 47,20.5625 C47,27.0529542 43.5557908,32.8309592 38.1875,36.5997908 L38.1875,47 L27.8930408,40.7533775 C26.4682958,40.9884542 25.0025408,41.125 23.5,41.125 C10.5206275,41.125 0,31.9189134 0,20.5625 C0,9.2060866 10.5206275,0 23.5,0 Z M31.09375,24 C31.9045,24 32.5625,25.12 32.5625,26.5 C32.5625,27.88 31.9045,29 31.09375,29 L16.40625,29 C15.5955,29 14.9375,27.88 14.9375,26.5 C14.9375,25.12 15.5955,24 16.40625,24 L31.09375,24 Z M13.46875,14 L34.03125,14 C34.842,14 35.5,15.12 35.5,16.5 C35.5,17.88 34.842,19 34.03125,19 L13.46875,19 C12.658,19 12,17.88 12,16.5 C12,15.12 12.658,14 13.46875,14 Z" id="Path" sketch:type="MSShapeGroup" transform="translate(23.500000, 23.500000) scale(-1, 1) translate(-23.500000, -23.500000) "></path>
            </g>
        </g>
    </g>
</svg>