<?xml version="1.0" encoding="UTF-8" standalone="no"?>
<svg width="19px" height="19px" viewBox="0 0 19 19" version="1.1" xmlns="http://www.w3.org/2000/svg" xmlns:xlink="http://www.w3.org/1999/xlink" xmlns:sketch="http://www.bohemiancoding.com/sketch/ns">
    <!-- Generator: Sketch 3.3.2 (12043) - http://www.bohemiancoding.com/sketch -->
    <title>full-screen-icon</title>
    <desc>Created with Sketch.</desc>
    <defs></defs>
    <g id="Welcome" stroke="none" stroke-width="1" fill="none" fill-rule="evenodd" sketch:type="MSPage">
        <g id="Artboard-4-Copy" sketch:type="MSArtboardGroup" transform="translate(-6.000000, -770.000000)" fill="#FFFFFF">
            <g id="Group" sketch:type="MSLayerGroup" transform="translate(-23.000000, 765.000000)">
                <g id="Rectangle-341-Copy-+-expand42-Copy" transform="translate(29.906250, 5.437500)" sketch:type="MSShapeGroup">
                    <path d="M8.31161378,10.3948082 L7.63092128,9.71657653 C7.35200761,9.43868486 6.89650661,9.43868486 6.61244151,9.71657653 L2.39776102,13.9208795 L2.39776102,10.3514147 C2.39776102,9.95624059 2.07278546,9.63498876 1.67866687,9.63498876 L0.719060699,9.63498876 C0.322433293,9.63498876 -4.4408921e-15,9.95877355 -4.4408921e-15,10.3514147 L-4.4408921e-15,17.283842 C-4.4408921e-15,17.4827121 0.0793121007,17.6611521 0.212379809,17.7886329 C0.345447517,17.9212464 0.524577125,18.0002679 0.719060699,18.0002679 L7.67698317,18.0002679 C8.07361058,18.0002679 8.39604387,17.6764498 8.39604387,17.283842 L8.39604387,16.3277186 C8.39604387,15.9325446 8.07106831,15.6112594 7.67698317,15.6112594 L4.09439103,15.6112594 L8.31161378,11.4095227 C8.59310317,11.1265318 8.59310317,10.6726998 8.31161378,10.3948082 Z M17.7875867,0.211634936 C17.654519,0.079054814 17.475356,0 17.2808724,0 L10.3230168,0 C9.92638942,0 9.60388923,0.323784788 9.60388923,0.716459248 L9.60388923,1.67258256 C9.60388923,2.06775665 9.92893169,2.38904181 10.3230168,2.38904181 L13.905609,2.38904181 L9.68326823,6.58821223 C9.40428766,6.86613723 9.40428766,7.32250214 9.68326823,7.60296009 L10.3639273,8.2811584 C10.6429079,8.5590834 11.1009511,8.5590834 11.3824071,8.2811584 L15.6021721,4.07938838 L15.6021721,7.64885321 C15.6021721,8.04402729 15.9272145,8.36531245 16.3212328,8.36531245 L17.2808724,8.36531245 C17.6774998,8.36531245 18,8.04149434 18,7.64885321 L18,0.718992201 C17.9973908,0.517555736 17.915503,0.339082495 17.7875867,0.211634936 Z" id="full-screen-icon"></path>
                </g>
            </g>
        </g>
    </g>
</svg>