<?xml version="1.0" encoding="UTF-8" standalone="no"?>
<svg width="21px" height="20px" viewBox="0 0 21 20" version="1.1" xmlns="http://www.w3.org/2000/svg" xmlns:xlink="http://www.w3.org/1999/xlink" xmlns:sketch="http://www.bohemiancoding.com/sketch/ns">
    <!-- Generator: Sketch 3.3.2 (12043) - http://www.bohemiancoding.com/sketch -->
    <title>full-screen-icon</title>
    <desc>Created with Sketch.</desc>
    <defs></defs>
    <g id="Welcome" stroke="none" stroke-width="1" fill="none" fill-rule="evenodd" sketch:type="MSPage">
        <g id="Artboard-4" sketch:type="MSArtboardGroup" transform="translate(-585.000000, -408.000000)" fill="#34495E">
            <g id="Group-Copy-7" sketch:type="MSLayerGroup" transform="translate(0.000000, 393.000000)">
                <g id="Rectangle-341-Copy-2-+-crescent33-+-Rectangle-341-Copy-3-+-Oval-1578-+-Rectangle-341-Copy-+-expand42" transform="translate(473.000000, 7.000000)" sketch:type="MSShapeGroup">
                    <g id="Rectangle-341-Copy-+-expand42" transform="translate(104.000000, 0.000000)">
                        <path d="M17.2718038,19.549615 L16.51549,18.7960355 C16.2055906,18.4872715 15.6994859,18.4872715 15.3838627,18.7960355 L10.7009541,23.4674137 L10.7009541,19.5014007 C10.7009541,19.0623249 10.3398755,18.7053837 9.90197247,18.7053837 L8.83575926,18.7053837 C8.3950687,18.7053837 8.03681481,19.0651393 8.03681481,19.5014007 L8.03681481,27.203983 C8.03681481,27.4249466 8.12493806,27.6232102 8.27278887,27.7648536 C8.42063968,27.9121997 8.61966961,28 8.83575926,28 L16.5666692,28 C17.0073597,28 17.3656136,27.6402074 17.3656136,27.203983 L17.3656136,26.1416396 C17.3656136,25.7025638 17.004535,25.3455856 16.5666692,25.3455856 L12.5860705,25.3455856 L17.2718038,20.6770588 C17.5845651,20.3626291 17.5845651,19.8583789 17.2718038,19.549615 Z M27.800506,8.23514643 C27.6526551,8.08783737 27.453588,8 27.2374984,8 L19.5066628,8 C19.0659723,8 18.707644,8.35975552 18.707644,8.79605398 L18.707644,9.85839741 C18.707644,10.2974732 19.068797,10.6544514 19.5066628,10.6544514 L23.4872615,10.6544514 L18.7958416,15.3201269 C18.4858678,15.6289278 18.4858678,16.1359924 18.7958416,16.4476077 L19.5521182,17.2011502 C19.862092,17.5099511 20.3710214,17.5099511 20.6837455,17.2011502 L25.3723036,12.5325863 L25.3723036,16.4985993 C25.3723036,16.9376751 25.7334565,17.2946533 26.171248,17.2946533 L27.2374984,17.2946533 C27.678189,17.2946533 28.0365172,16.9348607 28.0365172,16.4985993 L28.0365172,8.79886833 C28.0336181,8.57505337 27.942633,8.37675272 27.800506,8.23514643 Z" id="full-screen-icon"></path>
                    </g>
                </g>
            </g>
        </g>
    </g>
</svg>