<?xml version="1.0" encoding="UTF-8" standalone="no"?>
<svg width="26px" height="28px" viewBox="0 0 26 28" version="1.1" xmlns="http://www.w3.org/2000/svg" xmlns:xlink="http://www.w3.org/1999/xlink" xmlns:sketch="http://www.bohemiancoding.com/sketch/ns">
    <!-- Generator: Sketch 3.3.2 (12043) - http://www.bohemiancoding.com/sketch -->
    <title>keyword-highlight-icon</title>
    <desc>Created with Sketch.</desc>
    <defs></defs>
    <g id="Welcome" stroke="none" stroke-width="1" fill="none" fill-rule="evenodd" sketch:type="MSPage">
        <g id="Artboard-4" sketch:type="MSArtboardGroup" transform="translate(-1120.000000, -405.000000)">
            <g id="Group-Copy-7" sketch:type="MSLayerGroup" transform="translate(0.000000, 393.000000)">
                <g id="Rectangle-350-+-Shape-+-Palabras-clave-+-Rectangle-341-Copy-6-+-keyword-highligh-icon-+-Rectangle-341-Copy-7-+-bookmark-icon-+-dropdown-icon" transform="translate(955.000000, 7.000000)" sketch:type="MSShapeGroup">
                    <g id="Rectangle-350-+-Shape-+-Palabras-clave-+-Rectangle-341-Copy-6-+-keyword-highligh-icon">
                        <g id="Rectangle-341-Copy-6-+-keyword-highligh-icon" transform="translate(160.000000, 0.000000)">
                            <g id="keyword-highlight-icon" transform="translate(5.000000, 4.000000)">
                                <path d="M13,5.58277183 C13.4536898,5.58277183 13.8223805,5.21478839 13.8223805,4.76196881 L13.8223805,1.82080302 C13.8223805,1.36798345 13.4536898,1 13,1 C12.5468516,1 12.1776195,1.36798345 12.1776195,1.82080302 L12.1776195,4.76196881 C12.1776195,5.21478839 12.5468516,5.58277183 13,5.58277183 Z M5.89147093,8.04085803 C6.04631018,8.19594063 6.25258204,8.28077676 6.47238881,8.28077676 C6.69219557,8.28077676 6.89846743,8.19594063 7.05384808,8.04031768 C7.37435449,7.72042605 7.37435449,7.20006179 7.05384808,6.88017016 L4.9694736,4.80033419 C4.81409295,4.6452516 4.60836249,4.56041547 4.38855572,4.56041547 C4.16874896,4.56041547 3.9619357,4.6452516 3.80709645,4.80087455 C3.65171581,4.95541679 3.56617525,5.16129299 3.56617525,5.38013778 C3.56617525,5.59952292 3.65171581,5.80539912 3.80709645,5.96048172 L5.89147093,8.04085803 Z M20.1079877,19.9081891 C19.952607,19.7547276 19.7463352,19.6698915 19.5276112,19.6698915 C19.3088872,19.6698915 19.1015326,19.7547276 18.9461519,19.9098102 C18.7907713,20.0643524 18.7063135,20.270769 18.7073963,20.4885331 C18.7073963,20.7073778 18.7907713,20.9137944 18.9472347,21.0677963 L21.0316092,23.1492533 C21.1869898,23.3043359 21.3932617,23.3897124 21.6119857,23.3897124 C21.8317924,23.3897124 22.0380643,23.3043359 22.1934449,23.1492533 C22.5128686,22.828281 22.5128686,22.3089974 22.1934449,21.9896462 L20.1079877,19.9081891 Z M4.59049642,13.9750639 C4.59049642,13.5222444 4.22180576,13.1537206 3.76865734,13.1537206 L0.82183908,13.1537206 C0.368690655,13.1537206 0,13.5227847 0,13.9750639 C0,14.4273432 0.368690655,14.795867 0.82183908,14.795867 L3.76865734,14.795867 C4.22234716,14.7947862 4.59049642,14.4273432 4.59049642,13.9750639 Z M25.1781609,13.1537206 L22.2313427,13.1537206 C21.7776528,13.1537206 21.4078794,13.5222444 21.4078794,13.9750639 C21.4078794,14.4273432 21.7776528,14.795867 22.2313427,14.795867 L25.1781609,14.795867 C25.6307679,14.795867 26,14.4273432 26,13.9750639 C26,13.5227847 25.6307679,13.1537206 25.1781609,13.1537206 Z M6.47238881,19.6698915 C6.25312344,19.6698915 6.04631018,19.7547276 5.89092954,19.9098102 L3.80709645,21.9896462 C3.48659004,22.3106185 3.48659004,22.8309828 3.80709645,23.1492533 C3.9619357,23.3043359 4.16820756,23.3897124 4.38801433,23.3897124 C4.60727969,23.3897124 4.81409295,23.3043359 4.9694736,23.1492533 L7.05330668,21.0677963 C7.20868732,20.9137944 7.29368649,20.7073778 7.29368649,20.4885331 C7.29368649,20.270769 7.20814593,20.0643524 7.05276528,19.9081891 C6.89846743,19.7547276 6.69219557,19.6698915 6.47238881,19.6698915 Z M19.5270698,8.2802364 C19.7457938,8.2802364 19.9531484,8.19540028 20.1085291,8.04031768 L22.1929035,5.959401 C22.3472014,5.80539912 22.432742,5.59952292 22.432742,5.38013778 C22.432742,5.16183335 22.3472014,4.95487644 22.1918208,4.79979384 C22.0375229,4.6452516 21.831251,4.56041547 21.6114443,4.56041547 C21.3927203,4.56041547 21.1864484,4.6452516 21.0310678,4.80033419 L18.9466933,6.88017016 C18.7902299,7.03525275 18.7068549,7.24112896 18.7068549,7.45943338 C18.7068549,7.67881852 18.7902299,7.88523508 18.9466933,8.04031768 C19.1009912,8.19648099 19.3067216,8.2802364 19.5270698,8.2802364 Z M13.0324838,7.99330658 C9.73375812,7.99330658 7.0500583,10.6713183 7.0500583,13.9631761 C7.0500583,16.3326436 8.40896219,18.9393282 10.2800267,20.2756322 L10.2800267,23.7641801 C10.2800267,24.1305425 10.527986,24.4509745 10.8836832,24.5422949 L12.8305431,25.0464485 C12.8971348,25.0626592 12.9648093,25.0718453 13.0324838,25.0718453 C13.1001583,25.0718453 13.1678328,25.0626592 13.2344245,25.0464485 L15.1812844,24.5422949 C15.5364401,24.4504341 15.7849409,24.1283811 15.7849409,23.7641801 L15.7849409,20.2756322 C17.6565467,18.9393282 19.0143678,16.3321033 19.0143678,13.9631761 C19.0138264,10.6713183 16.3301266,7.99330658 13.0324838,7.99330658 Z M14.1726637,23.1400672 L14.1726637,23.1400672 L13.0330252,23.4351024 L11.8933866,23.1400672 L11.8933866,22.1593184 L14.1726637,22.1593184 L14.1726637,23.1400672 L14.1726637,23.1400672 Z M14.5121189,19.1819487 C14.1959437,19.3635088 14.0405631,19.7336537 14.1358487,20.0865071 C14.1455939,20.1232514 14.1569632,20.1605361 14.1715809,20.195119 L14.1715809,20.9505387 L11.8923038,20.9505387 L11.8923038,20.195119 C11.9074629,20.1605361 11.919915,20.122711 11.9296602,20.0865071 C12.0233217,19.7352747 11.8684824,19.3624281 11.5517658,19.1819487 C9.93136765,18.2525338 8.6623355,15.9619584 8.6623355,13.9642568 C8.6623355,11.5602063 10.6221889,9.60357188 13.0330252,9.60357188 C15.4416958,9.60357188 17.4010078,11.5602063 17.4010078,13.9642568 C17.4020906,15.9619584 16.1330585,18.2530742 14.5121189,19.1819487 L14.5121189,19.1819487 Z" fill="#34495E"></path>
                                <rect id="Rectangle-458" fill-opacity="0.01" fill="#FFFFFF" x="0" y="28" width="2" height="1"></rect>
                            </g>
                        </g>
                    </g>
                </g>
            </g>
        </g>
    </g>
</svg>