<?xml version="1.0" encoding="UTF-8" standalone="no"?>
<svg width="39px" height="39px" viewBox="0 0 39 39" version="1.1" xmlns="http://www.w3.org/2000/svg" xmlns:xlink="http://www.w3.org/1999/xlink" xmlns:sketch="http://www.bohemiancoding.com/sketch/ns">
    <!-- Generator: Sketch 3.3.3 (12081) - http://www.bohemiancoding.com/sketch -->
    <title>Shape</title>
    <desc>Created with Sketch.</desc>
    <defs></defs>
    <g id="Page-1" stroke="none" stroke-width="1" fill="none" fill-rule="evenodd" sketch:type="MSPage">
        <g id="my-notes-icon" sketch:type="MSLayerGroup" fill="#555555">
            <g id="Welcome" sketch:type="MSShapeGroup">
                <g id="Artboard-4-Copy">
                    <path d="M34.734343,18.28125 C33.724039,18.28125 32.906186,19.10025 32.906186,20.109407 L32.906186,35.34375 L3.656186,35.34375 L3.656186,6.09375 L18.890529,6.09375 C19.900833,6.09375 20.718686,5.27475 20.718686,4.265593 C20.718686,3.256436 19.900961,2.4375 18.890657,2.4375 L2.4375,2.4375 C1.092,2.4375 0,3.528289 0,4.875 L0,36.5625 C0,37.909211 1.092,39 2.4375,39 L34.125,39 C35.4705,39 36.5625,37.909211 36.5625,36.5625 L36.5625,20.109343 C36.5625,19.10025 35.744711,18.28125 34.734343,18.28125 L34.734343,18.28125 L34.734343,18.28125 Z M38.574632,5.668382 L33.330343,0.424093 C33.045235,0.138922 32.671039,0 32.296843,0 C31.922647,0 31.548515,0.138922 31.263343,0.425368 L10.968686,20.71875 L10.968686,28.03125 L18.281186,28.03125 L38.574569,7.737868 C38.860951,7.451422 38.999936,7.077289 38.999936,6.703157 C39,6.32775 38.861015,5.954828 38.574632,5.668382 L38.574632,5.668382 L38.574632,5.668382 Z M17.0625,24.375 L14.625,24.375 L14.625,21.9375 L32.296843,4.265657 L34.734343,6.703157 L17.0625,24.375 L17.0625,24.375 Z" id="Shape"></path>
                </g>
            </g>
        </g>
    </g>
</svg>