<?xml version="1.0" encoding="UTF-8" standalone="no"?>
<svg width="39px" height="39px" viewBox="0 0 39 39" version="1.1" xmlns="http://www.w3.org/2000/svg" xmlns:xlink="http://www.w3.org/1999/xlink" xmlns:sketch="http://www.bohemiancoding.com/sketch/ns">
    <!-- Generator: Sketch 3.3.2 (12043) - http://www.bohemiancoding.com/sketch -->
    <title>Shape</title>
    <desc>Created with Sketch.</desc>
    <defs></defs>
    <g id="Welcome" stroke="none" stroke-width="1" fill="none" fill-rule="evenodd" sketch:type="MSPage">
        <g id="Artboard-4-Copy" sketch:type="MSArtboardGroup" transform="translate(-100.000000, -460.000000)" fill="#FFFFFF">
            <path d="M134.734343,478.28125 C133.724039,478.28125 132.906186,479.10025 132.906186,480.109407 L132.906186,495.34375 L103.656186,495.34375 L103.656186,466.09375 L118.890529,466.09375 C119.900833,466.09375 120.718686,465.27475 120.718686,464.265593 C120.718686,463.256436 119.900961,462.4375 118.890657,462.4375 L102.4375,462.4375 C101.092,462.4375 100,463.528289 100,464.875 L100,496.5625 C100,497.909211 101.092,499 102.4375,499 L134.125,499 C135.4705,499 136.5625,497.909211 136.5625,496.5625 L136.5625,480.109343 C136.5625,479.10025 135.744711,478.28125 134.734343,478.28125 L134.734343,478.28125 Z M138.574632,465.668382 L133.330343,460.424093 C133.045235,460.138922 132.671039,460 132.296843,460 C131.922647,460 131.548515,460.138922 131.263343,460.425368 L110.968686,480.71875 L110.968686,488.03125 L118.281186,488.03125 L138.574569,467.737868 C138.860951,467.451422 138.999936,467.077289 138.999936,466.703157 C139,466.32775 138.861015,465.954828 138.574632,465.668382 L138.574632,465.668382 Z M117.0625,484.375 L114.625,484.375 L114.625,481.9375 L132.296843,464.265657 L134.734343,466.703157 L117.0625,484.375 L117.0625,484.375 Z" id="Shape" sketch:type="MSShapeGroup"></path>
        </g>
    </g>
</svg>