<?xml version="1.0" encoding="UTF-8" standalone="no"?>
<svg width="36px" height="36px" viewBox="0 0 36 36" version="1.1" xmlns="http://www.w3.org/2000/svg" xmlns:xlink="http://www.w3.org/1999/xlink" xmlns:sketch="http://www.bohemiancoding.com/sketch/ns">
    <!-- Generator: Sketch 3.3.2 (12043) - http://www.bohemiancoding.com/sketch -->
    <title>new-notes-icon</title>
    <desc>Created with Sketch.</desc>
    <defs></defs>
    <g id="Welcome" stroke="none" stroke-width="1" fill="none" fill-rule="evenodd" sketch:type="MSPage">
        <g id="Artboard-4" sketch:type="MSArtboardGroup" transform="translate(-1235.000000, -400.000000)">
            <g id="Group-Copy-7" sketch:type="MSLayerGroup" transform="translate(0.000000, 393.000000)">
                <g id="new-notes-button" transform="translate(1230.000000, 2.000000)" sketch:type="MSShapeGroup">
                    <g id="new-notes-icon" transform="translate(5.000000, 5.000000)">
                        <rect id="Rectangle-340" fill-opacity="0" fill="#CACACA" x="0" y="0" width="36" height="36"></rect>
                        <path d="M32.0173038,11.2128143 L32.0173038,28.3580265 C32.0173038,30.5952723 30.2340516,32.4091732 28.0346076,32.4091732 L8.12112659,32.4091732 C5.92168262,32.4091732 4.13843039,30.5952723 4.13843039,28.3580265 L4.13843039,8.10229329 C4.13843039,5.86504756 5.92168262,4.05114665 8.12112659,4.05114665 L24.975648,4.05114665 L20.9948809,8.10229329 L8.12112659,8.10229329 L8.12112659,28.3580265 L28.0346076,28.3580265 L28.0346076,15.2649738 L32.0173038,11.2128143 Z M28.9602733,2.86428728 L27.552328,4.29643092 L31.776164,8.59387462 L33.1841093,7.16173098 L28.9602733,2.86428728 Z M31.776164,0 L30.3682187,1.43214364 L34.5920547,5.72958734 L36,4.29643092 L31.776164,0 Z M13.4728746,18.6218552 L17.6967106,22.9182861 L30.3682187,10.0269677 L26.1443826,5.72952404 L13.4728746,18.6218552 Z M12.1038228,24.3068799 L16.086519,24.3068799 L12.1038228,20.2557332 L12.1038228,24.3068799 Z" id="notes-icon" fill="#FFFFFF"></path>
                        <rect id="Path" fill-opacity="0.1" fill="#FFFFFF" x="0" y="34.9917146" width="0.991248832" height="1.00828539"></rect>
                    </g>
                </g>
            </g>
        </g>
    </g>
</svg>