<?xml version="1.0" encoding="UTF-8" standalone="no"?>
<svg width="20px" height="21px" viewBox="0 0 20 21" version="1.1" xmlns="http://www.w3.org/2000/svg" xmlns:xlink="http://www.w3.org/1999/xlink" xmlns:sketch="http://www.bohemiancoding.com/sketch/ns">
    <!-- Generator: Sketch 3.3.2 (12043) - http://www.bohemiancoding.com/sketch -->
    <title>night-mode-icon</title>
    <desc>Created with Sketch.</desc>
    <defs></defs>
    <g id="Welcome" stroke="none" stroke-width="1" fill="none" fill-rule="evenodd" sketch:type="MSPage">
        <g id="Artboard-4" sketch:type="MSArtboardGroup" transform="translate(-540.000000, -408.000000)" fill="#34495E">
            <g id="Group-Copy-7" sketch:type="MSLayerGroup" transform="translate(0.000000, 393.000000)">
                <g id="Rectangle-341-Copy-2-+-crescent33-+-Rectangle-341-Copy-3-+-Oval-1578-+-Rectangle-341-Copy-+-expand42" transform="translate(473.000000, 7.000000)" sketch:type="MSShapeGroup">
                    <g id="Rectangle-341-Copy-2-+-crescent33" transform="translate(58.000000, 0.000000)">
                        <path d="M21.7334759,23.144337 C18.3958768,22.7193379 15.7291824,19.9914271 15.3655225,16.6379802 C15.030938,13.552931 16.5923321,10.8010949 19.0264231,9.39864159 C19.4994413,9.12632901 19.3037246,8.39987212 18.7586687,8.42597237 C18.1485186,8.45511765 17.5257836,8.54298848 16.8939355,8.69654494 C12.6853752,9.72271967 9.55260598,13.4102496 9.26792713,17.7428907 C8.88517294,23.575861 13.4908081,28.425287 19.2269134,28.425287 C23.600379,28.425287 27.3155248,25.6060253 28.6647116,21.6809831 C28.8443718,21.1576731 28.2038444,20.7622544 27.8059015,21.145928 C26.2679414,22.625812 24.0929255,23.4444898 21.7334759,23.144337 L21.7334759,23.144337 Z" id="night-mode-icon"></path>
                    </g>
                </g>
            </g>
        </g>
    </g>
</svg>