<?xml version="1.0" encoding="UTF-8" standalone="no"?>
<svg width="35px" height="35px" viewBox="0 0 35 35" version="1.1" xmlns="http://www.w3.org/2000/svg" xmlns:xlink="http://www.w3.org/1999/xlink" xmlns:sketch="http://www.bohemiancoding.com/sketch/ns">
    <!-- Generator: Sketch 3.3 (11970) - http://www.bohemiancoding.com/sketch -->
    <title>night-icon Copy</title>
    <desc>Created with Sketch.</desc>
    <defs></defs>
    <g id="Page-1" stroke="none" stroke-width="1" fill="none" fill-rule="evenodd" sketch:type="MSPage">
        <g id="night-icon-Copy" sketch:type="MSArtboardGroup" stroke="#000000" stroke-width="1.5">
            <path d="M28.567,28.764 C30.763,26.568 32.197,23.897 32.867,21.081 C33.058,20.274 32.068,19.729 31.482,20.317 C31.475,20.325 31.468,20.332 31.461,20.338 C26.574,25.226 18.591,25.132 13.823,20.055 C9.328,15.272 9.386,7.84 13.952,3.122 C14.01,3.063 14.067,3.004 14.126,2.945 C14.712,2.363 14.164,1.376 13.359,1.567 C10.57,2.23 7.921,3.643 5.735,5.805 C-0.657,12.128 -0.693,22.38 5.657,28.746 C11.978,35.086 22.24,35.093 28.567,28.764 L28.567,28.764 Z" id="Shape" sketch:type="MSShapeGroup"></path>
        </g>
    </g>
</svg>