<?xml version="1.0" encoding="UTF-8" standalone="no"?>
<svg width="32px" height="32px" viewBox="0 0 32 32" version="1.1" xmlns="http://www.w3.org/2000/svg" xmlns:xlink="http://www.w3.org/1999/xlink" xmlns:sketch="http://www.bohemiancoding.com/sketch/ns">
    <!-- Generator: Sketch 3.2.2 (9983) - http://www.bohemiancoding.com/sketch -->
    <title>notes-icon</title>
    <desc>Created with Sketch.</desc>
    <defs></defs>
    <g id="Welcome" stroke="none" stroke-width="1" fill="none" fill-rule="evenodd" sketch:type="MSPage">
        <g id="BaseInfo" sketch:type="MSArtboardGroup" transform="translate(-178.000000, -388.000000)" fill="#FFFFFF">
            <g id="Menu" sketch:type="MSLayerGroup" transform="translate(164.000000, 174.000000)">
                <g id="Menu-icons" transform="translate(10.000000, 17.000000)" sketch:type="MSShapeGroup">
                    <g id="Notes-icon" transform="translate(4.000000, 197.000000)">
                        <path d="M19.8983733,5.34043545 L26.4078691,11.8817945 L9.93047638,28.439842 L3.42468334,21.898483 L19.8983733,5.34043545 L19.8983733,5.34043545 Z M31.3473842,3.76276979 L28.4444008,0.845576698 C27.322457,-0.281858899 25.5006868,-0.281858899 24.3750402,0.845576698 L21.5942488,3.63997978 L28.1037446,10.1813388 L31.3473842,6.92182201 C32.2175386,6.04740826 32.2175386,4.63718354 31.3473842,3.76276979 L31.3473842,3.76276979 Z M0.0181212451,31.0928505 C-0.100367871,31.6286615 0.380994164,32.1086588 0.914195187,31.978427 L8.16795078,30.210995 L1.66215773,23.6696359 L0.0181212451,31.0928505 L0.0181212451,31.0928505 Z" id="notes-icon"></path>
                    </g>
                </g>
            </g>
        </g>
    </g>
</svg>