<?xml version="1.0" encoding="UTF-8" standalone="no"?>
<svg width="35px" height="35px" viewBox="0 0 35 35" version="1.1" xmlns="http://www.w3.org/2000/svg" xmlns:xlink="http://www.w3.org/1999/xlink" xmlns:sketch="http://www.bohemiancoding.com/sketch/ns">
    <!-- Generator: Sketch 3.3 (11970) - http://www.bohemiancoding.com/sketch -->
    <title>notes-icon</title>
    <desc>Created with Sketch.</desc>
    <defs></defs>
    <g id="Page-1" stroke="none" stroke-width="1" fill="none" fill-rule="evenodd" sketch:type="MSPage">
        <g id="notes-icon" sketch:type="MSArtboardGroup" stroke-width="1.2" stroke="#000000">
            <path d="M20.8983733,6.34043545 L27.4078691,12.8817945 L10.9304764,29.439842 L4.42468334,22.898483 L20.8983733,6.34043545 L20.8983733,6.34043545 Z M30.3473842,6.76276979 L27.4444008,3.8455767 C26.322457,2.7181411 24.5006868,2.7181411 23.3750402,3.8455767 L20.5942488,6.63997978 L27.1037446,13.1813388 L30.3473842,9.92182201 C31.2175386,9.04740826 31.2175386,7.63718354 30.3473842,6.76276979 L30.3473842,6.76276979 L30.3473842,6.76276979 Z" sketch:type="MSShapeGroup"></path>
            <path d="M3.63770034,23.7569906 C3.78354439,23.2241995 4.23041419,23.0987485 4.63302084,23.4741853 L10.3828497,28.8359874 C10.7867059,29.2125895 10.7044401,29.6769466 10.1792439,29.8808692 L1.91890878,33.0881834 C1.40260412,33.2886536 1.1020482,33.0201247 1.24813051,32.4864631 L3.63770034,23.7569906 Z" id="Rectangle-1" sketch:type="MSShapeGroup" transform="translate(5.896466, 28.398480) rotate(2.000000) translate(-5.896466, -28.398480) "></path>
        </g>
    </g>
</svg>