<?xml version="1.0" encoding="UTF-8" standalone="no"?>
<svg width="35px" height="35px" viewBox="0 0 35 35" version="1.1" xmlns="http://www.w3.org/2000/svg" xmlns:xlink="http://www.w3.org/1999/xlink" xmlns:sketch="http://www.bohemiancoding.com/sketch/ns">
    <!-- Generator: Sketch 3.3 (11970) - http://www.bohemiancoding.com/sketch -->
    <title>print-icon</title>
    <desc>Created with Sketch.</desc>
    <defs></defs>
    <g id="Page-1" stroke="none" stroke-width="1" fill="none" fill-rule="evenodd" sketch:type="MSPage">
        <g id="print-icon" sketch:type="MSArtboardGroup">
            <rect id="Rectangle-path" fill="#000000" sketch:type="MSShapeGroup" x="11.0005" y="26" width="9.999" height="2"></rect>
            <rect id="Rectangle-path" fill="#000000" sketch:type="MSShapeGroup" x="11.0005" y="22" width="11.999" height="2"></rect>
            <path d="M3.0005,10 C1.896,10 1.0005,10.8965 1.0005,12 L1.0005,24 C1.0005,25.1055 1.896,26 3.0005,26 L7.0005,26 L7.0005,32 C7.0005,33.1055 7.896,34 9.0005,34 L24.9995,34 C26.105,34 26.9995,33.1054375 26.9995,32 L26.9995,26 L30.9995,26 C32.105,26 32.9995,25.1054375 32.9995,24 L32.9995,12 C32.9995,10.8965 32.105,10 30.9995,10 L3.0005,10 L3.0005,10 Z M28.9995,16 C27.894,16 26.9995,15.1054375 26.9995,14 C26.9995,12.8965 27.8940625,12 28.9995,12 C30.1049375,12 30.9995,12.8965 30.9995,14 C30.9995,15.1055 30.105,16 28.9995,16 L28.9995,16 L28.9995,16 Z" id="Shape" stroke="#000000" stroke-width="1.5" sketch:type="MSShapeGroup"></path>
            <path d="M7,20 L26.999,20 L26.999,30.9966488 C26.999,32.6553538 25.6557552,34 24.0049476,34 L9.99405237,34 C8.3404829,34 7,32.6576211 7,30.9966488 L7,20 Z" id="Rectangle-5" stroke="#000000" stroke-width="1.5" sketch:type="MSShapeGroup"></path>
            <path d="M8,3.99810135 C8,2.89458045 8.8926228,2 9.99508929,2 L24.0049107,2 C25.1067681,2 26,2.88670635 26,3.99810135 L26,10 L8,10 L8,3.99810135 Z" id="Rectangle-4" stroke="#000000" stroke-width="1.5" sketch:type="MSShapeGroup"></path>
        </g>
    </g>
</svg>