<?xml version="1.0" encoding="UTF-8" standalone="no"?>
<svg width="35px" height="35px" viewBox="0 0 35 35" version="1.1" xmlns="http://www.w3.org/2000/svg" xmlns:xlink="http://www.w3.org/1999/xlink" xmlns:sketch="http://www.bohemiancoding.com/sketch/ns">
    <!-- Generator: Sketch 3.3 (11970) - http://www.bohemiancoding.com/sketch -->
    <title>reading-icon</title>
    <desc>Created with Sketch.</desc>
    <defs></defs>
    <g id="Page-1" stroke="none" stroke-width="1" fill="none" fill-rule="evenodd" sketch:type="MSPage">
        <g id="reading-icon" sketch:type="MSArtboardGroup" fill="#000000">
            <path d="M30.93504,8.64516 C30.4864,8.64516 30.06528,8.64964 29.64352,8.66052 L29.64352,7.2282 L29.17376,7.2282 C20.04608,7.2282 16.98624,9.41124 15.99936,10.58948 C15.01248,9.41124 11.95264,7.2282 2.82496,7.2282 L2.3552,7.2282 L2.3552,8.65988 C1.93408,8.64836 1.51296,8.64516 1.06496,8.64516 L0,8.64516 L0,29.34916 L1.06496,29.34916 C12.32576,29.34916 14.624,31.93156 14.95168,32.41092 L17.06496,32.41092 C17.42144,31.90916 19.76448,29.34916 30.93568,29.34916 L32,29.34916 L32,8.64516 L30.93504,8.64516 L30.93504,8.64516 Z M15.29536,28.4154 C13.72288,27.25572 10.42432,25.91044 3.53024,25.82084 L3.53024,8.41156 C13.18592,8.53572 15.05088,11.18084 15.29536,11.61156 L15.29536,28.4154 L15.29536,28.4154 Z M28.46976,25.82084 C21.57568,25.91044 18.27712,27.25444 16.70464,28.4154 L16.70464,11.61732 C16.97088,11.14564 18.88832,8.53636 28.46976,8.41284 L28.46976,25.82084 L28.46976,25.82084 Z" id="Shape" sketch:type="MSShapeGroup"></path>
        </g>
    </g>
</svg>