<?xml version="1.0" encoding="UTF-8" standalone="no"?>
<svg width="12px" height="20px" viewBox="0 0 12 20" version="1.1" xmlns="http://www.w3.org/2000/svg" xmlns:xlink="http://www.w3.org/1999/xlink" xmlns:sketch="http://www.bohemiancoding.com/sketch/ns">
    <!-- Generator: Sketch 3.3.2 (12043) - http://www.bohemiancoding.com/sketch -->
    <title>speed-reading-icon</title>
    <desc>Created with Sketch.</desc>
    <defs></defs>
    <g id="Welcome" stroke="none" stroke-width="1" fill="none" fill-rule="evenodd" sketch:type="MSPage">
        <g id="Artboard-4" sketch:type="MSArtboardGroup" transform="translate(-854.000000, -408.000000)" fill="#34495E">
            <g id="Group-Copy-7" sketch:type="MSLayerGroup" transform="translate(0.000000, 393.000000)">
                <g id="Group" transform="translate(830.000000, 7.000000)" sketch:type="MSShapeGroup">
                    <g id="speed-reading-button" transform="translate(12.000000, 0.000000)">
                        <path d="M22.893223,8 L18.3163809,8 C17.770015,8 17.2023959,8.35654135 16.9665062,8.8483208 L12.1125714,18.9293734 C11.9540751,19.2581955 11.9638496,19.6069674 12.1361804,19.883609 C12.3097643,20.1627068 12.6169824,20.3252632 12.981243,20.3330326 L16.5733232,20.3782456 L13.9729724,26.8782456 C13.9090125,27.040401 13.7745262,27.3802005 14.0141252,27.7294236 C14.118837,27.8826065 14.2985363,27.9763409 14.4834987,27.9763409 L14.5254536,27.9763409 C14.8762806,27.9763409 15.0877092,27.7102757 15.1891628,27.5819549 L23.5915689,17.0310777 C23.9501152,16.5816541 23.8021954,16.1782957 23.74801,16.0609524 C23.6917694,15.9485213 23.4660551,15.5801504 22.8935739,15.5801504 L20.2198897,15.5801504 L23.7186365,9.41548872 C23.902045,9.09032581 23.9122205,8.73829574 23.7447518,8.4518797 C23.5768821,8.16421053 23.2660049,8 22.893223,8 Z" id="speed-reading-icon"></path>
                    </g>
                </g>
            </g>
        </g>
    </g>
</svg>