<?xml version="1.0" encoding="UTF-8" standalone="no"?>
<svg width="36px" height="24px" viewBox="0 0 36 24" version="1.1" xmlns="http://www.w3.org/2000/svg" xmlns:xlink="http://www.w3.org/1999/xlink" xmlns:sketch="http://www.bohemiancoding.com/sketch/ns">
    <!-- Generator: Sketch 3.4 (15588) - http://www.bohemiancoding.com/sketch -->
    <title>Aa</title>
    <desc>Created with Sketch.</desc>
    <defs></defs>
    <g id="Page-1" stroke="none" stroke-width="1" fill="none" fill-rule="evenodd" sketch:type="MSPage">
        <g id="Artboard-1" sketch:type="MSArtboardGroup" transform="translate(-1226.000000, -32.000000)" stroke="#FFFFFF" stroke-width="0.5" fill="#FFFFFF">
            <path d="M1247.304,55 L1246.04,55 C1245.89067,55 1245.768,54.9600004 1245.672,54.88 C1245.576,54.7999996 1245.50133,54.6960006 1245.448,54.568 L1242.776,47.992 L1231.656,47.992 L1229,54.568 C1228.95733,54.6853339 1228.88267,54.7866662 1228.776,54.872 C1228.66933,54.9573338 1228.54133,55 1228.392,55 L1227.144,55 L1236.408,32.36 L1238.04,32.36 L1247.304,55 Z M1232.152,46.776 L1242.296,46.776 L1237.672,35.336 C1237.59733,35.1546658 1237.52267,34.9493345 1237.448,34.72 C1237.37333,34.4906655 1237.29867,34.2480013 1237.224,33.992 C1237.14933,34.2480013 1237.07467,34.4906655 1237,34.72 C1236.92533,34.9493345 1236.85067,35.159999 1236.776,35.352 L1232.152,46.776 Z M1260.28,55 C1259.96,55 1259.76267,54.8506682 1259.688,54.552 L1259.464,52.52 C1259.02666,52.9466688 1258.592,53.330665 1258.16,53.672 C1257.728,54.013335 1257.27734,54.3013322 1256.808,54.536 C1256.33866,54.7706678 1255.832,54.9493327 1255.288,55.072 C1254.744,55.1946673 1254.14667,55.256 1253.496,55.256 C1252.952,55.256 1252.424,55.1760008 1251.912,55.016 C1251.4,54.8559992 1250.94667,54.6106683 1250.552,54.28 C1250.15733,53.9493317 1249.84,53.5253359 1249.6,53.008 C1249.36,52.4906641 1249.24,51.869337 1249.24,51.144 C1249.24,50.4719966 1249.432,49.8480029 1249.816,49.272 C1250.2,48.6959971 1250.8,48.1946688 1251.616,47.768 C1252.432,47.3413312 1253.48266,47.0000013 1254.768,46.744 C1256.05334,46.4879987 1257.59732,46.3386669 1259.4,46.296 L1259.4,44.632 C1259.4,43.1599926 1259.08267,42.0266706 1258.448,41.232 C1257.81333,40.4373294 1256.87201,40.04 1255.624,40.04 C1254.856,40.04 1254.20267,40.1466656 1253.664,40.36 C1253.12533,40.5733344 1252.66934,40.8079987 1252.296,41.064 C1251.92266,41.3200013 1251.61867,41.5546656 1251.384,41.768 C1251.14933,41.9813344 1250.952,42.088 1250.792,42.088 C1250.57867,42.088 1250.41867,41.992001 1250.312,41.8 L1250.04,41.336 C1250.872,40.5039958 1251.74666,39.8746688 1252.664,39.448 C1253.58134,39.0213312 1254.62133,38.808 1255.784,38.808 C1256.63734,38.808 1257.384,38.9439986 1258.024,39.216 C1258.664,39.4880014 1259.19466,39.8773308 1259.616,40.384 C1260.03734,40.8906692 1260.35467,41.5039964 1260.568,42.224 C1260.78133,42.9440036 1260.888,43.7466622 1260.888,44.632 L1260.888,55 L1260.28,55 Z M1253.88,54.152 C1254.49867,54.152 1255.06666,54.085334 1255.584,53.952 C1256.10134,53.818666 1256.58133,53.6320012 1257.024,53.392 C1257.46667,53.1519988 1257.88,52.8666683 1258.264,52.536 C1258.648,52.2053317 1259.02666,51.8480019 1259.4,51.464 L1259.4,47.32 C1257.88533,47.3626669 1256.58134,47.4773324 1255.488,47.664 C1254.39466,47.8506676 1253.49334,48.1039984 1252.784,48.424 C1252.07466,48.7440016 1251.552,49.1253311 1251.216,49.568 C1250.88,50.0106689 1250.712,50.5146638 1250.712,51.08 C1250.712,51.613336 1250.8,52.0746647 1250.976,52.464 C1251.152,52.8533353 1251.384,53.1733321 1251.672,53.424 C1251.96,53.6746679 1252.296,53.8586661 1252.68,53.976 C1253.064,54.0933339 1253.464,54.152 1253.88,54.152 L1253.88,54.152 Z" id="Aa" sketch:type="MSShapeGroup"></path>
        </g>
    </g>
</svg>