<?xml version="1.0" encoding="UTF-8" standalone="no"?>
<svg width="30px" height="30px" viewBox="0 0 30 30" version="1.1" xmlns="http://www.w3.org/2000/svg" xmlns:xlink="http://www.w3.org/1999/xlink" xmlns:sketch="http://www.bohemiancoding.com/sketch/ns">
    <!-- Generator: Sketch 3.2.2 (9983) - http://www.bohemiancoding.com/sketch -->
    <title>user-icon</title>
    <desc>Created with Sketch.</desc>
    <defs></defs>
    <g id="Welcome" stroke="none" stroke-width="1" fill="none" fill-rule="evenodd" sketch:type="MSPage">
        <g id="Login" sketch:type="MSArtboardGroup" transform="translate(-432.000000, -327.000000)" fill="#BFBFBF">
            <g id="TamañoMenu" sketch:type="MSLayerGroup" transform="translate(382.000000, 171.000000)">
                <g id="user-icon" transform="translate(50.000000, 155.000000)" sketch:type="MSShapeGroup">
                    <path d="M24.375,21.6248828 L22.5,21.6248828 C20.4290625,21.6248828 18.75,19.9458203 18.75,17.8748828 L18.75,16.6700195 C19.5794531,15.6840039 20.1745898,14.5176367 20.5444336,13.285293 C20.5828711,13.0774609 20.7825,12.9749219 20.9161523,12.8321289 C21.6339258,12.1143555 21.7749023,10.9031055 21.2366016,10.0406641 C21.1633594,9.90976562 21.0315234,9.79621094 21.0388477,9.63414062 C21.0388477,8.53457031 21.0443555,7.43318359 21.0370312,6.33455078 C21.0077344,5.00792969 20.6286914,3.62822266 19.6985156,2.64589844 C18.9477539,1.85212891 17.9169141,1.37974609 16.8530273,1.17736328 C15.5090039,0.921015625 14.1027539,0.933847656 12.7716211,1.27257812 C11.6180273,1.56373047 10.534043,2.239375 9.86390625,3.24097656 C9.27064453,4.11162109 9.01060547,5.1690625 8.96666016,6.21097656 C8.95019531,7.32976562 8.96296875,8.45125 8.95933594,9.57279297 C8.985,9.79708984 8.79451172,9.94908203 8.70849609,10.1349414 C8.20130859,11.0550391 8.42466797,12.308418 9.23953125,12.9776758 C9.44642578,13.1205273 9.48492187,13.3805078 9.55998047,13.6048047 C9.91523437,14.7125781 10.5048047,15.7370898 11.2500586,16.629707 L11.2500586,17.8748242 C11.2500586,19.9457617 9.57099609,21.6248242 7.50005859,21.6248242 L5.625,21.6248242 C5.625,21.6248242 2.2265625,22.5623242 0,27.2498242 L0,29.1248242 C0,30.1612305 0.838652344,30.9998242 1.875,30.9998242 L28.125,30.9998242 C29.1614062,30.9998242 30,30.1611719 30,29.1248242 L30,27.2498242 C27.7734375,22.5623828 24.375,21.6248828 24.375,21.6248828 L24.375,21.6248828 Z" id="Shape"></path>
                </g>
            </g>
        </g>
    </g>
</svg>