<?xml version="1.0" encoding="UTF-8" standalone="no"?>
<svg width="39px" height="23px" viewBox="0 0 39 23" version="1.1" xmlns="http://www.w3.org/2000/svg" xmlns:xlink="http://www.w3.org/1999/xlink" xmlns:sketch="http://www.bohemiancoding.com/sketch/ns">
    <!-- Generator: Sketch 3.2.2 (9983) - http://www.bohemiancoding.com/sketch -->
    <title>Aplus-icon</title>
    <desc>Created with Sketch.</desc>
    <defs></defs>
    <g id="Welcome" stroke="none" stroke-width="1" fill="none" fill-rule="evenodd" sketch:type="MSPage">
        <g id="BaseInfo" sketch:type="MSArtboardGroup" transform="translate(-174.000000, -324.000000)" fill="#FFFFFF">
            <g id="Menu" sketch:type="MSLayerGroup" transform="translate(164.000000, 174.000000)">
                <g id="Menu-icons" transform="translate(10.000000, 17.000000)" sketch:type="MSShapeGroup">
                    <g id="Rectangle-24-+-Aa-2" transform="translate(0.000000, 129.000000)">
                        <g id="Aplus-icon" transform="translate(0.000000, 4.000000)">
                            <path d="M12.609375,4.34375 L9.203125,12.984375 C9.59896031,12.9947917 10.018227,13.0026041 10.4609375,13.0078125 C10.903648,13.0130209 11.494788,13.015625 12.234375,13.015625 C13.0885459,13.015625 13.7552059,13.0130209 14.234375,13.0078125 C14.7135441,13.0026041 15.1614563,12.9947917 15.578125,12.984375 L12.609375,4.34375 Z M11.75,0.59375 L15.5625,0.59375 C17.0625075,4.98960531 18.4921807,9.02862742 19.8515625,12.7109375 C21.2109443,16.3932476 22.1614556,18.8437439 22.703125,20.0625 C22.9322928,20.6145861 23.2213524,21.0078113 23.5703125,21.2421875 C23.9192726,21.4765637 24.3854138,21.59375 24.96875,21.59375 L25.3125,21.59375 L25.3125,23 C23.9895767,22.9374997 22.9739619,22.8958334 22.265625,22.875 C21.5572881,22.8541666 20.9635441,22.84375 20.484375,22.84375 C20.0260394,22.84375 19.4322953,22.8541666 18.703125,22.875 C17.9739547,22.8958334 16.9166736,22.9374997 15.53125,23 L15.53125,21.59375 L15.8125,21.59375 C16.6354208,21.59375 17.1927069,21.5000009 17.484375,21.3125 C17.7760431,21.1249991 17.921875,20.7916691 17.921875,20.3125 C17.921875,20.1666659 17.903646,19.9947927 17.8671875,19.796875 C17.830729,19.5989573 17.7552089,19.3229184 17.640625,18.96875 L16.359375,15.1875 C15.765622,15.1770833 14.9843798,15.1640626 14.015625,15.1484375 C13.0468702,15.1328124 12.4427095,15.125 12.203125,15.125 C11.7552061,15.125 10.8541734,15.1406248 9.5,15.171875 C9.01041422,15.1822917 8.63020969,15.1875 8.359375,15.1875 L8.296875,15.34375 C7.27603656,17.8333458 6.765625,19.4062467 6.765625,20.0625 C6.765625,20.6041694 6.9192693,20.9947905 7.2265625,21.234375 C7.5338557,21.4739595 8.04166312,21.59375 8.75,21.59375 L9.03125,21.59375 L9.03125,23 C7.84374406,22.9374997 6.92187828,22.8958334 6.265625,22.875 C5.60937172,22.8541666 5.06771047,22.84375 4.640625,22.84375 C4.28645656,22.84375 3.82031539,22.8541666 3.2421875,22.875 C2.66405961,22.8958334 1.82292219,22.9374997 0.71875,23 L0.71875,21.59375 C1.46875375,21.59375 2.06770609,21.463543 2.515625,21.203125 C2.96354391,20.942707 3.34374844,20.5052114 3.65625,19.890625 C4.10416891,19.0781209 5.11457547,16.8073103 6.6875,13.078125 C8.26042453,9.34893969 9.94790766,5.18752297 11.75,0.59375 L11.75,0.59375 Z" id="A"></path>
                            <path d="M31.89,11.01 L38.64,11.01 L38.64,12.81 L31.89,12.81 L31.89,19.56 L30.09,19.56 L30.09,12.81 L23.34,12.81 L23.34,11.01 L30.09,11.01 L30.09,4.26 L31.89,4.26 L31.89,11.01 Z" id="+"></path>
                        </g>
                    </g>
                </g>
            </g>
        </g>
    </g>
</svg>