<?xml version="1.0" encoding="UTF-8" standalone="no"?>
<svg width="32px" height="32px" viewBox="0 0 32 32" version="1.1" xmlns="http://www.w3.org/2000/svg" xmlns:xlink="http://www.w3.org/1999/xlink" xmlns:sketch="http://www.bohemiancoding.com/sketch/ns">
    <!-- Generator: Sketch 3.2.2 (9983) - http://www.bohemiancoding.com/sketch -->
    <title>print-icon</title>
    <desc>Created with Sketch.</desc>
    <defs></defs>
    <g id="Welcome" stroke="none" stroke-width="1" fill="none" fill-rule="evenodd" sketch:type="MSPage">
        <g id="BaseInfo" sketch:type="MSArtboardGroup" transform="translate(-178.000000, -818.000000)" fill="#FFFFFF">
            <g id="Menu" sketch:type="MSLayerGroup" transform="translate(164.000000, 174.000000)">
                <g id="Menu-icons" transform="translate(10.000000, 17.000000)" sketch:type="MSShapeGroup">
                    <g id="print-icon" transform="translate(4.000000, 627.000000)">
                        <rect id="Rectangle-path" x="10.0005" y="24" width="9.999" height="2"></rect>
                        <path d="M8.0005,2 L23.9995,2 L23.9995,6 L25.9995,6 L25.9995,2 C25.9995,0.8965 25.1049375,0 23.9995,0 L8.0005,0 C6.896,0 6.0005,0.8965 6.0005,2 L6.0005,6 L8.0005,6 L8.0005,2 L8.0005,2 Z" id="Shape"></path>
                        <rect id="Rectangle-path" x="10.0005" y="20" width="11.999" height="2"></rect>
                        <path d="M2.0005,8 C0.896,8 0.0005,8.8965 0.0005,10 L0.0005,22 C0.0005,23.1055 0.896,24 2.0005,24 L6.0005,24 L6.0005,30 C6.0005,31.1055 6.896,32 8.0005,32 L23.9995,32 C25.105,32 25.9995,31.1054375 25.9995,30 L25.9995,24 L29.9995,24 C31.105,24 31.9995,23.1054375 31.9995,22 L31.9995,10 C31.9995,8.8965 31.105,8 29.9995,8 L2.0005,8 Z M23.9995,30 L8.0005,30 L8.0005,18 L23.9995,18 L23.9995,30 L23.9995,30 Z M27.9995,14 C26.894,14 25.9995,13.1054375 25.9995,12 C25.9995,10.8965 26.8940625,10 27.9995,10 C29.1049375,10 29.9995,10.8965 29.9995,12 C29.9995,13.1055 29.105,14 27.9995,14 L27.9995,14 Z" id="Shape"></path>
                    </g>
                </g>
            </g>
        </g>
    </g>
</svg>