<?xml version="1.0" encoding="UTF-8" standalone="no"?>
<svg width="44px" height="52px" viewBox="0 0 44 52" version="1.1" xmlns="http://www.w3.org/2000/svg" xmlns:xlink="http://www.w3.org/1999/xlink" xmlns:sketch="http://www.bohemiancoding.com/sketch/ns">
    <!-- Generator: Sketch 3.2.2 (9983) - http://www.bohemiancoding.com/sketch -->
    <title>back-icon</title>
    <desc>Created with Sketch.</desc>
    <defs></defs>
    <g id="Page-1" stroke="none" stroke-width="1" fill="none" fill-rule="evenodd" sketch:type="MSPage">
        <g id="Artboard-1" sketch:type="MSArtboardGroup" transform="translate(-618.000000, -614.000000)" fill-opacity="0.2" fill="#000000">
            <path d="M614.643556,642.064238 C614.591241,641.986862 614.538925,641.910797 614.491975,641.829487 C614.442343,641.74293 614.399417,641.653751 614.35515,641.564572 C614.331004,641.516048 614.302835,641.471458 614.281372,641.421623 C614.27064,641.394082 614.265275,641.366541 614.253202,641.340312 C614.215642,641.244576 614.184789,641.147528 614.155278,641.049168 C614.131132,640.969169 614.106987,640.891793 614.088207,640.810482 C614.065402,640.716057 614.05333,640.619009 614.037232,640.521961 C614.026501,640.439339 614.013087,640.358029 614.00638,640.275407 C613.998331,640.177047 613.999673,640.077376 614.001014,639.976394 C614.001014,639.896395 613.999673,639.817707 614.00638,639.737708 C614.013087,639.635414 614.029184,639.534432 614.04394,639.432138 C614.056012,639.354762 614.066744,639.280008 614.084182,639.202632 C614.105645,639.102961 614.136498,639.004602 614.167351,638.904931 C614.191496,638.827555 614.214301,638.752801 614.243812,638.678048 C614.257226,638.64395 614.265275,638.607229 614.277348,638.574443 C614.304176,638.512804 614.340394,638.457723 614.368564,638.398707 C614.404783,638.322642 614.442343,638.250512 614.483927,638.17707 C614.53356,638.089203 614.591241,638.002646 614.648922,637.920024 C614.695872,637.85314 614.740139,637.786255 614.791113,637.724617 C614.858184,637.640683 614.930621,637.560684 615.0044,637.481997 C615.037935,637.445276 615.067447,637.40462 615.103665,637.369211 L632.905712,619.964823 C634.39201,618.511726 636.798526,618.511726 638.283483,619.964823 C639.767099,621.413987 639.767099,623.770681 638.283483,625.221156 L626.968566,636.280699 L662.194378,636.280699 C663.507633,636.280699 664.666624,636.929872 665.349409,637.920024 C665.759885,638.512804 666,639.228861 666,640 C666,641.025562 665.573427,641.955387 664.885276,642.628166 C664.197125,643.302257 663.246055,643.717989 662.194378,643.717989 L662.194378,643.716678 L626.975273,643.716678 L638.288849,654.776221 C639.771123,656.226696 639.773806,658.580767 638.288849,660.033865 C637.5457,660.761726 636.571826,661.125 635.597951,661.125 C634.624077,661.125 633.651544,660.763037 632.909736,660.0378 L615.106348,642.628166 C615.068788,642.591445 615.039277,642.548167 615.003058,642.511446 C614.931963,642.435381 614.86355,642.359317 614.799162,642.278006 C614.742822,642.20981 614.693189,642.13768 614.643556,642.064238 L614.643556,642.064238 L614.643556,642.064238 Z" id="back-icon" sketch:type="MSShapeGroup" transform="translate(640.000000, 640.000000) rotate(-90.000000) translate(-640.000000, -640.000000) "></path>
        </g>
    </g>
</svg>