<?xml version="1.0" encoding="UTF-8" standalone="no"?>
<svg width="88px" height="33px" viewBox="0 0 88 33" version="1.1" xmlns="http://www.w3.org/2000/svg" xmlns:xlink="http://www.w3.org/1999/xlink" xmlns:sketch="http://www.bohemiancoding.com/sketch/ns">
    <!-- Generator: Sketch 3.3.2 (12043) - http://www.bohemiancoding.com/sketch -->
    <title>logo-solo-texto-gris-acero</title>
    <desc>Created with Sketch.</desc>
    <defs></defs>
    <g id="Welcome" stroke="none" stroke-width="1" fill="none" fill-rule="evenodd" sketch:type="MSPage">
        <g id="Artboard-4-Copy" sketch:type="MSArtboardGroup" transform="translate(-16.000000, -660.000000)">
            <g id="logo-solo-texto-gris-acero" sketch:type="MSLayerGroup" transform="translate(16.000000, 660.000000)">
                <rect id="Rectangle-479" sketch:type="MSShapeGroup" x="0" y="0" width="88" height="35"></rect>
                <path d="M57.2670571,28.8705742 L57.2670571,17.5751515 C57.2670571,17.1933726 57.0895225,17.014545 56.7077928,17.014545 L55.4893194,17.014545 L55.4893194,13.8266132 L59.527306,13.8266132 C60.8227712,13.8266132 61.2036637,14.4388276 61.2036637,14.9234624 L61.2036637,14.9999142 L61.2036637,15.2297497 C61.2036637,15.2806375 61.2036637,15.3059614 61.1781991,15.3315253 L61.2287694,15.3315253 C61.4830564,14.9999142 61.787914,14.6937469 62.1690455,14.4133837 C62.8036274,13.928989 63.7938759,13.521046 65.1913187,13.521046 C68.7470328,13.521046 71.0839147,16.3263588 71.0839147,20.4057882 C71.0839147,24.5620294 68.4678791,27.2643664 64.9882002,27.2643664 C63.8957344,27.2643664 63.1082456,26.9329952 62.5247124,26.627188 C62.19451,26.4484805 61.9148782,26.244209 61.6609497,26.0149736 L61.6096619,26.0149736 C61.6096619,26.0915454 61.6096619,26.1936812 61.6350071,26.3207808 C61.6608303,26.5249323 61.6608303,26.8057756 61.6608303,27.1371467 L61.6608303,28.8704541 L63.3117232,28.8704541 L63.3117232,32.058386 L55.6162836,32.058386 L55.6162836,28.8704541 L57.2670571,28.8704541 L57.2670571,28.8705742 L57.2670571,28.8705742 Z M64.0988532,23.6180838 C65.4961763,23.6180838 66.6646769,22.5224348 66.6646769,20.4816399 C66.6646769,18.5187371 65.6231405,17.2436603 64.0988532,17.2436603 C62.7785213,17.2436603 61.5341051,18.2377737 61.5341051,20.4816399 C61.5341051,22.0373199 62.372284,23.6180838 64.0988532,23.6180838 L64.0988532,23.6180838 L64.0988532,23.6180838 Z" id="Shape" opacity="0.4" fill="#8192A1" sketch:type="MSShapeGroup"></path>
                <path d="M73.5211007,28.8655334 L73.5211007,17.5701107 C73.5211007,17.1883318 73.3435661,17.0095042 72.9618368,17.0095042 L71.7433633,17.0095042 L71.7433633,13.8215724 L75.78135,13.8215724 C77.0768149,13.8215724 77.4577073,14.4337868 77.4577073,14.9184216 L77.4577073,14.9948734 L77.4577073,15.2247089 C77.4577073,15.2755967 77.4577073,15.3009206 77.4322428,15.3264846 L77.4828131,15.3264846 C77.7371004,14.9948734 78.0419576,14.6887062 78.4230895,14.4083429 C79.057671,13.9239482 80.0479199,13.5160053 81.4453627,13.5160053 C85.0010768,13.5160053 87.3379587,16.3213181 87.3379587,20.4007474 C87.3379587,24.5569886 84.7219228,27.2593256 81.2422438,27.2593256 C80.1497781,27.2593256 79.3622896,26.9279545 78.7787564,26.6221473 C78.448554,26.4434397 78.1689219,26.2391682 77.9149937,26.0099328 L77.8637059,26.0099328 C77.8637059,26.0865046 77.8637059,26.1886404 77.8890507,26.31574 C77.914874,26.5198915 77.914874,26.8007348 77.914874,27.1321059 L77.914874,28.8654134 L79.5657668,28.8654134 L79.5657668,32.0533452 L71.8703276,32.0533452 L71.8703276,28.8654134 L73.5211007,28.8654134 L73.5211007,28.8655334 L73.5211007,28.8655334 Z M80.3528969,23.613043 C81.7502199,23.613043 82.9187209,22.517394 82.9187209,20.4765991 C82.9187209,18.5136963 81.8771842,17.2386196 80.3528969,17.2386196 C79.0325653,17.2386196 77.7881488,18.2327329 77.7881488,20.4765991 C77.7881488,22.0322791 78.6263276,23.613043 80.3528969,23.613043 L80.3528969,23.613043 L80.3528969,23.613043 Z" id="Shape" opacity="0.4" fill="#8192A1" sketch:type="MSShapeGroup"></path>
                <path d="M48.3451342,18.7941796 L49.1328621,18.7941796 L49.1328621,18.4115605 C49.1328621,17.3147113 48.26886,16.9577762 47.2780136,16.9577762 C46.388786,16.9577762 45.4995587,17.2639435 44.8135696,17.5698707 C44.4069736,17.7484582 44.0259615,17.9781737 43.6701748,18.2076491 L42.1458875,15.2233887 C42.6032932,14.8916575 43.1115087,14.6112942 43.6701748,14.3560148 C44.6611408,13.922628 46.0332387,13.514205 47.6844903,13.514205 C51.5211512,13.514205 53.5284284,15.4019762 53.5284284,18.8707514 L53.5284284,23.2069004 C53.5284284,23.5895194 53.7062021,23.768227 54.0873339,23.768227 L55.0528354,23.768227 L55.0528354,26.9563988 L51.2671033,26.9563988 C49.9711603,26.9563988 49.5139936,26.2168447 49.5139936,25.5789463 L49.5139936,25.5024945 C49.5139936,25.3750349 49.5139936,25.2727791 49.5394581,25.2218912 C49.5649227,25.1707633 49.5649227,25.1196354 49.5649227,25.0941915 L49.5139936,25.0941915 C49.2854102,25.5024945 48.9804333,25.8595496 48.6247663,26.1657168 C48.0148121,26.7013595 47.0747751,27.2625661 45.6521069,27.2625661 C43.3653172,27.2625661 41.3580403,25.8596696 41.3580403,23.2069004 C41.3579206,19.3553861 46.3126314,18.7941796 48.3451342,18.7941796 L48.3451342,18.7941796 L48.3451342,18.7941796 Z M46.9476915,24.0741542 C48.0657411,24.0741542 49.1835521,22.7221456 49.1835521,21.5745285 L49.1835521,21.2683613 L48.7771948,21.2683613 C47.329062,21.2683613 45.7790711,21.7275521 45.7790711,22.9008532 C45.7789515,23.5896394 46.2362378,24.0741542 46.9476915,24.0741542 L46.9476915,24.0741542 L46.9476915,24.0741542 Z" id="Shape" fill="#8192A1" sketch:type="MSShapeGroup"></path>
                <path d="M30.3064189,23.768227 L32.0848737,23.768227 L32.0848737,17.5697507 C32.0848737,17.1873716 31.9070999,17.0087841 31.5257292,17.0087841 L30.3064189,17.0087841 L30.3064189,13.8203722 L34.447818,13.8203722 C35.6419029,13.8203722 36.3025468,14.304887 36.3025468,15.5038719 L36.3025468,16.1925382 C36.3025468,16.4220136 36.3025468,16.6003611 36.2770823,16.6770529 C36.2516177,16.7537448 36.2516177,16.8045126 36.2516177,16.8556405 L36.3025468,16.8556405 C36.8615716,15.070125 38.5129429,13.5907768 40.4694105,13.5907768 C40.6473038,13.5907768 40.7490426,13.5907768 40.8251971,13.6163407 C40.9014714,13.6419047 40.9521614,13.6419047 40.9775062,13.6419047 L40.9775062,17.9780537 L40.723578,17.9269258 C40.5458041,17.9013618 40.3677914,17.9013618 40.088279,17.9013618 C37.6491802,17.9013618 36.4805598,19.4315979 36.4805598,21.8546517 L36.4805598,23.7679869 L38.2591341,23.7679869 L38.2591341,26.9561588 L30.3064189,26.9561588 L30.3064189,23.768227 L30.3064189,23.768227 Z" id="Shape" fill="#8192A1" sketch:type="MSShapeGroup"></path>
                <path d="M21.8719094,13.514325 C26.0133084,13.514325 29.3164092,16.26911 29.3164092,20.4266714 C29.3164092,24.533465 26.0133084,27.2626861 21.8971349,27.2626861 C17.7812004,27.2626861 14.4782192,24.533465 14.4782192,20.4266714 C14.4782192,16.26911 17.806665,13.514325 21.8719094,13.514325 L21.8719094,13.514325 L21.8719094,13.514325 Z M21.8971349,23.5896394 C23.498055,23.5896394 24.8699136,22.3907744 24.8699136,20.4266714 C24.8699136,18.4628084 23.4979355,17.1876117 21.8971349,17.1876117 C20.2964538,17.1876117 18.9247148,18.4628084 18.9247148,20.4266714 C18.9247148,22.3907744 20.2964538,23.5896394 21.8971349,23.5896394 L21.8971349,23.5896394 L21.8971349,23.5896394 Z" id="Shape" fill="#8192A1" sketch:type="MSShapeGroup"></path>
                <path d="M7.56799699,11.9073971 L5.78942266,11.9073971 L5.78942266,8.71910517 L11.9635635,8.71910517 L11.9635635,21.8547718 C11.9635635,23.1048846 12.1922664,23.5383915 13.1832324,23.5383915 C13.3610062,23.5383915 13.4626254,23.5127075 13.5642445,23.5127075 L13.7165537,23.5127075 L13.7165537,27.0074067 L13.3355416,27.0582945 C13.0559096,27.0838585 12.7763972,27.0838585 12.3953851,27.0838585 C10.08337,27.0838585 7.56799699,26.5226519 7.56799699,22.1100511 L7.56799699,11.9073971 L7.56799699,11.9073971 Z" id="Shape" fill="#8192A1" sketch:type="MSShapeGroup"></path>
                <path d="M12.4316094,5.97800229 C14.7611986,9.14397072 13.6074028,13.9665548 11.4771066,15.5464785 C9.34669089,17.1256822 4.41624896,16.8153143 2.08713792,13.6493458 C-0.242451351,10.4831373 0.0753177274,0.0493276101 0.0753177274,0.0493276101 C0.0753177274,0.0493276101 10.1022592,2.81215386 12.4316094,5.97800229 L12.4316094,5.97800229 L12.4316094,5.97800229 Z" id="Shape" opacity="0.4" fill="#8192A1" sketch:type="MSShapeGroup"></path>
                <path d="M26.0223944,18.0372228 C22.6975352,20.1235047 17.997709,18.5950688 16.5936909,16.340281 C15.1903901,14.0857331 15.8805635,9.17505553 19.2054227,7.08925373 C22.5304015,5.00273182 32.8676999,6.12958566 32.8676999,6.12958566 C32.8676999,6.12958566 29.3470145,15.951181 26.0223944,18.0372228 L26.0223944,18.0372228 L26.0223944,18.0372228 Z" id="Shape" opacity="0.4" fill="#8192A1" sketch:type="MSShapeGroup"></path>
            </g>
        </g>
    </g>
</svg>