<?xml version="1.0" encoding="UTF-8" standalone="no"?>
<svg width="731px" height="268px" viewBox="0 0 731 268" version="1.1" xmlns="http://www.w3.org/2000/svg" xmlns:xlink="http://www.w3.org/1999/xlink" xmlns:sketch="http://www.bohemiancoding.com/sketch/ns">
    <!-- Generator: Sketch 3.3.2 (12043) - http://www.bohemiancoding.com/sketch -->
    <title>logo-solo-texto-blanco-verde</title>
    <desc>Created with Sketch.</desc>
    <defs></defs>
    <g id="Page-1" stroke="none" stroke-width="1" fill="none" fill-rule="evenodd" sketch:type="MSPage">
        <g id="Logo_Lorapp" sketch:type="MSLayerGroup" transform="translate(-86.000000, -1462.000000)">
            <g id="logo-solo-texto-blanco-verde" transform="translate(86.000000, 1462.000000)" sketch:type="MSShapeGroup">
                <g id="Group">
                    <path d="M103.985,49.769 C123.471,76.148 113.82,116.33 96.001,129.494 C78.181,142.652 36.94,140.066 17.458,113.687 C-2.028,87.306 0.63,0.371 0.63,0.371 C0.63,0.371 84.501,23.391 103.985,49.769 L103.985,49.769 Z" id="Shape" fill="#9FE525"></path>
                    <path d="M217.666,150.247 C189.855,167.63 150.543,154.895 138.799,136.108 C127.061,117.323 132.834,76.407 160.645,59.028 C188.457,41.643 274.924,51.032 274.924,51.032 C274.924,51.032 245.475,132.866 217.666,150.247 L217.666,150.247 Z" id="Shape" fill="#9FE525"></path>
                    <g transform="translate(48.000000, 72.000000)" id="Shape" fill="#FFFFFF">
                        <path d="M15.303,27.173 L0.426,27.173 L0.426,0.609 L52.07,0.609 L52.07,110.056 C52.07,120.472 53.983,124.084 62.272,124.084 C63.759,124.084 64.609,123.87 65.459,123.87 L66.733,123.87 L66.733,152.988 L63.546,153.412 C61.207,153.625 58.869,153.625 55.682,153.625 C36.343,153.625 15.303,148.949 15.303,112.183 L15.303,27.173 L15.303,27.173 Z"></path>
                        <path d="M134.949,40.562 C169.59,40.562 197.219,63.515 197.219,98.156 C197.219,132.374 169.59,155.114 135.16,155.114 C100.732,155.114 73.104,132.374 73.104,98.156 C73.104,63.515 100.945,40.562 134.949,40.562 L134.949,40.562 Z M135.16,124.51 C148.551,124.51 160.026,114.521 160.026,98.156 C160.026,81.793 148.55,71.168 135.16,71.168 C121.771,71.168 110.297,81.793 110.297,98.156 C110.297,114.521 121.771,124.51 135.16,124.51 L135.16,124.51 Z"></path>
                        <path d="M205.5,125.998 L220.376,125.998 L220.376,74.352 C220.376,71.166 218.889,69.678 215.699,69.678 L205.5,69.678 L205.5,43.112 L240.141,43.112 C250.129,43.112 255.655,47.149 255.655,57.139 L255.655,62.877 C255.655,64.789 255.655,66.275 255.442,66.914 C255.229,67.553 255.229,67.976 255.229,68.402 L255.655,68.402 C260.331,53.525 274.144,41.199 290.509,41.199 C291.997,41.199 292.848,41.199 293.485,41.412 C294.123,41.625 294.547,41.625 294.759,41.625 L294.759,77.754 L292.635,77.328 C291.148,77.115 289.659,77.115 287.321,77.115 C266.919,77.115 257.144,89.865 257.144,110.054 L257.144,125.996 L272.021,125.996 L272.021,152.56 L205.5,152.56 L205.5,125.998 L205.5,125.998 Z"></path>
                        <path d="M356.386,84.554 L362.975,84.554 L362.975,81.366 C362.975,72.227 355.748,69.253 347.46,69.253 C340.022,69.253 332.584,71.804 326.846,74.353 C323.445,75.841 320.258,77.755 317.282,79.667 L304.532,54.802 C308.358,52.038 312.609,49.702 317.282,47.575 C325.571,43.964 337.048,40.561 350.86,40.561 C382.952,40.561 399.742,56.29 399.742,85.192 L399.742,121.321 C399.742,124.509 401.229,125.998 404.417,125.998 L412.493,125.998 L412.493,152.562 L380.827,152.562 C369.987,152.562 366.163,146.4 366.163,141.085 L366.163,140.448 C366.163,139.386 366.163,138.534 366.376,138.11 C366.589,137.684 366.589,137.258 366.589,137.046 L366.163,137.046 C364.251,140.448 361.7,143.423 358.725,145.974 C353.623,150.437 345.76,155.113 333.86,155.113 C314.732,155.113 297.942,143.424 297.942,121.321 C297.941,89.229 339.385,84.554 356.386,84.554 L356.386,84.554 Z M344.697,128.547 C354.049,128.547 363.399,117.282 363.399,107.72 L363.399,105.169 L360,105.169 C347.887,105.169 334.922,108.995 334.922,118.771 C334.921,124.51 338.746,128.547 344.697,128.547 L344.697,128.547 Z"></path>
                    </g>
                </g>
                <path d="M479.014,240.511 L479.014,146.397 C479.014,143.216 477.529,141.726 474.336,141.726 L464.144,141.726 L464.144,115.164 L497.92,115.164 C508.756,115.164 511.942,120.265 511.942,124.303 L511.942,124.94 L511.942,126.855 C511.942,127.279 511.942,127.49 511.729,127.703 L512.152,127.703 C514.279,124.94 516.829,122.389 520.017,120.053 C525.325,116.017 533.608,112.618 545.297,112.618 C575.039,112.618 594.586,135.992 594.586,169.982 C594.586,204.612 572.704,227.128 543.598,227.128 C534.46,227.128 527.873,224.367 522.992,221.819 C520.23,220.33 517.891,218.628 515.767,216.718 L515.338,216.718 C515.338,217.356 515.338,218.207 515.55,219.266 C515.766,220.967 515.766,223.307 515.766,226.068 L515.766,240.51 L529.575,240.51 L529.575,267.072 L465.206,267.072 L465.206,240.51 L479.014,240.51 L479.014,240.511 Z M536.159,196.747 C547.847,196.747 557.621,187.618 557.621,170.614 C557.621,154.259 548.909,143.635 536.159,143.635 C525.115,143.635 514.706,151.918 514.706,170.614 C514.706,183.576 521.717,196.747 536.159,196.747 L536.159,196.747 Z" id="Shape" opacity="0.4" fill="#FFFFFF"></path>
                <path d="M614.972,240.469 L614.972,146.355 C614.972,143.174 613.487,141.684 610.294,141.684 L600.102,141.684 L600.102,115.122 L633.878,115.122 C644.714,115.122 647.9,120.223 647.9,124.261 L647.9,124.898 L647.9,126.813 C647.9,127.237 647.9,127.448 647.687,127.661 L648.11,127.661 C650.237,124.898 652.787,122.347 655.975,120.011 C661.283,115.975 669.566,112.576 681.255,112.576 C710.997,112.576 730.544,135.95 730.544,169.94 C730.544,204.57 708.662,227.086 679.556,227.086 C670.418,227.086 663.831,224.325 658.95,221.777 C656.188,220.288 653.849,218.586 651.725,216.676 L651.296,216.676 C651.296,217.314 651.296,218.165 651.508,219.224 C651.724,220.925 651.724,223.265 651.724,226.026 L651.724,240.468 L665.533,240.468 L665.533,267.03 L601.164,267.03 L601.164,240.468 L614.972,240.468 L614.972,240.469 Z M672.117,196.705 C683.805,196.705 693.579,187.576 693.579,170.572 C693.579,154.217 684.867,143.593 672.117,143.593 C661.073,143.593 650.664,151.876 650.664,170.572 C650.664,183.534 657.675,196.705 672.117,196.705 L672.117,196.705 Z" id="Shape" opacity="0.4" fill="#FFFFFF"></path>
            </g>
        </g>
    </g>
</svg>