<?xml version="1.0" encoding="UTF-8" standalone="no"?>
<svg width="24px" height="32px" viewBox="0 0 24 32" version="1.1" xmlns="http://www.w3.org/2000/svg" xmlns:xlink="http://www.w3.org/1999/xlink" xmlns:sketch="http://www.bohemiancoding.com/sketch/ns">
    <!-- Generator: Sketch 3.2.2 (9983) - http://www.bohemiancoding.com/sketch -->
    <title>password-icon</title>
    <desc>Created with Sketch.</desc>
    <defs></defs>
    <g id="Welcome" stroke="none" stroke-width="1" fill="none" fill-rule="evenodd" sketch:type="MSPage">
        <g id="Login" sketch:type="MSArtboardGroup" transform="translate(-435.000000, -384.000000)" fill="#BFBFBF">
            <g id="TamañoMenu" sketch:type="MSLayerGroup" transform="translate(382.000000, 171.000000)">
                <g id="password-icon" transform="translate(50.000000, 213.000000)" sketch:type="MSShapeGroup">
                    <path d="M25.097875,13.114375 L24.505125,13.114375 L24.505125,10.340125 C24.505125,5.2089375 20.4331875,0.9225625 15.34375,0.8310625 C15.20475,0.8285625 14.9268125,0.8285625 14.7878125,0.8310625 C9.6983125,0.9225625 5.6264375,5.2089375 5.6264375,10.340125 L5.6264375,13.114375 L5.033625,13.114375 C4.120125,13.114375 3.375,14.057 3.375,15.2211875 L3.375,29.1356875 C3.375,30.2985625 4.120125,31.25 5.0336875,31.25 L25.0979375,31.25 C26.0115,31.25 26.756625,30.2985625 26.756625,29.1356875 L26.756625,15.2211875 C26.7565625,14.057 26.0115,13.114375 25.097875,13.114375 L25.097875,13.114375 Z M16.9455625,22.1643125 L16.9455625,26.3686875 C16.9455625,26.8501875 16.5425,27.2575625 16.060625,27.2575625 L14.071,27.2575625 C13.589125,27.2575625 13.1860625,26.8501875 13.1860625,26.3686875 L13.1860625,22.1643125 C12.71875,21.70425 12.4466875,21.06825 12.4466875,20.364625 C12.4466875,19.03125 13.477375,17.8855 14.787875,17.832625 C14.92675,17.827 15.2049375,17.827 15.3438125,17.832625 C16.6543125,17.8855 17.685,19.03125 17.685,20.364625 C17.6849375,21.06825 17.4128125,21.70425 16.9455625,22.1643125 L16.9455625,22.1643125 Z M20.59825,13.114375 L15.34375,13.114375 L14.7878125,13.114375 L9.5333125,13.114375 L9.5333125,10.340125 C9.5333125,7.2835625 12.0173125,4.75625 15.06575,4.75625 C18.1141875,4.75625 20.59825,7.2835625 20.59825,10.340125 L20.59825,13.114375 L20.59825,13.114375 Z" id="Shape"></path>
                </g>
            </g>
        </g>
    </g>
</svg>