<?xml version="1.0" encoding="UTF-8" standalone="no"?>
<svg width="26px" height="26px" viewBox="0 0 26 26" version="1.1" xmlns="http://www.w3.org/2000/svg" xmlns:xlink="http://www.w3.org/1999/xlink" xmlns:sketch="http://www.bohemiancoding.com/sketch/ns">
    <!-- Generator: Sketch 3.2.2 (9983) - http://www.bohemiancoding.com/sketch -->
    <title>rock</title>
    <desc>Created with Sketch.</desc>
    <defs></defs>
    <g id="Page-1" stroke="none" stroke-width="1" fill="none" fill-rule="evenodd" sketch:type="MSPage">
        <g id="rock" sketch:type="MSArtboardGroup">
            <g id="Rock" sketch:type="MSLayerGroup" transform="translate(1.000000, 3.000000)">
                <path d="M6,1.22222222 L13.2,0 L20.4,2.44444444 L24,11 L21.6,17.1111111 C21.6,17.1111111 19.2,20.9900292 10.8,20.7777778 C2.4,20.5655263 0,15.8888889 0,15.8888889 L0,6.11111111 L6,1.22222222 Z" id="Path-3" fill="#8E8E8E" sketch:type="MSShapeGroup"></path>
                <path d="M19.2,7.33333333 L20.4,2.44444444 L24,11 L21.6,17.1111111 L19.2,7.33333333 Z" id="Path-6" fill="#5F5F5F" sketch:type="MSShapeGroup"></path>
                <path d="M4.80000019,6.99999999 L9.6,9.77777778 L9.6,20.7777778 C9.6,20.7777778 3.6,20.7777778 3.60600438e-14,15.8888889 C-1.14921453e-09,15.8888889 4.80000019,6.99999999 4.80000019,6.99999999 Z" id="Path-7" fill="#B9B9B9" sketch:type="MSShapeGroup"></path>
                <path d="M6,1.22222222 L13.2,0 L20.4,2.44444444 L19.2,7.33333333 L9.6,11 L3,10 L0,6.11111111 L6,1.22222222 Z" id="Path-4" fill="#DDDDDD" sketch:type="MSShapeGroup"></path>
                <path d="M10.8,2.44444444 L13.2,1.22222222 L18,6.11111111 L9.6,9.77777778 L10.8,2.44444444 Z" id="Path-5" fill="#C6C6C6" sketch:type="MSShapeGroup"></path>
                <path d="M3,5.49999997 L5,3.00000003 L9,2.00000004 L7,6.00000004 L4,8.00000004 L3,5.49999997 Z" id="Path-9" fill="#C6C6C6" sketch:type="MSShapeGroup"></path>
            </g>
        </g>
    </g>
</svg>