<?xml version="1.0" encoding="UTF-8" standalone="no"?>
<svg width="26px" height="26px" viewBox="0 0 26 26" version="1.1" xmlns="http://www.w3.org/2000/svg" xmlns:xlink="http://www.w3.org/1999/xlink" xmlns:sketch="http://www.bohemiancoding.com/sketch/ns">
    <!-- Generator: Sketch 3.2.2 (9983) - http://www.bohemiancoding.com/sketch -->
    <title>Arena</title>
    <desc>Created with Sketch.</desc>
    <defs></defs>
    <g id="Page-1" stroke="none" stroke-width="1" fill="none" fill-rule="evenodd" sketch:type="MSPage">
        <g id="Arena" sketch:type="MSArtboardGroup">
            <g id="Sand" sketch:type="MSLayerGroup" transform="translate(0.000000, 5.000000)">
                <path d="M13.0000002,0 C18.0000002,1.81719894e-16 26.0000002,13 26.0000002,13 C26.0000002,13 16.9743051,16 13.0000002,16 C8.30763862,16 2.08616257e-07,13 2.08616257e-07,13 C2.08616257e-07,13 8.00000021,-1.81719894e-16 13.0000002,0 Z" id="Path-1" fill="#FFC938" sketch:type="MSShapeGroup" transform="translate(13.000000, 8.000000) scale(-1, 1) translate(-13.000000, -8.000000) "></path>
                <path d="M1.50000005,0 C6.50000005,0 14.5,13 14.5,13 C14.5,13 5.50000021,16 1.50000003,16 C-0.499999733,16 -0.499999738,0 1.50000005,0 Z" id="Path-2" fill="#FFE038" sketch:type="MSShapeGroup" transform="translate(7.250000, 8.000000) scale(-1, 1) translate(-7.250000, -8.000000) "></path>
            </g>
        </g>
    </g>
</svg>