<?xml version="1.0" encoding="UTF-8" standalone="no"?>
<svg width="1780px" height="664px" viewBox="0 0 1780 664" version="1.1" xmlns="http://www.w3.org/2000/svg" xmlns:xlink="http://www.w3.org/1999/xlink" xmlns:sketch="http://www.bohemiancoding.com/sketch/ns">
    <!-- Generator: Sketch 3.3.3 (12081) - http://www.bohemiancoding.com/sketch -->
    <title>Imported Layers</title>
    <desc>Created with Sketch.</desc>
    <defs></defs>
    <g id="Page-1" stroke="none" stroke-width="1" fill="none" fill-rule="evenodd" sketch:type="MSPage">
        <g id="Artboard-14-Copy" sketch:type="MSArtboardGroup" transform="translate(-244.000000, -228.000000)" fill="#FFFFFF">
            <g id="Imported-Layers" sketch:type="MSLayerGroup" transform="translate(243.931737, 227.674365)">
                <path d="M252.849039,123.516306 C300.294748,189.107526 276.797106,289.017332 233.410103,321.752023 C190.023099,354.469308 89.6121333,348.039235 42.1785978,282.448016 C-5.26467668,216.851823 1.20685281,0.690972417 1.20685281,0.690972417 C1.20685281,0.690972417 205.410634,57.9275729 252.849039,123.516306" id="Fill-2" opacity="0.6" sketch:type="MSShapeGroup"></path>
                <path d="M529.632313,373.356715 C461.919858,416.579437 366.205498,384.913938 337.611954,338.20018 C309.033017,291.491394 323.088751,189.754014 390.801206,146.541238 C458.516096,103.313544 669.040453,126.659234 669.040453,126.659234 C669.040453,126.659234 597.339899,330.138967 529.632313,373.356715" id="Fill-3" opacity="0.6" sketch:type="MSShapeGroup"></path>
                <path d="M153.79909,246.359045 L117.577516,246.359045 L117.577516,180.307824 L243.314611,180.307824 L243.314611,452.449596 C243.314611,478.348915 247.972262,487.327644 268.156227,487.327644 C271.77668,487.327644 273.843771,486.798021 275.913297,486.798021 L279.015151,486.798021 L279.015151,559.199747 L271.258081,560.251534 C265.563232,560.781157 259.870819,560.781157 252.111314,560.781157 C205.025945,560.781157 153.79909,549.156799 153.79909,457.738368 L153.79909,246.359045" id="Fill-4" sketch:type="MSShapeGroup"></path>
                <path d="M445.105568,279.65071 C529.447273,279.65071 596.716607,336.723202 596.716607,422.857833 C596.716607,507.938191 529.447273,564.483547 445.619297,564.483547 C361.796191,564.483547 294.529292,507.938191 294.529292,422.857833 C294.529292,336.723202 362.31479,279.65071 445.105568,279.65071 L445.105568,279.65071 Z M445.619297,488.386891 C478.222853,488.386891 506.161454,463.551791 506.161454,422.857833 C506.161454,382.171336 478.222853,355.752339 445.619297,355.752339 C413.020611,355.752339 385.084445,382.171336 385.084445,422.857833 C385.084445,463.551791 413.020611,488.386891 445.619297,488.386891 L445.619297,488.386891 Z" id="Fill-5" sketch:type="MSShapeGroup"></path>
                <path d="M616.878659,492.086793 L653.097799,492.086793 L653.097799,363.671822 C653.097799,355.752339 649.477346,352.04995 641.710536,352.04995 L616.878659,352.04995 L616.878659,285.993756 L701.220365,285.993756 C725.538512,285.993756 738.990431,296.031731 738.990431,320.871804 L738.990431,335.141792 C738.990431,339.895968 738.990431,343.590898 738.471832,345.179768 C737.953233,346.766151 737.953233,347.820424 737.953233,348.87967 L738.990431,348.87967 C750.375259,311.888102 784.008708,281.23958 823.850735,281.23958 C827.473623,281.23958 829.545584,281.23958 831.094076,281.766717 C832.647438,282.29634 833.682201,282.29634 834.198365,282.29634 L834.198365,372.13336 L829.026985,371.074114 C825.404097,370.544491 821.781209,370.544491 816.088796,370.544491 C766.415303,370.544491 742.615754,402.247286 742.615754,452.449596 L742.615754,492.086793 L778.837328,492.086793 L778.837328,558.140501 L616.878659,558.140501 L616.878659,492.086793" id="Fill-6" sketch:type="MSShapeGroup"></path>
                <path d="M984.246303,389.039031 L1000.28878,389.039031 L1000.28878,381.112089 C1000.28878,358.388023 982.692941,350.99319 962.513846,350.99319 C944.401841,350.99319 926.294706,357.336236 912.324189,363.671822 C904.04365,367.374211 896.284145,372.13336 889.035934,376.887536 L857.993045,315.058382 C867.305912,308.1882 877.655976,302.377264 889.035934,297.090978 C909.217465,288.109762 937.160935,279.65071 970.789515,279.65071 C1048.92508,279.65071 1089.8043,318.760771 1089.8043,390.625415 L1089.8043,480.459949 C1089.8043,488.386891 1093.42719,492.086793 1101.1867,492.086793 L1120.84963,492.086793 L1120.84963,558.140501 L1043.75126,558.140501 C1017.35872,558.140501 1008.04829,542.818726 1008.04829,529.603012 L1008.04829,528.019115 C1008.04829,525.378459 1008.04829,523.259966 1008.56689,522.208179 C1009.08548,521.148933 1009.08548,520.089687 1009.08548,519.560063 L1008.04829,519.560063 C1003.39307,528.019115 997.182058,535.416434 989.941152,541.75948 C977.519127,552.856702 958.374794,564.483547 929.398995,564.483547 C882.827356,564.483547 841.948131,535.416434 841.948131,480.459949 C841.948131,400.66339 942.853349,389.039031 984.246303,389.039031 L984.246303,389.039031 Z M955.786669,498.424866 C978.556324,498.424866 1001.32111,470.417 1001.32111,446.641147 L1001.32111,440.298101 L993.043006,440.298101 C963.551044,440.298101 931.984685,449.811426 931.984685,474.119389 C931.984685,488.386891 941.297552,498.424866 955.786669,498.424866 L955.786669,498.424866 Z" id="Fill-7" sketch:type="MSShapeGroup"></path>
                <path d="M1673.44727,280.421523 C1668.87727,279.921738 1664.19771,279.65071 1659.40371,279.65071 C1630.94894,279.65071 1610.76741,288.109762 1597.83166,298.147738 C1590.06728,303.96116 1583.86114,310.299233 1578.68733,317.171902 L1577.65013,317.171902 C1578.16873,316.642278 1578.16873,316.117628 1578.16873,315.058382 L1578.16873,308.717823 C1578.16873,298.677361 1570.40435,285.993756 1544.01424,285.993756 L1461.7445,285.993756 L1461.7445,352.04995 L1486.58125,352.04995 C1494.34075,352.04995 1497.96364,355.752339 1497.96364,363.671822 L1497.96364,597.772725 L1464.33019,597.772725 L1464.33019,663.826433 L1621.11504,663.826433 L1621.11504,597.772725 L1587.48159,597.772725 L1587.48159,561.840404 C1587.48159,554.967735 1587.48159,549.156799 1586.963,544.929759 C1586.4444,542.289103 1586.4444,540.17061 1586.4444,538.586714 L1587.48159,538.586714 C1592.65298,543.343376 1598.34782,547.572902 1605.075,551.267832 C1616.97356,557.610878 1633.01604,564.483547 1655.26709,564.483547 C1726.15444,564.483547 1779.45083,508.467815 1779.45083,422.32821 C1779.45083,376.604076 1765.50222,338.630343 1741.25468,313.375026 C1720.31339,289.730956 1686.22708,282.271475 1673.44727,280.421523 Z M1637.15509,488.911541 C1601.96828,488.911541 1584.8959,456.149499 1584.8959,423.91708 C1584.8959,377.412187 1610.24882,356.806613 1637.15509,356.806613 C1668.20041,356.806613 1689.41427,383.225609 1689.41427,423.91708 C1689.41427,466.192447 1665.61472,488.911541 1637.15509,488.911541 L1637.15509,488.911541 Z" id="Fill-8-Copy" opacity="0.6" sketch:type="MSShapeGroup"></path>
                <path d="M1341.34886,280.421523 C1336.77886,279.921738 1332.0993,279.65071 1327.3053,279.65071 C1298.85054,279.65071 1278.66901,288.109762 1265.73325,298.147738 C1257.96888,303.96116 1251.76273,310.299233 1246.58892,317.171902 L1245.55172,317.171902 C1246.07032,316.642278 1246.07032,316.117628 1246.07032,315.058382 L1246.07032,308.717823 C1246.07032,298.677361 1238.30594,285.993756 1211.91584,285.993756 L1129.64609,285.993756 L1129.64609,352.04995 L1154.48284,352.04995 C1162.24234,352.04995 1165.86523,355.752339 1165.86523,363.671822 L1165.86523,597.772725 L1132.23178,597.772725 L1132.23178,663.826433 L1289.01664,663.826433 L1289.01664,597.772725 L1255.38319,597.772725 L1255.38319,561.840404 C1255.38319,554.967735 1255.38319,549.156799 1254.86459,544.929759 C1254.34599,542.289103 1254.34599,540.17061 1254.34599,538.586714 L1255.38319,538.586714 C1260.55457,543.343376 1266.24942,547.572902 1272.97659,551.267832 C1284.87515,557.610878 1300.91763,564.483547 1323.16868,564.483547 C1394.05604,564.483547 1447.35242,508.467815 1447.35242,422.32821 C1447.35242,376.604076 1433.40381,338.630343 1409.15627,313.375026 C1388.21498,289.730956 1354.12867,282.271475 1341.34886,280.421523 Z M1305.05668,488.911541 C1269.86987,488.911541 1252.7975,456.149499 1252.7975,423.91708 C1252.7975,377.412187 1278.15041,356.806613 1305.05668,356.806613 C1336.102,356.806613 1357.31586,383.225609 1357.31586,423.91708 C1357.31586,466.192447 1333.51631,488.911541 1305.05668,488.911541 L1305.05668,488.911541 Z" id="Fill-8-Copy-2" opacity="0.6" sketch:type="MSShapeGroup"></path>
            </g>
        </g>
    </g>
</svg>