<?xml version="1.0" encoding="UTF-8" standalone="no"?>
<svg width="20px" height="20px" viewBox="0 0 20 20" version="1.1" xmlns="http://www.w3.org/2000/svg" xmlns:xlink="http://www.w3.org/1999/xlink" xmlns:sketch="http://www.bohemiancoding.com/sketch/ns">
    <!-- Generator: Sketch 3.2.2 (9983) - http://www.bohemiancoding.com/sketch -->
    <title>expand-icon</title>
    <desc>Created with Sketch.</desc>
    <defs></defs>
    <g id="Welcome" stroke="none" stroke-width="1" fill="none" fill-rule="evenodd" sketch:type="MSPage">
        <g id="BaseInfo" sketch:type="MSArtboardGroup" transform="translate(-968.000000, -604.000000)" fill="#FFFFFF">
            <g id="Image" sketch:type="MSLayerGroup" transform="translate(744.000000, 588.000000)">
                <g id="On-hover" transform="translate(219.000000, 11.000000)" sketch:type="MSShapeGroup">
                    <g id="expand-icon" transform="translate(5.000000, 5.000000)">
                        <path d="M9.23579545,11.5495751 L8.48011364,10.796034 C8.17045455,10.4872521 7.66477273,10.4872521 7.34943182,10.796034 L2.67045455,15.4674221 L2.67045455,11.5014164 C2.67045455,11.0623229 2.30965909,10.7053824 1.87215909,10.7053824 L0.806818182,10.7053824 C0.366477273,10.7053824 0.00852272727,11.0651558 0.00852272727,11.5014164 L0.00852272727,19.203966 C0.00852272727,19.4249292 0.0965909091,19.6232295 0.244318182,19.7648725 C0.392045455,19.9121813 0.590909091,20 0.806818182,20 L8.53125,20 C8.97159091,20 9.32954545,19.6402266 9.32954545,19.203966 L9.32954545,18.1416431 C9.32954545,17.7025496 8.96875,17.3456091 8.53125,17.3456091 L4.55397727,17.3456091 L9.23579545,12.6770538 C9.54829545,12.3626062 9.54829545,11.8583569 9.23579545,11.5495751 L9.23579545,11.5495751 Z" id="Shape"></path>
                        <path d="M19.7556818,0.235127479 C19.6079545,0.0878186969 19.4090909,0 19.1931818,0 L11.46875,0 C11.0284091,0 10.6704545,0.359773371 10.6704545,0.796033994 L10.6704545,1.85835694 C10.6704545,2.29745042 11.03125,2.65439093 11.46875,2.65439093 L15.4460227,2.65439093 L10.7585227,7.32011331 C10.4488636,7.62889518 10.4488636,8.13597734 10.7585227,8.44759207 L11.5142045,9.20113314 C11.8238636,9.50991501 12.3323864,9.50991501 12.6448864,9.20113314 L17.3295455,4.5325779 L17.3295455,8.49858357 C17.3295455,8.93767705 17.6903409,9.29461756 18.1278409,9.29461756 L19.1931818,9.29461756 C19.6335227,9.29461756 19.9914773,8.93484419 19.9914773,8.49858357 L19.9914773,0.798866856 C19.9886364,0.575070822 19.8977273,0.376770538 19.7556818,0.235127479 L19.7556818,0.235127479 Z" id="Shape"></path>
                    </g>
                </g>
            </g>
        </g>
    </g>
</svg>