<?xml version="1.0" encoding="UTF-8" standalone="no"?>
<svg width="32px" height="32px" viewBox="0 0 32 32" version="1.1" xmlns="http://www.w3.org/2000/svg" xmlns:xlink="http://www.w3.org/1999/xlink" xmlns:sketch="http://www.bohemiancoding.com/sketch/ns">
    <!-- Generator: Sketch 3.2.2 (9983) - http://www.bohemiancoding.com/sketch -->
    <title>help-icon</title>
    <desc>Created with Sketch.</desc>
    <defs></defs>
    <g id="Welcome" stroke="none" stroke-width="1" fill="none" fill-rule="evenodd" sketch:type="MSPage">
        <g id="BaseInfo" sketch:type="MSArtboardGroup" transform="translate(-178.000000, -890.000000)">
            <g id="Menu" sketch:type="MSLayerGroup" transform="translate(164.000000, 174.000000)">
                <g id="Menu-icons" transform="translate(10.000000, 17.000000)" sketch:type="MSShapeGroup">
                    <g id="help-icon" transform="translate(4.000000, 699.000000)">
                        <ellipse id="Oval-253" stroke="#FFFFFF" stroke-width="3" cx="16" cy="15.725" rx="16" ry="15.725"></ellipse>
                        <path d="M12.8799653,9.53125 C12.7913418,9.55542004 12.7148045,9.56750488 12.650351,9.56750488 C12.5053308,9.56750488 12.3723975,9.5332645 12.2515473,9.46478271 C12.1306971,9.39630093 12.027976,9.30767877 11.9433808,9.19891357 C11.8587857,9.09014838 11.792319,8.9652717 11.743979,8.82427979 C11.6956389,8.68328787 11.6714692,8.53625565 11.6714692,8.38317871 C11.6714692,8.1334216 11.7480065,7.8917248 11.9010835,7.65808105 C12.0541604,7.42443731 12.307942,7.25927783 12.662436,7.16259766 C13.2666871,7.00146404 13.8769715,6.8886722 14.4933076,6.82421875 C15.1096437,6.7597653 15.7078433,6.72753906 16.2879243,6.72753906 C17.0049689,6.72753906 17.6837341,6.81817536 18.3242402,6.99945068 C18.9647463,7.180726 19.5266914,7.45867733 20.0100922,7.83331299 C20.4934931,8.20794865 20.8761797,8.68328569 21.1581635,9.25933838 C21.4401474,9.83539106 21.5811372,10.5141562 21.5811372,11.2956543 C21.5811372,11.8032252 21.5146705,12.2584208 21.3817353,12.6612549 C21.2488001,13.0640889 21.0715558,13.438719 20.849997,13.7851562 C20.6284383,14.1315935 20.3686142,14.4598984 20.0705171,14.7700806 C19.7724199,15.0802628 19.458214,15.3884262 19.1278901,15.6945801 C18.7572828,16.0571307 18.4330062,16.3612659 18.1550507,16.6069946 C17.8770953,16.8527234 17.6414409,17.0722647 17.4480805,17.265625 C17.2547202,17.4589853 17.1056738,17.6483145 17.000937,17.8336182 C16.8962001,18.0189218 16.8357759,18.2364489 16.8196626,18.4862061 L16.8196626,18.4741211 L16.8196626,18.6433105 C16.8196626,18.707764 16.8216767,18.8044427 16.825705,18.9333496 C16.8297334,19.0622565 16.8317475,19.2354725 16.8317475,19.4530029 C16.8317475,19.6383066 16.795493,19.8014519 16.7229829,19.9424438 C16.6504727,20.0834358 16.5517799,20.2002559 16.4269013,20.2929077 C16.3020228,20.3855595 16.161033,20.4560544 16.0039277,20.5043945 C15.8468224,20.5527346 15.6836771,20.5769043 15.5144868,20.5769043 C15.3452965,20.5769043 15.180137,20.5527346 15.0190034,20.5043945 C14.8578698,20.4560544 14.7148658,20.3835454 14.5899873,20.2868652 C14.4651087,20.1901851 14.3644017,20.0693367 14.2878632,19.9243164 C14.2113248,19.7792961 14.1730561,19.6060801 14.1730561,19.4046631 L14.1730561,18.0148926 C14.1891695,17.5878885 14.3039755,17.1971453 14.5174775,16.8426514 C14.7309795,16.4881574 14.9908036,16.1477677 15.2969575,15.8214722 C15.6031114,15.4951766 15.9354445,15.1789566 16.2939668,14.8728027 C16.6524891,14.5666489 16.982808,14.2484147 17.2849336,13.9180908 C17.5870591,13.5877669 17.8388266,13.2373065 18.0402436,12.8666992 C18.2416606,12.4960919 18.3423676,12.0852073 18.3423676,11.6340332 C18.3423676,11.1748024 18.2658303,10.7901016 18.1127534,10.4799194 C17.9596764,10.1697372 17.7542342,9.921998 17.4964204,9.73669434 C17.2386066,9.55139068 16.9445421,9.41845743 16.6142182,9.33789062 C16.2838943,9.25732382 15.9414905,9.21704102 15.5869965,9.21704102 C15.4580896,9.21704102 15.290916,9.22308344 15.0854707,9.23516846 C14.8800253,9.24725348 14.6544416,9.26538074 14.4087129,9.28955078 C14.1629841,9.31372082 13.9071883,9.34594706 13.6413178,9.38623047 C13.3754474,9.42651387 13.1216657,9.47485323 12.8799653,9.53125 L12.8799653,9.53125 Z M13.8830171,23.8277588 C13.8830171,23.6263418 13.9212857,23.4329843 13.9978242,23.2476807 C14.0743626,23.062377 14.1851403,22.8992317 14.3301606,22.7582397 C14.4751809,22.6172478 14.6483969,22.504456 14.8498139,22.4198608 C15.0512309,22.3352657 15.2768146,22.2929688 15.5265717,22.2929688 C15.7763288,22.2929688 16.0039267,22.3352657 16.209372,22.4198608 C16.4148174,22.504456 16.5900476,22.6172478 16.7350678,22.7582397 C16.8800881,22.8992317 16.9908658,23.062377 17.0674043,23.2476807 C17.1439427,23.4329843 17.1822114,23.6263418 17.1822114,23.8277588 C17.1822114,24.0372325 17.1439427,24.2366324 17.0674043,24.4259644 C16.9908658,24.6152964 16.8800881,24.78247 16.7350678,24.9274902 C16.5900476,25.0725105 16.4148174,25.1873165 16.209372,25.2719116 C16.0039267,25.3565068 15.7763288,25.3988037 15.5265717,25.3988037 C15.2768146,25.3988037 15.0512309,25.3565068 14.8498139,25.2719116 C14.6483969,25.1873165 14.4751809,25.0725105 14.3301606,24.9274902 C14.1851403,24.78247 14.0743626,24.6152964 13.9978242,24.4259644 C13.9212857,24.2366324 13.8830171,24.0372325 13.8830171,23.8277588 L13.8830171,23.8277588 Z" id="?" fill="#FFFFFF"></path>
                    </g>
                </g>
            </g>
        </g>
    </g>
</svg>